<svg width="91" height="25" viewBox="0 0 91 25" fill="none" xmlns="http://www.w3.org/2000/svg">
<path fill-rule="evenodd" clip-rule="evenodd" d="M18.3078 0.876307C18.3894 0.709059 18.6753 0.5 18.6753 0.5H23.4934C28.107 0.5 28.3349 0.5 28.4302 0.612396C28.4351 0.618236 28.4397 0.624379 28.4446 0.630841L28.4446 0.63086L28.4446 0.630916L28.4446 0.630949L28.4447 0.630992C28.453 0.642107 28.462 0.654166 28.4748 0.667247C28.4911 0.700697 28.5205 0.734146 28.5499 0.767595C28.594 0.817769 28.6381 0.867944 28.6381 0.918118L28.7198 1.04355V2.67422V4.43031C28.6789 4.55575 28.5564 4.76481 28.4339 4.84843L28.4268 4.85397C28.2712 4.97387 28.2712 4.97387 25.6166 4.97387H23.1259V20.0679H25.6574L28.189 20.1098H28.3115C28.4748 20.1934 28.6381 20.3606 28.6789 20.5279V22.3258C28.6789 23.581 28.6521 23.9003 28.6419 24.0208L28.6419 24.0209L28.6419 24.0211C28.6395 24.049 28.6381 24.0662 28.6381 24.0819C28.5973 24.2073 28.3115 24.5 28.3115 24.5H23.4117L18.6344 24.4582H18.5528C18.4303 24.3746 18.2261 24.1655 18.2261 24.0401V12.4582V1.00174L18.3078 0.876307ZM38.0704 0.876307C38.1521 0.709059 38.4379 0.5 38.4379 0.5H43.256C47.861 0.5 48.0916 0.5 48.2209 0.614403C48.2278 0.620431 48.2343 0.626776 48.2412 0.633455C48.2519 0.643883 48.2635 0.655126 48.2783 0.667247C48.3191 0.750871 48.4416 0.918118 48.4416 0.918118L48.5233 1.04355V12.5C48.5233 23.7056 48.5233 23.9564 48.4824 24.0819C48.4416 24.2073 48.2783 24.3746 48.1558 24.4582L48.0741 24.5H43.2969L38.5196 24.4582H38.3971C38.2746 24.3746 38.0704 24.1655 38.0296 24.0401V22.2422C38.0296 21.9264 38.0285 21.6671 38.0275 21.4533V21.4532V21.4532V21.4532V21.4531V21.4531V21.4531V21.453V21.453V21.4529V21.4529V21.4528V21.4528V21.4527V21.4527V21.4526V21.4526V21.4525C38.0239 20.6467 38.0232 20.4873 38.0979 20.3805C38.1163 20.3542 38.1393 20.3311 38.1679 20.3024L38.168 20.3023L38.1929 20.277C38.2746 20.2352 38.3971 20.0679 38.3971 20.0679H38.4788H41.0511H43.6235V4.93206H41.1328C38.5568 4.93206 38.4811 4.89267 38.3295 4.81389L38.3154 4.80662C38.1929 4.723 38.0704 4.59756 38.0296 4.47213C38.0265 4.46259 38.0236 4.45378 38.021 4.4449C37.9888 4.33702 37.9888 4.21953 37.9888 2.67422V1.00174L38.0704 0.876307ZM1.44463 5.39207L0.913818 5.55932V10.7022V15.845L1.2813 16.0123C1.85294 16.305 2.46541 16.4722 3.07788 16.5558C3.33739 16.5854 3.78016 16.5732 4.13298 16.5635H4.13301H4.13304L4.13319 16.5635C4.2799 16.5594 4.41105 16.5558 4.50698 16.5558C5.73192 16.305 6.67104 15.636 7.16102 14.6325C7.73265 13.4618 7.65099 11.7893 6.99769 10.6604C6.67104 10.075 6.22189 9.65688 5.60942 9.3642C5.03778 9.07151 4.54781 8.98789 3.85368 9.0297C3.15954 9.0297 2.7104 9.19695 2.17959 9.53145L1.97543 9.65688V7.44085V5.22482C1.97543 5.22482 1.73045 5.30845 1.44463 5.39207ZM4.6703 10.075C5.20111 10.2422 5.69109 10.5767 5.97691 11.0367C6.30356 11.5384 6.42605 12.082 6.42605 12.8346C6.42605 13.7126 6.22189 14.3398 5.77275 14.7997C5.48693 15.0924 5.20111 15.2597 4.75197 15.4269C4.05783 15.6778 2.91455 15.5942 2.17959 15.3015L2.01626 15.2179V12.96V10.7022L2.17959 10.5767C2.46541 10.3259 2.87372 10.1586 3.28204 10.075C3.60869 9.99138 3.69035 9.99138 4.09866 10.0332C4.38448 10.0332 4.50698 10.0332 4.6703 10.075ZM77.3092 9.90773C77.3092 9.8241 77.4725 9.61504 78.4116 8.52793L78.4933 8.61156C79.3507 7.60807 79.6366 7.31539 79.6366 7.31539H79.6774V9.1133H81.964V10.0332H79.6774V12.2492V14.6325C79.7591 15.0506 79.9224 15.1342 80.4532 15.1342C80.8207 15.1342 81.229 15.0506 81.6373 14.8833C81.8006 14.7997 81.964 14.7579 81.964 14.7579V15.2178V15.7614H81.8415C81.229 16.0123 80.6982 16.1377 80.1265 16.1377C79.5957 16.1377 79.2283 16.0123 78.9833 15.7614C78.7791 15.5523 78.6974 15.3851 78.6158 15.0924C78.4933 14.7579 78.4933 14.5488 78.4933 12.2074V9.99135H77.3092V9.90773ZM25.2493 8.52793C25.2493 8.52793 25.1676 8.56974 25.1268 8.61155L25.0451 8.69518V9.65685C25.0451 10.5767 25.0451 10.6185 25.086 10.6603L25.0981 10.6729L25.0981 10.6729L25.0982 10.6729C25.1147 10.69 25.1287 10.7045 25.1444 10.7168C25.2324 10.7858 25.3744 10.7858 26.3109 10.7858H27.3317V14.0053H26.2701H25.2085L25.1268 14.0889L25.0451 14.1725V15.1342C25.0451 16.0541 25.0451 16.0959 25.086 16.1377C25.0892 16.141 25.0923 16.1443 25.0951 16.1475L25.105 16.1589L25.105 16.159L25.105 16.159L25.1051 16.159L25.1051 16.159C25.1097 16.1644 25.114 16.1695 25.1186 16.1743C25.2035 16.2631 25.3812 16.2631 28.8016 16.2631C32.1682 16.2631 32.4248 16.2631 32.4921 16.1503C32.4976 16.1409 32.5019 16.1309 32.5065 16.12C32.5097 16.1123 32.5131 16.1043 32.5173 16.0959C32.5581 16.0122 32.5581 15.9286 32.5173 15.0924C32.5173 14.2562 32.5173 14.1725 32.4764 14.1307C32.3948 14.0053 32.3539 14.0053 31.2515 14.0053H30.2307V10.7858H31.2515C32.1747 10.7858 32.3524 10.7858 32.4296 10.6977C32.448 10.6767 32.4607 10.6507 32.4764 10.6185C32.5173 10.5349 32.5173 10.4513 32.4764 9.61504C32.4764 8.7788 32.4764 8.69518 32.4356 8.65337C32.4315 8.64703 32.4281 8.64102 32.4249 8.63531C32.4214 8.62926 32.4182 8.62356 32.4145 8.61818C32.3527 8.52793 32.1592 8.52793 28.7199 8.52793H25.2493ZM34.1506 8.56966C34.1506 8.56966 34.1341 8.54864 34.1117 8.64922L34.1506 8.56966ZM34.111 8.65266L34.1097 8.65328L34.1117 8.64922L34.111 8.65266ZM34.111 8.65266C34.1918 8.61147 34.2369 8.61147 35.1713 8.61147C36.233 8.61147 36.2738 8.61147 36.3963 8.73691C36.4371 8.77872 37.0088 9.57314 37.6621 10.493L38.887 12.1655V10.4512C38.887 8.77872 38.887 8.73691 38.9278 8.69509C38.9475 8.67498 38.964 8.65809 38.9825 8.64391C39.0797 8.56966 39.2336 8.56966 40.1936 8.56966C41.2144 8.56966 41.2552 8.56966 41.3369 8.61147C41.3479 8.6171 41.3581 8.62102 41.3677 8.62468C41.3772 8.6283 41.3859 8.63167 41.3941 8.63617C41.5002 8.69469 41.5002 8.94558 41.5002 12.4582V12.4592C41.5002 16.054 41.5002 16.1376 41.4594 16.2212L41.4468 16.2385C41.4265 16.2666 41.41 16.2894 41.3896 16.308C41.3011 16.3885 41.1393 16.3885 40.2753 16.3885L39.2953 16.3049H39.1728C39.0912 16.263 38.8053 15.9285 37.8254 14.6324L36.6004 13.0435V14.5906C36.5615 16.2239 36.5597 16.2251 36.4537 16.2939L36.4473 16.2981L36.4371 16.3049C36.3963 16.3467 36.3146 16.3467 35.2938 16.3467C34.1097 16.3467 34.1097 16.3467 34.0281 16.1794C33.9872 16.0958 33.9872 16.0122 33.9872 12.4174V12.4163C33.9872 9.66104 34.0626 8.87406 34.111 8.65266ZM54.1169 8.77877C53.627 8.82058 53.0962 8.94602 52.647 9.19689C51.9529 9.53138 51.3404 10.1586 51.0546 10.8275C50.7688 11.4547 50.6463 12.2073 50.7279 13.0018C50.8913 14.7579 52.1162 16.0122 53.9128 16.2631C54.2394 16.3049 54.9336 16.3049 55.301 16.2631C55.5402 16.2631 55.7136 16.2183 55.9336 16.1615C56.0141 16.1407 56.1009 16.1183 56.1993 16.0958L56.4443 16.0122V15.4687V14.9251C56.4443 14.9251 56.3218 14.9251 56.1993 15.0087C55.9135 15.1342 55.4644 15.2178 55.0969 15.2596C54.6886 15.3014 54.1169 15.2596 53.7903 15.2178C53.5045 15.1342 53.2595 15.0505 53.0145 14.8833C52.7287 14.7161 52.6062 14.5906 52.402 14.3397C51.9937 13.838 51.7896 13.2526 51.7896 12.5418C51.7896 11.2457 52.5245 10.2422 53.7495 9.90769C53.864 9.87419 53.9326 9.85411 54.0026 9.84207C54.1074 9.82407 54.2152 9.82407 54.4844 9.82407C54.8519 9.82407 55.0152 9.82407 55.2194 9.86588C55.2929 9.8826 55.368 9.89932 55.4431 9.91605C55.7436 9.98295 56.0442 10.0498 56.2402 10.1167L56.4035 10.2004V9.65682V9.11326L56.1993 9.02964C55.9543 8.94602 55.5052 8.86239 55.2194 8.82058C55.1172 8.82058 54.991 8.81649 54.857 8.81214C54.563 8.8026 54.2317 8.79185 54.0353 8.82058L54.1169 8.77877ZM71.2664 9.69869C71.7564 9.19695 72.4505 8.86245 73.1447 8.77883C73.3488 8.6952 73.8388 8.73702 74.0838 8.77883C75.3496 9.07151 76.2887 10.1168 76.5337 11.5384C76.5337 11.6692 76.5377 11.8286 76.5419 11.9974V11.9975V11.9976V11.9977L76.5419 11.9989C76.5513 12.3695 76.5617 12.7854 76.5337 13.0436C76.452 13.7126 76.207 14.3398 75.8395 14.8415C75.6354 15.1342 75.3087 15.4687 75.0637 15.636C74.6963 15.9287 74.2471 16.1377 73.798 16.2213C73.308 16.3468 72.5322 16.305 71.9197 16.1377C71.7564 16.0959 71.3073 15.8868 71.1848 15.8032C71.1439 15.7614 71.1031 15.7614 71.1031 15.7614V17.3503V18.9391H70.0007V9.0297H71.1031V9.86594L71.2664 9.69869ZM74.6963 10.3259C74.4921 10.1168 74.0838 9.90775 73.798 9.86594L73.7571 9.82412C73.683 9.82412 73.5863 9.82029 73.4808 9.81611C73.2379 9.80647 72.948 9.79497 72.7772 9.82412C72.5665 9.86009 72.4161 9.92699 72.1963 10.0248L72.1953 10.0253L72.192 10.0268L72.1905 10.0274C72.1565 10.0425 72.1209 10.0584 72.0831 10.075C71.7564 10.2004 71.5114 10.4095 71.2664 10.6604L71.1031 10.8276V14.7161H71.1848C71.3889 14.8834 71.7156 15.0506 72.0422 15.1342C72.4505 15.3015 72.6139 15.3015 73.063 15.3015C73.4305 15.3015 73.5122 15.3015 73.6755 15.2597C74.0838 15.1342 74.4104 14.967 74.6963 14.6743C75.0637 14.298 75.3087 13.8381 75.4312 13.1691C75.4721 12.8764 75.4721 12.082 75.4312 11.7893C75.3087 11.1621 75.0637 10.6604 74.6963 10.3259ZM86.1291 8.77877C86.1291 8.77877 85.7616 8.82058 85.6391 8.86239C83.8425 9.28051 82.7401 10.7857 82.8626 12.7509C82.9034 13.7544 83.23 14.507 83.8017 15.1342C84.2917 15.6359 84.8225 15.9286 85.5166 16.1377C85.9249 16.2631 86.2107 16.2631 86.7007 16.2631C87.3132 16.2631 87.7623 16.1377 88.2931 15.8868C89.0281 15.5105 89.5181 15.0505 89.8856 14.2979C90.0489 13.9634 90.1305 13.6289 90.2122 13.2526C90.253 12.9181 90.253 12.1655 90.2122 11.7892C90.0897 10.9948 89.7631 10.3258 89.2323 9.82407C88.6198 9.19689 87.844 8.86239 86.9049 8.77877H86.1291ZM87.109 9.78225C87.8032 9.90769 88.334 10.3258 88.7014 10.8694C89.0281 11.3711 89.1506 11.831 89.1506 12.5418C89.1506 13.0018 89.1506 13.169 89.0281 13.5453C88.6606 14.7161 87.6398 15.4269 86.4149 15.3432C85.1491 15.2596 84.21 14.4234 84.0058 13.1272C83.965 12.7927 83.965 12.2073 84.0058 11.9147C84.0467 11.6638 84.1692 11.3293 84.2508 11.1202C84.6183 10.4094 85.2716 9.90769 86.0474 9.78225C86.3332 9.74044 86.864 9.74044 87.109 9.78225ZM59.1801 10.5349C59.6701 9.44778 60.2826 9.02966 61.5484 8.82061L61.5892 8.86242H61.7117H61.7933V10.1168H61.5892C60.8134 10.1586 60.3234 10.3676 59.8743 10.8276C59.5476 11.1621 59.3843 11.4548 59.221 11.9983C59.0576 12.4582 59.0576 12.5419 59.0576 14.3816V16.0541H58.5268H57.996V9.07148H58.5268H59.0576V9.94952V10.8276L59.1801 10.5349ZM11.8565 8.98787H11.6115C10.9991 9.07149 10.4274 9.32236 9.97828 9.65686C9.7333 9.8241 9.36581 10.2422 9.20249 10.4931C8.9575 10.9112 8.79418 11.2875 8.67168 11.8311C8.63085 12.1238 8.63085 12.1656 8.63085 12.7091C8.63085 13.3363 8.63085 13.5035 8.75334 13.9217C9.12083 15.3851 10.2233 16.3468 11.8157 16.5558H13.1223C13.6531 16.514 14.3881 16.3049 14.9189 16.0959H15.0414V15.4687V14.9251L14.7556 15.0924C14.0206 15.4687 13.1631 15.636 12.3057 15.5941C11.9382 15.5941 11.734 15.5523 11.4074 15.4269C10.6316 15.1342 10.0599 14.5488 9.85579 13.6708C9.83946 13.5704 9.82313 13.4567 9.80679 13.343C9.78229 13.1724 9.7578 13.0018 9.7333 12.8764V12.7927H15.613V12.6255C15.613 12.3746 15.5722 11.9147 15.4905 11.622C15.123 10.1586 14.1431 9.15511 12.7956 8.94605H11.8974L11.8565 8.98787ZM12.6732 9.94954C13.1223 10.0332 13.5306 10.2004 13.8164 10.4931C14.1431 10.8276 14.3881 11.3293 14.4289 11.8311V11.9983H12.1015H9.7333C9.7333 11.9147 9.81496 11.5802 9.89662 11.413C10.0599 11.0366 10.3458 10.6603 10.6724 10.4513C11.2032 10.075 11.979 9.90773 12.6323 9.99135L12.6732 9.94954ZM62.1138 9.15501C62.0913 9.10032 62.0794 9.07139 62.0794 9.07139V9.15501H62.1138ZM63.5085 12.5418C62.8374 10.9142 62.2579 9.50556 62.1138 9.15501H62.651H63.2226L64.3251 11.8728C64.9376 13.378 65.4684 14.6324 65.4684 14.6324C65.4739 14.638 65.4772 14.6452 65.4818 14.6462C65.511 14.6522 65.5933 14.4036 66.6525 11.8728C66.7903 11.5342 66.928 11.1908 67.0549 10.8747C67.3038 10.2543 67.5104 9.73934 67.5916 9.57313L67.7958 9.1132H68.3266H68.8574C68.8313 9.1132 68.4564 10.0147 67.8917 11.373C67.571 12.1442 67.189 13.0627 66.775 14.047L64.7334 18.939H64.2026H63.6718C63.6867 18.9084 63.8275 18.5752 64.006 18.1528C64.3152 17.4213 64.7374 16.4221 64.8151 16.263L64.9376 15.9703L63.5085 12.5418Z" fill="black"/>
</svg>
