<svg width="133" height="25" viewBox="0 0 133 25" fill="none" xmlns="http://www.w3.org/2000/svg">
<path d="M15.4756 18.8061L12.5414 20.2476V9.42429L15.4756 7.98271V18.8061ZM19.4589 16.8496L16.5247 18.2912V7.46785L19.4589 6.02627V16.8496ZM20.5081 16.3348V5.51142L23.4423 4.06982V14.8932L20.5081 16.3348Z" fill="#161616"/>
<path d="M11.5153 17.3301V20.2419L0.620117 14.8932V11.9814L11.5153 17.3301ZM11.5153 13.3715V16.2833L0.620117 10.9345V8.02275L11.5153 13.3715ZM11.5153 9.41857V12.3304L0.620117 6.9816V4.06982L11.5153 9.41857Z" fill="#FF9500"/>
<path d="M30.3722 0.639404V17.3545H38.9248C42.9364 17.3545 45.4994 15.5437 45.4994 12.6743C45.4994 10.5571 44.19 8.88555 42.1285 8.46767C43.8557 7.96622 44.9701 6.54543 44.9701 4.87392C44.9701 2.31094 42.4628 0.66729 38.5626 0.66729H30.3722V0.639404ZM35.3031 4.37245H38.3119C39.2869 4.37245 39.8998 4.90176 39.8998 5.76538C39.8998 6.65685 39.2869 7.21404 38.3119 7.21404H35.3031V4.37245ZM35.3031 10.5849H38.3119C39.5655 10.5849 40.3734 11.1421 40.3734 12.0614C40.3734 13.0364 39.5934 13.6494 38.3119 13.6494H35.3031V10.5849Z" fill="#FF9500"/>
<path d="M53.4389 0.639404H48.4801V17.3545H53.4389V0.639404Z" fill="#FF9500"/>
<path d="M69.2917 4.59533V0.639404H56.449V4.59533H60.377V17.3545H65.3637V4.59533H69.2917Z" fill="#FF9500"/>
<path d="M80.0297 0.5C74.848 0.5 71.0314 4.09376 71.0314 8.969C71.0314 13.9 74.7645 17.5773 79.8626 17.5773C82.3977 17.5773 85.1278 16.3237 86.9386 14.3457L84.0692 11.2813C82.927 12.4513 81.3669 13.2035 80.0854 13.2035C77.8289 13.2035 76.1017 11.337 76.1017 8.88544C76.1017 6.43389 77.8289 4.59522 80.0854 4.59522C81.4784 4.59522 83.0106 5.48669 84.0692 6.8239L86.9386 3.45303C85.2393 1.64223 82.537 0.5 80.0297 0.5Z" fill="#FF9500"/>
<path d="M97.2741 0.5C92.0367 0.5 88.1644 4.06589 88.1644 8.99685C88.1644 13.9278 92.0367 17.5773 97.2741 17.5773C102.512 17.5773 106.384 13.8999 106.384 8.99685C106.384 4.09375 102.512 0.5 97.2741 0.5ZM97.3577 4.65093C99.5585 4.65093 101.314 6.48961 101.314 9.02473C101.314 11.5599 99.5585 13.4264 97.3577 13.4264C95.1569 13.4264 93.2625 11.532 93.2625 9.02473C93.2625 6.51747 95.129 4.65093 97.3577 4.65093Z" fill="#FF9500"/>
<path d="M114.157 0.639404H109.198V17.3545H114.157V0.639404Z" fill="#FF9500"/>
<path d="M133 17.3545V0.639404H128.459V9.97201L121.383 0.639404H117.148V17.3545H121.689V8.0498L128.766 17.3545H133Z" fill="#FF9500"/>
<path d="M35.1007 24.452V20.29H33.6384L32.7225 22.4594L31.8065 20.29H30.3442V24.452H31.5494V22.1702L32.2564 24.0503H33.1563L33.8634 22.1702V24.452H35.1007Z" fill="#161616"/>
<path d="M38.7645 23.8733L38.9734 24.4679H40.4358L38.7485 20.3059H37.3344L35.5828 24.4679H36.9969L37.2058 23.8733H38.7645ZM38.4271 22.877H37.5593L37.9932 21.6557L38.4271 22.877Z" fill="#161616"/>
<path d="M43.4891 22.2665V23.2306C43.2802 23.311 43.0873 23.3752 42.9427 23.3752C42.3963 23.3752 42.0107 22.9574 42.0107 22.3789C42.0107 21.8165 42.3963 21.3987 42.9427 21.3987C43.2802 21.3987 43.698 21.5755 43.9711 21.8326L44.7425 20.8845C44.2925 20.4988 43.5855 20.2417 42.9427 20.2417C41.5768 20.2417 40.5966 21.1416 40.5966 22.3629C40.5966 23.6002 41.5447 24.5001 42.8463 24.5001C43.4409 24.5001 44.2122 24.2751 44.6621 23.9698V22.2504H43.4891V22.2665Z" fill="#161616"/>
<path d="M48.2456 23.8733L48.4545 24.4679H49.9168L48.2295 20.3059H46.8154L45.0638 24.4679H46.478L46.6869 23.8733H48.2456ZM47.9081 22.877H47.0404L47.4743 21.6557L47.9081 22.877Z" fill="#161616"/>
<path d="M53.9984 21.1578V20.29H50.2864V21.3506H52.1505L50.2061 23.6003V24.4681H54.0306V23.4075H52.054L53.9984 21.1578Z" fill="#161616"/>
<path d="M56.0714 20.29H54.6894V24.452H56.0714V20.29Z" fill="#161616"/>
<path d="M60.9404 24.452V20.29H59.703V22.4273L58.0639 20.29H56.9069V24.452H58.1603V22.3309L59.7994 24.452H60.9404Z" fill="#161616"/>
<path d="M65.2951 21.3346V20.29H61.7759V24.452H65.3594V23.4075H63.1579V22.8933H65.1023V21.8488H63.1579V21.3346H65.2951Z" fill="#161616"/>
</svg>
