<svg width="708" height="628" viewBox="0 0 708 628" fill="none" xmlns="http://www.w3.org/2000/svg">
<path d="M214.754 128.863C210.261 116.689 198.257 107.973 184.131 107.973C179.615 107.973 175.303 108.862 171.389 110.475C168.757 99.882 158.908 92 147.154 92C135.308 92 125.392 100.003 122.862 110.717C120.785 110.179 118.607 109.883 116.349 109.883C104.413 109.883 94.4394 118.006 92 128.852H214.754V128.863Z" fill="#F4F7F8"/>
<path d="M560.538 63.6705C559.092 45.1997 544.475 30.6952 526.631 30.6952C524.164 30.6952 521.753 30.9826 519.434 31.5191C518.024 13.8722 504.02 0 486.955 0C473.025 0 461.135 9.23538 456.479 22.2262C453.233 20.7317 449.634 19.8886 445.869 19.8886C435.296 19.8886 426.17 26.4224 421.904 35.8877C419.14 35.1596 416.246 34.7572 413.278 34.7572C396.547 34.7572 382.543 47.1158 379 63.6705H560.538Z" fill="#F4F7F8"/>
<path d="M686.039 602.151C686.039 604.604 685.044 606.818 683.435 608.428C681.826 610.037 679.609 611.032 677.158 611.032H443.088C441.347 611.032 439.932 612.448 439.932 614.188C439.932 615.929 441.347 617.333 443.088 617.333H466.676C469.561 617.333 471.895 619.677 471.895 622.553V622.564C471.895 625.449 469.561 627.784 466.676 627.784H403.334C400.449 627.784 398.114 625.449 398.114 622.564V622.553C398.114 619.679 400.449 617.333 403.334 617.333H413.838C415.578 617.333 416.994 615.929 416.994 614.188C416.994 612.448 415.578 611.032 413.838 611.032H342.758C341.017 611.032 339.613 612.448 339.613 614.188C339.613 615.929 341.017 617.333 342.758 617.333H367.742C370.626 617.333 372.961 619.677 372.961 622.553V622.564C372.961 625.449 370.626 627.784 367.742 627.784H230.605C227.731 627.784 225.385 625.449 225.385 622.564V622.553C225.385 619.679 227.729 617.333 230.605 617.333H248.986C250.727 617.333 252.142 615.929 252.142 614.188C252.142 612.448 250.727 611.032 248.986 611.032H8.99996C4.0941 611.032 0.118652 607.056 0.118652 602.151C0.118652 599.698 1.11363 597.483 2.72295 595.874C4.33227 594.264 6.54926 593.269 8.99996 593.269L677.158 593.269C682.064 593.269 686.039 597.245 686.039 602.151Z" fill="#F8EFE7" fill-opacity="0.56"/>
<path d="M652.241 574.593C651.588 577.419 651.738 580.239 652.543 582.818C652.794 583.651 653.123 584.458 653.516 585.233C654.382 586.956 655.559 588.508 656.999 589.813C657.226 590.023 657.46 590.224 657.702 590.42C658.449 591.025 659.252 591.561 660.112 592.017C661.048 592.532 662.052 592.95 663.11 593.257C663.413 593.351 663.726 593.433 664.04 593.506C672.521 595.471 680.989 590.188 682.953 581.707C683.656 578.674 683.436 575.647 682.463 572.917C682.086 571.829 681.584 570.794 680.978 569.822C680.56 569.151 680.096 568.511 679.583 567.921C679.306 567.588 679.013 567.273 678.708 566.972C677.467 565.736 676.012 564.697 674.383 563.925C673.589 563.545 672.748 563.227 671.871 562.983C671.636 562.912 671.396 562.85 671.156 562.796C662.673 560.83 654.206 566.112 652.241 574.593Z" fill="#F0E6DD"/>
<g opacity="0.53">
<path d="M655.552 585.036C651.749 578.385 654.057 569.911 660.708 566.108C667.359 562.305 675.833 564.613 679.636 571.264C683.439 577.915 681.131 586.389 674.48 590.192C667.829 593.995 659.355 591.687 655.552 585.036Z" fill="#D1AF8F"/>
</g>
<path d="M658.308 587.44C653.177 582.309 653.177 573.99 658.308 568.86C663.439 563.729 671.757 563.729 676.888 568.86C682.019 573.99 682.019 582.309 676.888 587.44C671.757 592.57 663.439 592.57 658.308 587.44Z" fill="#EAD2BA"/>
<g opacity="0.65">
<path d="M678.171 572.483C674.959 571.837 671.611 572.657 669.054 574.745C669.054 574.745 669.054 574.745 669.054 574.745L659.46 582.584C662.711 583.261 666.11 582.431 668.69 580.303C668.69 580.303 668.69 580.303 668.69 580.303L678.171 572.483Z" fill="white" stroke="#EAD2BA" stroke-width="0.7"/>
<path d="M663.237 568.481L667.538 579.993C667.538 579.993 667.538 579.993 667.538 579.993C668.709 583.126 671.237 585.544 674.391 586.583L670.001 574.999C668.831 571.913 666.342 569.528 663.237 568.481Z" fill="white" stroke="#EAD2BA" stroke-width="0.7"/>
<path d="M663.24 568.482L666.288 576.64C667.085 577.019 667.925 577.331 668.808 577.568C669.69 577.804 670.574 577.954 671.454 578.024L678.173 572.482C676.789 572.205 675.38 572.203 674.019 572.453C674.018 572.453 674.018 572.453 674.017 572.454L673.954 572.109C673.952 572.11 673.95 572.11 673.948 572.11C673.946 572.11 673.944 572.111 673.942 572.111C673.341 572.223 672.748 572.382 672.171 572.589M663.24 568.482L673.998 572.457M663.24 568.482C664.565 568.93 665.777 569.625 666.826 570.513M663.24 568.482L666.826 570.513M672.171 572.589L672.301 572.914C672.301 572.914 672.301 572.914 672.301 572.914L672.298 572.916L672.296 572.916M672.171 572.589L672.289 572.919C672.292 572.918 672.294 572.917 672.296 572.916M672.171 572.589C672.17 572.59 672.168 572.591 672.167 572.591C672.16 572.594 672.153 572.597 672.146 572.599M672.296 572.916C672.85 572.717 673.42 572.564 673.998 572.457M672.296 572.916L672.286 572.92C672.28 572.923 672.27 572.926 672.258 572.93M673.998 572.457L673.989 572.458C673.988 572.458 673.99 572.458 673.992 572.457L674 572.456C674.001 572.456 674.003 572.456 674.006 572.455M673.998 572.457C674.001 572.456 674.003 572.456 674.006 572.455M674.006 572.455C674.008 572.455 674.01 572.454 674.012 572.454L674.012 572.454L674.006 572.455ZM672.258 572.93C672.26 572.93 672.263 572.929 672.265 572.928L672.146 572.599M672.258 572.93C671.691 573.137 671.14 573.386 670.614 573.684L670.614 573.684L670.606 573.688C670.592 573.695 670.59 573.697 670.585 573.7C670.579 573.704 670.57 573.71 670.535 573.73L670.534 573.731C670.361 573.83 670.189 573.934 670.022 574.043L669.696 574.255L669.519 573.909C669.432 573.739 669.341 573.572 669.246 573.407M672.258 572.93C672.253 572.932 672.248 572.934 672.242 572.935L672.146 572.599M672.146 572.599C671.559 572.812 670.989 573.07 670.441 573.379C670.424 573.388 670.408 573.398 670.392 573.408C670.382 573.415 670.371 573.421 670.36 573.427C670.283 573.471 670.206 573.517 670.128 573.563C670.133 573.572 670.138 573.581 670.142 573.59L669.831 573.75L669.64 573.456C669.648 573.451 669.657 573.445 669.666 573.44C669.627 573.369 669.587 573.299 669.547 573.229C669.535 573.21 669.525 573.191 669.515 573.172C669.504 573.153 669.494 573.134 669.483 573.116C669.334 572.865 669.175 572.621 669.009 572.383M669.246 573.407C669.231 573.382 669.218 573.358 669.208 573.342L669.207 573.339C669.196 573.319 669.19 573.308 669.184 573.299L669.184 573.299L669.182 573.294C669.038 573.053 668.885 572.817 668.724 572.587M669.246 573.407C669.245 573.406 669.244 573.405 669.244 573.404L669.547 573.229L669.248 573.411C669.247 573.41 669.246 573.409 669.246 573.407ZM669.009 572.383L668.725 572.589C668.725 572.588 668.724 572.587 668.724 572.587M669.009 572.383L668.722 572.584C668.723 572.585 668.723 572.586 668.724 572.587M669.009 572.383C668.996 572.366 668.983 572.349 668.97 572.332C668.958 572.314 668.945 572.297 668.932 572.28C668.778 572.067 668.617 571.858 668.449 571.655M668.724 572.587C668.713 572.572 668.702 572.557 668.69 572.541L668.689 572.54C668.677 572.523 668.663 572.505 668.649 572.486L668.649 572.485C668.5 572.279 668.345 572.078 668.183 571.884M668.183 571.884C668.185 571.886 668.187 571.887 668.189 571.889L668.449 571.655M668.183 571.884C668.166 571.864 668.151 571.846 668.141 571.832C668.138 571.83 668.136 571.827 668.134 571.825C668.124 571.812 668.118 571.805 668.112 571.798L668.112 571.798L668.11 571.796C667.731 571.347 667.315 570.932 666.868 570.549L666.868 570.549L666.863 570.545L666.848 570.532L666.847 570.531C666.842 570.526 666.834 570.52 666.826 570.513M668.183 571.884C668.182 571.882 668.181 571.88 668.179 571.879L668.449 571.655M668.449 571.655C668.434 571.639 668.421 571.622 668.407 571.606C668.397 571.593 668.388 571.581 668.378 571.57C667.986 571.106 667.557 570.678 667.096 570.283C667.089 570.277 667.082 570.271 667.075 570.265C667.068 570.259 667.061 570.254 667.055 570.248M666.826 570.513C666.827 570.513 666.828 570.514 666.829 570.515L667.055 570.248M666.826 570.513C666.825 570.512 666.824 570.511 666.823 570.51L667.055 570.248M666.826 570.513L667.055 570.248" fill="white" stroke="#EAD2BA" stroke-width="0.7"/>
</g>
<path d="M512 593.64H643.446C643.446 593.64 649.377 562.871 648.789 560.939C648.202 559.006 636.909 539.528 636.909 539.528L633.346 517.049L613.167 484.349L610.495 446.257L596.549 431L579.914 442.901L569.831 493.758L568.336 493.046L550.239 484.349L528.741 533.424H519.071L516.845 552.394L512 593.64Z" fill="#F9E9DE" fill-opacity="0.16"/>
<g opacity="0.91">
<path d="M516.773 593.552H661.488C661.488 593.552 668.017 583.893 667.371 582.712C666.724 581.53 654.292 569.622 654.292 569.622L650.37 555.879L628.152 535.885L625.212 512.594L609.859 503.266L591.545 510.543L580.445 541.638L578.797 541.203L558.874 535.885L535.205 565.892H524.557L522.106 577.49L516.773 593.552Z" fill="#EEDECE"/>
<path d="M607.896 535.138L590.072 556.127L607.073 573.509L634.036 552.988L648.096 558.74L642.703 574.008L631.428 580.757L654.292 591.391L667.371 582.716C666.725 581.534 654.292 569.626 654.292 569.626L650.37 555.882L628.152 535.889L625.212 512.598L609.859 503.27L607.896 535.138Z" fill="#F9E9DE"/>
<path d="M522.106 577.489L538.93 590.082L549.108 574.285L543.501 565.984L549.108 554.074L567.149 562.626L580.443 543.689L578.797 541.202L558.874 535.884L535.205 565.89H524.557L522.106 577.489Z" fill="#FFF0E5"/>
</g>
<g opacity="0.27">
<path d="M693.267 552.342C693.34 553.548 693.734 554.657 694.361 555.593C694.559 555.897 694.786 556.179 695.035 556.443C695.584 557.029 696.239 557.511 696.968 557.863C697.084 557.919 697.2 557.971 697.32 558.022C697.69 558.175 698.074 558.293 698.471 558.376C698.906 558.471 699.357 558.518 699.816 558.516C699.949 558.518 700.084 558.514 700.216 558.505C703.836 558.288 706.596 555.176 706.379 551.554C706.3 550.26 705.855 549.075 705.143 548.099C704.864 547.71 704.54 547.354 704.184 547.037C703.939 546.818 703.677 546.618 703.402 546.442C703.252 546.341 703.098 546.251 702.939 546.167C702.297 545.818 701.593 545.577 700.851 545.461C700.49 545.403 700.115 545.375 699.737 545.382C699.634 545.382 699.531 545.386 699.43 545.391C695.808 545.611 693.048 548.721 693.267 552.342Z" fill="#F1D9C0"/>
<g opacity="0.53">
<path d="M695.738 556.035C693.48 553.778 693.48 550.117 695.738 547.86C697.995 545.603 701.655 545.603 703.913 547.86C706.17 550.117 706.17 553.778 703.913 556.035C701.655 558.292 697.995 558.292 695.738 556.035Z" fill="#AF7538"/>
<path d="M699.669 550.523C701.008 549.518 702.748 549.219 704.345 549.718L699.591 553.323C698.251 554.339 696.501 554.645 694.896 554.144L694.863 554.133L699.669 550.523Z" fill="white"/>
<path fill-rule="evenodd" clip-rule="evenodd" d="M704.345 549.718L699.591 553.323C698.349 554.265 696.755 554.596 695.25 554.241C695.131 554.213 695.013 554.18 694.896 554.144L694.863 554.133L699.669 550.523C700.9 549.599 702.47 549.272 703.957 549.613C704.087 549.642 704.217 549.677 704.345 549.718ZM703.618 549.869C702.304 549.644 700.942 549.966 699.86 550.778L695.589 553.986C696.922 554.224 698.305 553.898 699.399 553.069L703.618 549.869Z" fill="#B27944"/>
<path d="M700.348 550.735L702.247 556.438L702.214 556.428C700.608 555.926 699.343 554.679 698.819 553.081L696.962 547.411C698.559 547.911 699.819 549.147 700.348 550.735Z" fill="white"/>
<path fill-rule="evenodd" clip-rule="evenodd" d="M702.247 556.438L702.214 556.428C702.096 556.391 701.981 556.351 701.867 556.306C700.427 555.742 699.305 554.563 698.819 553.081L696.962 547.411C697.09 547.451 697.217 547.496 697.341 547.546C698.757 548.112 699.862 549.275 700.348 550.735L702.247 556.438ZM701.733 555.904C700.502 555.341 699.549 554.286 699.122 552.982L697.473 547.95C698.682 548.513 699.619 549.552 700.046 550.836C700.046 550.836 700.046 550.836 700.046 550.836L701.733 555.904Z" fill="#B27944"/>
<path d="M698.933 548.552C698.939 548.557 698.945 548.563 698.951 548.568C699.155 548.758 699.344 548.963 699.515 549.183C699.525 549.196 699.535 549.21 699.546 549.223C699.619 549.319 699.69 549.418 699.756 549.519C699.767 549.535 699.778 549.551 699.789 549.568C699.861 549.68 699.929 549.795 699.993 549.913C700.003 549.93 700.01 549.948 700.02 549.966C700.062 550.046 700.102 550.127 700.141 550.21C700.222 550.161 700.306 550.115 700.39 550.072C700.402 550.065 700.414 550.058 700.428 550.051C700.685 549.92 700.951 549.812 701.224 549.725C701.228 549.724 701.232 549.723 701.236 549.722C701.504 549.637 701.779 549.575 702.057 549.535C702.059 549.535 702.061 549.535 702.063 549.535C702.818 549.427 703.597 549.483 704.346 549.717L700.884 552.342L700.894 552.373C700.447 552.326 699.998 552.235 699.552 552.095C699.106 551.956 698.685 551.776 698.29 551.56L698.316 551.54L696.963 547.411C697.706 547.644 698.375 548.038 698.933 548.552Z" fill="white"/>
<path fill-rule="evenodd" clip-rule="evenodd" d="M696.963 547.411C697.091 547.452 697.218 547.497 697.342 547.547C697.934 547.784 698.472 548.127 698.933 548.552C698.936 548.554 698.939 548.557 698.942 548.56C698.945 548.563 698.948 548.566 698.951 548.568C699.155 548.758 699.344 548.963 699.515 549.183C699.519 549.188 699.524 549.194 699.528 549.2C699.534 549.208 699.54 549.216 699.546 549.223C699.619 549.319 699.69 549.418 699.756 549.519C699.762 549.527 699.767 549.535 699.773 549.543C699.778 549.551 699.784 549.56 699.789 549.568C699.861 549.68 699.929 549.795 699.993 549.913C699.995 549.916 699.997 549.92 699.999 549.924C700.002 549.929 700.004 549.934 700.007 549.939C700.011 549.948 700.015 549.957 700.02 549.966C700.062 550.046 700.102 550.127 700.141 550.21C700.222 550.161 700.306 550.115 700.39 550.072C700.395 550.069 700.4 550.067 700.405 550.064C700.41 550.061 700.415 550.058 700.42 550.055C700.422 550.054 700.425 550.053 700.428 550.051C700.685 549.92 700.951 549.812 701.224 549.725C701.227 549.725 701.231 549.723 701.234 549.722C701.234 549.722 701.235 549.722 701.236 549.722C701.504 549.637 701.779 549.575 702.057 549.535C702.058 549.535 702.059 549.535 702.06 549.535C702.061 549.535 702.062 549.535 702.063 549.535C702.688 549.446 703.33 549.469 703.958 549.612C704.088 549.642 704.218 549.677 704.346 549.717L700.884 552.342L700.894 552.373C700.869 552.37 700.844 552.367 700.819 552.364C700.727 552.354 700.635 552.341 700.543 552.327C700.212 552.275 699.881 552.198 699.552 552.095C699.222 551.992 698.907 551.867 698.605 551.721C698.521 551.681 698.439 551.639 698.357 551.596C698.335 551.584 698.312 551.572 698.29 551.56L698.316 551.54L696.963 547.411ZM698.591 551.359L697.474 547.951C697.931 548.165 698.348 548.447 698.715 548.784C698.719 548.788 698.723 548.791 698.725 548.793L698.726 548.794L698.729 548.797C698.73 548.797 698.73 548.798 698.73 548.798L698.734 548.802C698.927 548.98 699.104 549.172 699.264 549.378L699.265 549.38C699.266 549.381 699.267 549.383 699.272 549.389L699.275 549.393C699.279 549.399 699.287 549.409 699.296 549.42C699.364 549.509 699.429 549.601 699.491 549.694L699.491 549.695C699.498 549.705 699.504 549.715 699.51 549.723C699.515 549.73 699.519 549.736 699.523 549.742C699.59 549.847 699.654 549.954 699.713 550.064L699.715 550.068C699.715 550.068 699.715 550.068 699.716 550.07L699.721 550.08L699.722 550.081C699.725 550.088 699.732 550.102 699.74 550.116C699.779 550.191 699.816 550.267 699.852 550.343L700 550.664L700.303 550.483C700.379 550.438 700.457 550.395 700.536 550.355L700.537 550.354C700.544 550.35 700.549 550.347 700.554 550.345L700.559 550.342L700.564 550.339C700.565 550.338 700.567 550.338 700.567 550.338L700.569 550.336L700.573 550.335C700.811 550.212 701.059 550.112 701.315 550.031C701.323 550.028 701.33 550.026 701.334 550.024L701.337 550.023C701.585 549.946 701.839 549.889 702.096 549.851L702.1 549.851C702.103 549.851 702.105 549.85 702.108 549.85C702.607 549.779 703.116 549.784 703.619 549.869L700.761 552.036C700.389 551.988 700.017 551.907 699.647 551.791C699.277 551.676 698.925 551.531 698.591 551.359Z" fill="#B27944"/>
</g>
</g>
<path d="M539.719 559.559C540.311 562.108 540.176 564.653 539.446 566.981C539.219 567.733 538.92 568.461 538.565 569.162C537.781 570.716 536.715 572.119 535.413 573.297C535.208 573.487 534.996 573.667 534.778 573.845C534.101 574.391 533.375 574.873 532.596 575.287C531.748 575.751 530.839 576.128 529.882 576.405C529.606 576.488 529.324 576.564 529.039 576.63C521.363 578.403 513.697 573.634 511.919 565.981C511.283 563.243 511.482 560.511 512.364 558.046C512.706 557.065 513.159 556.129 513.707 555.252C514.085 554.647 514.505 554.068 514.97 553.535C515.22 553.234 515.485 552.95 515.762 552.678C516.886 551.563 518.203 550.625 519.678 549.928C520.397 549.585 521.159 549.297 521.951 549.079C522.165 549.015 522.382 548.959 522.599 548.909C530.274 547.136 537.94 551.905 539.719 559.559Z" fill="#FCD554"/>
<path d="M525.818 575.289C532.753 575.289 538.374 569.684 538.374 562.769C538.374 555.854 532.753 550.249 525.818 550.249C518.884 550.249 513.262 555.854 513.262 562.769C513.262 569.684 518.884 575.289 525.818 575.289Z" fill="#FF8243"/>
<path d="M534.226 571.154C538.87 566.523 538.87 559.015 534.226 554.385C529.582 549.754 522.053 549.754 517.409 554.385C512.765 559.015 512.765 566.523 517.409 571.154C522.053 575.785 529.582 575.785 534.226 571.154Z" fill="#FFA942"/>
<path d="M530.024 562.36C529.659 562.065 529.22 561.892 528.706 561.837C528.6 561.825 528.56 561.691 528.643 561.622C529 561.321 529.255 560.984 529.411 560.608C529.6 560.148 529.638 559.673 529.524 559.182C529.299 558.22 528.793 557.578 528.006 557.254C527.391 557.001 526.622 556.942 525.7 557.077C525.639 557.086 525.58 557.046 525.566 556.985L525.205 555.442C525.19 555.377 525.125 555.336 525.061 555.352L524.07 555.59C524.006 555.606 523.966 555.671 523.982 555.737L524.335 557.244C524.35 557.309 524.31 557.375 524.246 557.39L523.49 557.573C523.425 557.588 523.36 557.547 523.345 557.483L522.992 555.976C522.977 555.91 522.913 555.87 522.848 555.886L521.858 556.124C521.793 556.139 521.753 556.204 521.769 556.27L522.122 557.777C522.137 557.843 522.097 557.908 522.034 557.924L519.092 558.631C519.027 558.646 518.988 558.712 519.004 558.778L519.277 559.947C519.292 560.013 519.357 560.053 519.421 560.037L521.2 559.608C521.265 559.593 521.33 559.634 521.344 559.698L523.139 567.361C523.154 567.426 523.115 567.492 523.051 567.507L521.271 567.936C521.206 567.951 521.166 568.016 521.182 568.082L521.456 569.251C521.471 569.317 521.535 569.357 521.6 569.341L524.542 568.633C524.606 568.618 524.671 568.658 524.686 568.723L525.045 570.256C525.06 570.321 525.124 570.361 525.189 570.345L526.18 570.107C526.244 570.092 526.284 570.027 526.268 569.961L525.909 568.429C525.894 568.363 525.934 568.298 525.998 568.282L526.754 568.1C526.819 568.085 526.884 568.125 526.899 568.19L527.258 569.722C527.272 569.788 527.337 569.828 527.402 569.812L528.392 569.574C528.457 569.559 528.497 569.493 528.481 569.428L528.118 567.876C528.103 567.814 528.14 567.751 528.199 567.732C529.196 567.419 529.933 566.964 530.409 566.365C530.969 565.66 531.131 564.805 530.895 563.8C530.753 563.194 530.463 562.713 530.024 562.36ZM527.576 559.76C527.688 560.241 527.602 560.654 527.316 561C527.031 561.346 526.58 561.593 525.965 561.741L524.14 562.18C524.075 562.196 524.011 562.155 523.996 562.091L523.346 559.318C523.331 559.252 523.371 559.187 523.435 559.172L525.244 558.736C525.922 558.573 526.449 558.57 526.825 558.728C527.201 558.886 527.451 559.23 527.576 559.76ZM528.681 565.609C528.398 565.984 527.947 566.245 527.326 566.394L525.243 566.895C525.178 566.91 525.113 566.87 525.099 566.805L524.37 563.695C524.355 563.629 524.394 563.564 524.458 563.549L526.706 563.007C527.922 562.74 528.661 563.162 528.921 564.277C529.044 564.792 528.963 565.235 528.681 565.609Z" fill="#FFEBD3"/>
<g opacity="0.75">
<path d="M537.148 566.371C535.914 570.218 532.739 573.341 528.501 574.32C522.102 575.798 515.717 571.826 514.235 565.445C513.201 560.994 514.822 556.552 518.072 553.773C517.442 555.739 517.318 557.895 517.819 560.05C519.302 566.431 525.686 570.403 532.085 568.925C534.026 568.478 535.738 567.582 537.148 566.371Z" fill="#F5702D" fill-opacity="0.49"/>
</g>
<path d="M540.649 588.682V592.787C540.649 593.254 540.282 593.634 539.83 593.634H505.852C505.4 593.634 505.032 593.254 505.032 592.787V588.682C505.032 588.214 505.4 587.834 505.852 587.834H539.83C540.282 587.834 540.649 588.214 540.649 588.682Z" fill="#FFC84A"/>
<g opacity="0.8">
<path d="M540.649 588.735H505.031V592.544H540.649V588.735Z" fill="#FF884D"/>
</g>
<g opacity="0.8">
<path d="M508.352 588.735H507.325V592.542H508.352V588.735Z" fill="#FF5C50"/>
<path d="M511.67 588.735H510.643V592.542H511.67V588.735Z" fill="#FF5C50"/>
<path d="M514.988 588.735H513.961V592.542H514.988V588.735Z" fill="#FF5C50"/>
<path d="M518.306 588.735H517.279V592.542H518.306V588.735Z" fill="#FF5C50"/>
<path d="M521.623 588.735H520.597V592.542H521.623V588.735Z" fill="#FF5C50"/>
<path d="M524.941 588.735H523.914V592.542H524.941V588.735Z" fill="#FF5C50"/>
<path d="M528.258 588.735H527.231V592.542H528.258V588.735Z" fill="#FF5C50"/>
<path d="M531.576 588.735H530.549V592.542H531.576V588.735Z" fill="#FF5C50"/>
<path d="M534.893 588.735H533.867V592.542H534.893V588.735Z" fill="#FF5C50"/>
<path d="M538.211 588.735H537.184V592.542H538.211V588.735Z" fill="#FF5C50"/>
</g>
<path d="M545.553 582.881V586.986C545.553 587.454 545.186 587.833 544.734 587.833H510.756C510.304 587.833 509.937 587.454 509.937 586.986V582.881C509.937 582.413 510.304 582.034 510.756 582.034H544.734C545.186 582.034 545.553 582.413 545.553 582.881Z" fill="#FFE36C"/>
<path d="M545.553 582.933H509.935V586.742H545.553V582.933Z" fill="#FFC84A"/>
<g opacity="0.8">
<path d="M513.258 582.934H512.231V586.742H513.258V582.934Z" fill="#FF884D"/>
<path d="M516.576 582.934H515.549V586.742H516.576V582.934Z" fill="#FF884D"/>
<path d="M519.893 582.934H518.866V586.742H519.893V582.934Z" fill="#FF884D"/>
<path d="M523.21 582.934H522.183V586.742H523.21V582.934Z" fill="#FF884D"/>
<path d="M526.528 582.934H525.501V586.742H526.528V582.934Z" fill="#FF884D"/>
<path d="M529.846 582.934H528.819V586.742H529.846V582.934Z" fill="#FF884D"/>
<path d="M533.163 582.934H532.136V586.742H533.163V582.934Z" fill="#FF884D"/>
<path d="M536.481 582.934H535.454V586.742H536.481V582.934Z" fill="#FF884D"/>
<path d="M539.799 582.934H538.772V586.742H539.799V582.934Z" fill="#FF884D"/>
<path d="M543.117 582.934H542.09V586.742H543.117V582.934Z" fill="#FF884D"/>
</g>
<g opacity="0.54">
<path d="M527.855 582.933L526.005 586.742H522.821L524.822 582.933H527.855Z" fill="#FFF2BB"/>
<path d="M515.994 582.933L514.174 586.742H512.744L514.495 582.933H515.994Z" fill="#FFF2BB"/>
<path d="M536.87 582.933L534.49 586.742H529.13L531.662 582.933H536.87Z" fill="#FFF2BB"/>
</g>
<path d="M539.271 577.84V581.944C539.271 582.412 538.903 582.792 538.451 582.792H504.473C504.021 582.792 503.654 582.412 503.654 581.944V577.84C503.654 577.372 504.021 576.992 504.473 576.992H538.451C538.903 576.992 539.271 577.372 539.271 577.84Z" fill="#FFC84A"/>
<g opacity="0.8">
<path d="M539.27 577.893H503.652V581.701H539.27V577.893Z" fill="#FF884D"/>
</g>
<g opacity="0.8">
<path d="M506.974 577.893H505.947V581.7H506.974V577.893Z" fill="#FF5C50"/>
<path d="M510.292 577.893H509.265V581.7H510.292V577.893Z" fill="#FF5C50"/>
<path d="M513.609 577.893H512.583V581.7H513.609V577.893Z" fill="#FF5C50"/>
<path d="M516.927 577.893H515.9V581.7H516.927V577.893Z" fill="#FF5C50"/>
<path d="M520.245 577.893H519.218V581.7H520.245V577.893Z" fill="#FF5C50"/>
<path d="M523.563 577.893H522.536V581.7H523.563V577.893Z" fill="#FF5C50"/>
<path d="M526.879 577.893H525.853V581.7H526.879V577.893Z" fill="#FF5C50"/>
<path d="M530.197 577.893H529.17V581.7H530.197V577.893Z" fill="#FF5C50"/>
<path d="M533.515 577.893H532.488V581.7H533.515V577.893Z" fill="#FF5C50"/>
<path d="M536.833 577.893H535.806V581.7H536.833V577.893Z" fill="#FF5C50"/>
</g>
<path d="M519.658 576.561C520.251 579.11 520.115 581.656 519.385 583.984C519.158 584.735 518.859 585.463 518.504 586.164C517.721 587.719 516.654 589.121 515.352 590.299C515.147 590.489 514.935 590.669 514.717 590.847C514.04 591.393 513.314 591.876 512.535 592.289C511.688 592.753 510.778 593.13 509.821 593.407C509.546 593.49 509.263 593.567 508.978 593.632C501.303 595.405 493.637 590.637 491.858 582.983C491.222 580.245 491.421 577.513 492.303 575.049C492.645 574.067 493.098 573.132 493.646 572.254C494.025 571.65 494.444 571.071 494.909 570.538C495.159 570.237 495.425 569.953 495.701 569.681C496.825 568.565 498.142 567.627 499.618 566.931C500.337 566.587 501.098 566.3 501.891 566.081C502.104 566.017 502.321 565.961 502.538 565.912C510.214 564.138 517.879 568.907 519.658 576.561Z" fill="#FCD554"/>
<path d="M514.635 588.624C519.538 583.735 519.538 575.807 514.635 570.918C509.732 566.029 501.782 566.029 496.878 570.918C491.975 575.807 491.975 583.735 496.878 588.624C501.782 593.513 509.732 593.513 514.635 588.624Z" fill="#FF8243"/>
<path d="M514.165 588.156C518.809 583.525 518.809 576.017 514.165 571.386C509.521 566.756 501.992 566.756 497.348 571.386C492.704 576.017 492.704 583.525 497.348 588.156C501.992 592.786 509.521 592.786 514.165 588.156Z" fill="#FFA942"/>
<path d="M509.716 580.974C509.44 580.595 509.06 580.314 508.579 580.128C508.479 580.089 508.475 579.95 508.573 579.904C508.996 579.706 509.33 579.446 509.577 579.123C509.88 578.728 510.039 578.279 510.056 577.775C510.087 576.788 509.765 576.036 509.089 575.52C508.56 575.116 507.832 574.861 506.907 574.752C506.845 574.745 506.799 574.691 506.801 574.628L506.852 573.045C506.854 572.978 506.802 572.922 506.736 572.921L505.717 572.894C505.651 572.892 505.596 572.945 505.594 573.013L505.545 574.56C505.542 574.627 505.487 574.68 505.422 574.678L504.643 574.659C504.577 574.657 504.525 574.601 504.527 574.535L504.576 572.987C504.579 572.92 504.527 572.865 504.46 572.863L503.442 572.837C503.376 572.835 503.32 572.888 503.319 572.955L503.27 574.503C503.267 574.57 503.212 574.623 503.146 574.621L500.122 574.543C500.055 574.541 500 574.594 499.998 574.662L499.96 575.862C499.957 575.929 500.009 575.985 500.076 575.986L501.905 576.033C501.972 576.035 502.024 576.09 502.021 576.157L501.772 584.023C501.769 584.09 501.714 584.143 501.648 584.141L499.818 584.094C499.752 584.092 499.696 584.145 499.695 584.213L499.656 585.413C499.654 585.48 499.706 585.536 499.772 585.537L502.797 585.615C502.863 585.617 502.915 585.673 502.913 585.739L502.863 587.312C502.861 587.379 502.913 587.435 502.979 587.436L503.997 587.463C504.064 587.465 504.119 587.412 504.121 587.344L504.171 585.771C504.173 585.704 504.229 585.651 504.294 585.653L505.072 585.672C505.139 585.675 505.191 585.73 505.188 585.796L505.138 587.37C505.136 587.437 505.188 587.493 505.254 587.494L506.273 587.52C506.339 587.522 506.395 587.469 506.396 587.402L506.447 585.809C506.449 585.745 506.501 585.694 506.563 585.691C507.607 585.647 508.436 585.397 509.051 584.942C509.775 584.406 510.153 583.622 510.185 582.59C510.205 581.968 510.049 581.429 509.716 580.974ZM508.024 577.829C508.008 578.322 507.818 578.699 507.453 578.96C507.087 579.22 506.588 579.342 505.955 579.326L504.079 579.278C504.013 579.276 503.961 579.22 503.963 579.154L504.053 576.308C504.056 576.24 504.111 576.187 504.177 576.189L506.037 576.237C506.734 576.255 507.244 576.388 507.566 576.638C507.888 576.888 508.041 577.285 508.024 577.829ZM507.577 583.765C507.208 584.054 506.704 584.189 506.066 584.173L503.924 584.117C503.858 584.115 503.806 584.06 503.808 583.993L503.909 580.8C503.911 580.733 503.967 580.68 504.032 580.682L506.343 580.741C507.587 580.797 508.192 581.397 508.155 582.54C508.14 583.07 507.947 583.477 507.577 583.765Z" fill="#FFEBD3"/>
<g opacity="0.75">
<path d="M517.088 583.373C515.854 587.22 512.679 590.343 508.441 591.322C502.042 592.8 495.657 588.828 494.175 582.447C493.141 577.996 494.763 573.554 498.013 570.775C497.382 572.741 497.259 574.897 497.759 577.052C499.242 583.433 505.627 587.405 512.026 585.927C513.965 585.479 515.677 584.584 517.088 583.373Z" fill="#FF8243" fill-opacity="0.45"/>
</g>
<path d="M454.26 368.053C451.789 370.832 450.61 370.633 450.61 370.633L444.579 367.468L443.844 367.085L430.954 360.317C430.954 360.317 430.954 360.317 430.951 360.314C430.951 360.314 430.951 360.314 430.949 360.312C430.904 360.113 428.671 350.63 432.011 345.859C436.024 343.682 445.101 340.278 454.939 346.771H454.941C456.329 348.834 456.02 350.902 454.744 352.67C454.744 352.67 454.744 352.67 454.749 352.667C454.877 352.693 458.838 353.473 458.854 357.301C458.871 361.193 456.726 365.282 454.26 368.053Z" fill="#5B3939"/>
<path d="M431.325 352.71C431.325 352.71 429.101 358.902 429.954 365.784C430.807 372.666 435.18 374.817 436.988 375.627C438.796 376.437 440.366 376.428 440.366 376.428L439.666 379.962C439.666 379.962 436.109 386.321 442.324 387.391C448.539 388.462 459.085 382.156 459.085 382.156C459.085 382.156 449.831 375.947 450.009 373.002C450.188 370.058 450.713 367.156 451.321 366.677C451.929 366.196 452.934 367.303 454.105 365.251C455.274 363.202 453.45 360.418 452.093 360.274C450.736 360.129 449.019 365.571 448.418 365.505C447.817 365.438 446.866 365.175 447.22 364.365C447.574 363.555 448.539 361.565 448.27 361.025C448.002 360.485 444.942 357.846 443.918 356.074C442.894 354.302 442.775 353.551 442.775 353.551C442.775 353.551 441.003 354.69 437.062 354.15C433.121 353.61 431.325 352.71 431.325 352.71Z" fill="#F48E76"/>
<path d="M440.645 377.319C440.645 377.319 442.148 377.541 444.085 375.893C446.021 374.246 448.325 369.856 448.325 369.856C448.325 369.856 448.031 373.374 445.653 376.833C443.274 380.292 439.842 380.893 439.842 380.893L440.645 377.319Z" fill="#C65252"/>
<path d="M488.035 563.062L492.604 578.544L484.037 583.13L477.468 566.216L488.035 563.062Z" fill="#F48E76"/>
<path d="M428.271 441.552C428.271 441.552 421.211 499.705 420.926 508.304C420.641 516.906 419.783 576.821 420.926 577.968C422.068 579.114 432.063 578.255 431.778 575.388C431.493 572.522 442.343 536.113 441.773 525.792C441.202 515.47 440.345 511.744 441.773 508.304C443.2 504.865 452.625 482.789 451.767 469.03C450.91 455.269 440.186 434.142 428.271 441.552Z" fill="#2F2159"/>
<path d="M429.493 448.102C429.493 448.102 447.199 513.466 448.339 517.193C449.48 520.919 477.468 570.802 479.181 571.088C479.532 571.148 480.186 571.157 481 571.098C481.193 571.084 481.392 571.067 481.597 571.043C484.794 570.7 489.672 569.352 489.46 565.929C489.175 561.343 486.605 551.594 480.608 536.113C474.612 520.632 466.33 508.018 466.045 507.444C465.76 506.871 472.042 469.03 470.044 459.855C468.046 450.68 463.762 445.52 463.762 445.52L449.185 446.617L433.717 447.78L429.493 448.102Z" fill="#3D237C"/>
<path d="M461.762 465.877C463.76 480.498 458.336 502.285 459.477 508.307C460.62 514.326 471.757 533.249 475.755 544.142C479.468 554.257 486.626 564.619 481.001 571.098C484.144 570.866 489.689 569.572 489.463 565.929C489.178 561.343 486.607 551.594 480.611 536.113C474.615 520.632 466.333 508.018 466.048 507.444C465.763 506.871 472.044 469.03 470.046 459.855C468.048 450.68 463.765 445.52 463.765 445.52L449.188 446.617C454.417 450.933 460.641 457.656 461.762 465.877Z" fill="#2F2159"/>
<g opacity="0.58">
<path d="M429.493 448.103C429.493 448.103 447.199 513.466 448.339 517.193C449.48 520.919 477.468 570.802 479.181 571.089C479.532 571.148 480.186 571.157 481.001 571.098C481.193 571.084 481.393 571.067 481.597 571.044C473.37 556.216 455.476 524.105 451.768 518.626C447.722 512.654 437.133 463.873 433.714 447.783L429.493 448.103Z" fill="#525FBA"/>
</g>
<path d="M470.227 593.866C470.336 594.389 470.621 594.74 471.186 594.884C472.329 595.171 487.177 588.005 490.606 586.569C494.031 585.136 497.745 583.99 496.887 581.696C496.887 581.696 496.69 581.118 496.355 580.249C495.25 577.357 492.646 571.264 490.888 572.811C488.603 574.817 487.462 576.25 484.319 577.11C481.179 577.97 479.751 577.683 478.323 580.55C476.895 583.416 476.61 585.709 474.325 587.716C472.039 589.722 470.612 590.009 470.326 591.729C470.184 592.603 470.113 593.328 470.227 593.866Z" fill="#3D237C"/>
<path d="M470.227 593.866C470.336 594.389 470.621 594.74 471.186 594.885C472.329 595.171 487.177 588.005 490.606 586.57C494.031 585.136 497.745 583.99 496.887 581.697C496.887 581.697 496.69 581.119 496.355 580.249C494.77 581.488 492.055 583.45 489.46 584.563C485.462 586.283 484.607 586.57 481.464 588.863C478.722 590.869 473.576 593.75 470.227 593.866Z" fill="#9EA8DB"/>
<path d="M476.553 584.658C476.149 584.741 475.976 584.118 476.382 584.035C477.482 583.812 478.563 583.971 479.549 584.513C479.913 584.712 479.587 585.269 479.226 585.07C478.397 584.615 477.48 584.471 476.553 584.658Z" fill="#9EA8DB"/>
<path d="M475.166 585.871C476.216 585.745 477.311 585.707 478.117 586.503C478.411 586.795 477.957 587.252 477.663 586.961C476.993 586.297 476.021 586.416 475.166 586.518C474.757 586.565 474.76 585.921 475.166 585.871Z" fill="#9EA8DB"/>
<path d="M478.475 582.469C478.459 582.493 478.445 582.516 478.428 582.542C478.426 582.639 478.38 582.732 478.281 582.779C478.266 582.805 478.25 582.831 478.235 582.857C478.112 583.082 477.853 583.045 477.72 582.895C476.779 583.054 475.316 583.184 474.936 582.362C474.598 581.633 475.128 580.623 475.891 580.46C476.841 580.259 477.644 580.986 478.373 581.59C479.038 580.896 479.934 580.408 480.908 580.436C481.899 580.465 482.497 581.41 482.196 582.398C481.911 583.336 480.462 583.286 479.682 583.092C479.231 582.981 478.846 582.741 478.475 582.469ZM476.881 581.294C475.938 582.047 475.874 582.381 476.682 582.301C477.083 582.327 477.48 582.296 477.877 582.218C477.908 582.17 477.939 582.125 477.972 582.08C477.715 581.87 477.193 581.306 476.881 581.294ZM481.248 581.573C481.096 581.036 480.768 580.905 480.267 581.18C479.989 581.249 479.732 581.358 479.495 581.507C479.262 581.642 479.06 581.803 478.882 581.981C478.91 582.002 478.941 582.024 478.97 582.042C479.625 582.471 482.217 582.985 481.248 581.573Z" fill="#9EA8DB"/>
<path d="M432.094 571.911L429.681 587.875L419.983 588.375L421.194 570.262L432.094 571.911Z" fill="#F48E76"/>
<path d="M402.94 592.205C402.816 592.726 402.925 593.165 403.377 593.537C404.289 594.283 420.764 594.126 424.473 594.29C428.181 594.453 432.028 594.998 432.223 592.556C432.223 592.556 432.289 591.947 432.353 591.018C432.577 587.929 432.795 581.303 430.552 581.952C427.635 582.796 425.996 583.606 422.786 583.044C419.577 582.483 418.408 581.616 415.901 583.601C413.395 585.589 412.167 587.543 409.249 588.384C406.332 589.227 404.918 588.877 403.933 590.312C403.436 591.042 403.063 591.67 402.94 592.205Z" fill="#3D237C"/>
<path d="M402.94 592.205C402.816 592.726 402.925 593.165 403.377 593.536C404.289 594.283 420.765 594.126 424.473 594.29C428.182 594.453 432.028 594.998 432.223 592.556C432.223 592.556 432.289 591.947 432.353 591.018C430.393 591.464 427.105 592.082 424.288 591.985C419.94 591.838 419.045 591.731 415.229 592.468C411.898 593.112 406.021 593.527 402.94 592.205Z" fill="#9EA8DB"/>
<path d="M412.563 586.567C412.164 586.47 412.269 585.833 412.673 585.932C413.763 586.2 414.676 586.804 415.338 587.716C415.583 588.052 415.053 588.417 414.809 588.081C414.25 587.313 413.483 586.792 412.563 586.567Z" fill="#9EA8DB"/>
<path d="M410.794 587.074C411.796 587.408 412.806 587.842 413.198 588.903C413.343 589.294 412.737 589.512 412.595 589.123C412.269 588.237 411.34 587.929 410.523 587.657C410.129 587.526 410.407 586.944 410.794 587.074Z" fill="#9EA8DB"/>
<path d="M415.229 585.404C415.205 585.418 415.179 585.435 415.155 585.449C415.113 585.537 415.032 585.601 414.923 585.603C414.899 585.62 414.873 585.636 414.849 585.655C414.642 585.804 414.426 585.66 414.367 585.47C413.447 585.212 412.069 584.708 412.072 583.8C412.074 582.997 412.982 582.308 413.742 582.485C414.687 582.708 415.106 583.71 415.512 584.568C416.407 584.224 417.424 584.163 418.294 584.603C419.178 585.051 419.32 586.162 418.629 586.93C417.973 587.657 416.683 586.994 416.061 586.487C415.697 586.19 415.45 585.809 415.229 585.404ZM414.284 583.66C413.112 583.94 412.91 584.215 413.678 584.487C414.029 584.681 414.402 584.824 414.794 584.921C414.842 584.892 414.889 584.864 414.939 584.835C414.797 584.537 414.559 583.805 414.284 583.66ZM418.118 585.776C418.208 585.224 417.966 584.966 417.396 585.001C417.115 584.944 416.837 584.935 416.557 584.968C416.289 584.992 416.039 585.051 415.802 585.136C415.821 585.167 415.837 585.2 415.856 585.229C416.267 585.897 418.398 587.467 418.118 585.776Z" fill="#9EA8DB"/>
<path d="M407.512 438.257L411.345 439.733C411.345 439.733 422.651 427.147 423.506 425.55C423.841 424.922 424.582 422.686 425.354 420.204C426.549 416.378 427.825 411.967 427.825 411.967L417.534 408.117C417.534 408.117 416.949 410.408 416.227 413.12C415.243 416.795 414.015 421.253 413.64 421.89C412.994 422.989 407.69 437.949 407.512 438.257Z" fill="#F48E76"/>
<path d="M416.229 413.12C417.322 414.433 418.581 415.84 419.999 417.245C421.532 418.763 423.425 419.675 425.357 420.201C426.552 416.375 427.827 411.964 427.827 411.964L417.536 408.115C417.536 408.117 416.951 410.408 416.229 413.12Z" fill="#C65252"/>
<path d="M416.811 410.92C416.98 414.314 427.547 413.58 427.547 413.58C427.547 413.58 427.027 419.63 426.59 426.993C426.193 433.699 425.863 441.5 426.065 446.8C426.131 448.553 426.255 450.031 426.452 451.109C426.649 452.184 426.923 452.859 427.281 453.006C430.303 454.233 462.323 453.544 466.16 453.006C469.997 452.468 467.143 451.106 466.518 442.512C466.319 439.738 466.338 435.898 466.459 431.968C466.545 429.175 466.678 426.337 466.823 423.802C467.098 418.844 467.402 415.058 467.402 415.058C467.402 415.058 469.676 420.433 470.018 421.909C470.07 422.146 470.341 422.293 470.762 422.364C472.98 422.76 479.466 421.134 481.597 419.694C482.013 419.412 482.058 418.458 481.828 417.046C481.799 416.885 481.785 416.792 481.785 416.792C480.476 409.392 472.425 390.568 470.614 387.055C468.875 383.672 458.907 379.505 454.882 377.932C453.839 377.527 453.198 377.292 453.198 377.292C453.198 377.292 453.248 379.605 451.442 382.099C449.639 384.596 442.923 387.403 440.561 386.778C438.2 386.155 439.445 378.617 439.445 378.617C439.445 378.617 438.499 379.031 437.086 379.652C433.275 381.324 426.067 384.496 424.898 385.077C423.297 385.873 416.64 407.525 416.811 410.92Z" fill="#62D37A"/>
<path d="M462.007 439.347C462.632 440.752 464.197 448.586 462.32 448.955C460.85 449.249 436.793 450.557 426.45 451.109C426.647 452.184 426.92 452.859 427.279 453.006C430.301 454.233 462.32 453.544 466.157 453.006C469.994 452.468 467.141 451.106 466.516 442.512C465.894 433.92 467.397 415.058 467.397 415.058L459.85 395.168C459.928 395.569 462.475 408.456 462.475 417.823C462.475 425.297 437.354 426.728 426.585 426.995C426.188 433.702 425.858 441.503 426.06 446.802C435.187 444.554 461.491 438.186 462.007 439.347Z" fill="#40A885"/>
<path d="M427.545 413.58L430.36 397.466L421.8 413.478L427.545 413.58Z" fill="#40A885"/>
<path d="M438.088 387.09C439.827 390.99 442.923 389.898 448.397 386.621C451.882 384.537 453.884 380.552 454.88 377.93C453.837 377.525 453.196 377.29 453.196 377.29C453.196 377.29 453.245 379.602 451.44 382.097C449.637 384.593 442.921 387.401 440.559 386.775C438.198 386.152 439.443 378.614 439.443 378.614C439.443 378.614 438.497 379.029 437.083 379.65C437.038 382.116 437.207 385.108 438.088 387.09Z" fill="#D0E286"/>
<path d="M433.247 440.098C435.356 439.979 441.678 436.13 443.267 435.687C444.857 435.244 453.739 434.026 457.916 433.444C459.555 433.214 462.853 432.667 466.457 431.965C472.042 430.871 478.354 429.407 480.314 428.182C483.11 426.431 482.16 419.147 481.856 417.247C482.046 418.548 481.987 419.424 481.592 419.694C479.461 421.134 472.976 422.762 470.757 422.364L470.754 422.366L470.084 422.999C470.084 422.999 468.733 423.323 466.818 423.8C464.364 424.411 460.988 425.275 458.355 426.033C453.663 427.389 445.634 430.12 442.856 430.037C440.074 429.956 437.387 430.373 436.088 430.982C434.786 431.591 435.164 432.354 434.99 434.168C434.819 435.981 432.477 438.712 430.36 439.347C428.239 439.987 431.139 440.214 433.247 440.098Z" fill="#F48E76"/>
<path d="M426.978 441.785C426.978 441.785 427.812 436.675 421.243 438.755C414.672 440.835 412.253 442.919 414.558 443.438C416.862 443.957 424.372 443.983 426.978 441.785Z" fill="#F48E76"/>
<path d="M440.659 362.683C440.162 362.683 439.759 362.281 439.759 361.785C439.759 361.289 440.162 360.887 440.659 360.887C441.156 360.887 441.559 361.289 441.559 361.785C441.559 362.281 441.156 362.683 440.659 362.683Z" fill="#604A42"/>
<path d="M433.981 362.209C433.796 362.671 433.273 362.894 432.81 362.712C432.346 362.529 432.123 362.006 432.306 361.544C432.491 361.082 433.014 360.859 433.477 361.041C433.94 361.224 434.166 361.747 433.981 362.209Z" fill="#604A42"/>
<path d="M433.116 370.138C433.052 370.022 433.023 369.946 433.021 369.934C432.971 369.799 433.042 369.648 433.178 369.598C433.313 369.548 433.465 369.619 433.515 369.754C433.529 369.792 433.888 370.711 435.169 371.029C436.456 371.349 438.098 369.821 438.112 369.804C438.217 369.705 438.383 369.709 438.483 369.814C438.582 369.92 438.578 370.084 438.473 370.183C438.397 370.254 436.606 371.924 435.04 371.536C433.852 371.244 433.313 370.5 433.116 370.138Z" fill="#C65252"/>
<path d="M441.6 367.878C440.732 367.862 440.039 367.298 440.053 366.62C440.065 365.94 440.78 365.405 441.647 365.422C442.514 365.438 443.208 366.002 443.194 366.679C443.182 367.357 442.467 367.895 441.6 367.878Z" fill="#C65252"/>
<path d="M432.061 364.585C432.589 364.796 432.874 365.324 432.698 365.767C432.522 366.21 431.95 366.4 431.42 366.189C430.893 365.978 430.607 365.45 430.783 365.007C430.961 364.564 431.534 364.374 432.061 364.585Z" fill="#C65252"/>
<path d="M436.827 363.081C436.416 363.773 436.005 364.467 435.594 365.158C435.435 365.426 435.031 365.853 435.154 366.179C435.23 366.381 435.917 366.703 436.102 366.831C436.504 367.106 435.995 367.667 435.599 367.395C435.028 367.004 434.064 366.632 434.358 365.791C434.522 365.322 434.895 364.85 435.15 364.424C435.482 363.86 435.817 363.299 436.15 362.735C436.399 362.318 437.076 362.659 436.827 363.081Z" fill="#C65252"/>
<path d="M442.222 360.087C442.203 359.764 441.334 359.191 441.091 359.049C440.609 358.765 440.008 358.625 439.485 358.888C439.053 359.104 438.632 358.473 439.07 358.258C439.816 357.886 440.628 357.936 441.36 358.331C441.944 358.649 442.937 359.333 442.982 360.056C443.011 360.539 442.253 360.575 442.222 360.087Z" fill="#604A42"/>
<path d="M434.187 358.909C433.285 358.606 432.334 358.791 431.655 359.473C431.313 359.817 430.745 359.314 431.09 358.971C431.945 358.111 433.187 357.782 434.349 358.17C434.808 358.324 434.651 359.063 434.187 358.909Z" fill="#604A42"/>
<path d="M439.191 429.288C439.318 432.807 438.484 436.134 436.922 439.021C436.429 439.956 435.846 440.84 435.197 441.675C433.763 443.526 431.993 445.103 429.97 446.325C429.651 446.523 429.325 446.706 428.991 446.885C427.957 447.432 426.874 447.883 425.738 448.228C424.5 448.623 423.202 448.887 421.866 449.007C421.481 449.046 421.088 449.074 420.695 449.087C410.102 449.454 401.204 441.184 400.824 430.619C400.688 426.839 401.653 423.282 403.453 420.254C404.157 419.046 404.996 417.927 405.946 416.909C406.601 416.208 407.304 415.551 408.055 414.967C408.463 414.634 408.886 414.327 409.321 414.039C411.092 412.854 413.074 411.954 415.201 411.414C416.239 411.146 417.318 410.962 418.422 410.877C418.72 410.847 419.021 410.829 419.32 410.82C429.914 410.451 438.812 418.721 439.191 429.288Z" fill="#FCD554"/>
<path d="M429.454 443.928C437.188 438.732 439.227 428.263 434.009 420.544C428.791 412.825 418.291 410.78 410.558 415.976C402.824 421.172 400.785 431.642 406.003 439.361C411.221 447.079 421.721 449.124 429.454 443.928Z" fill="#FF8243"/>
<path d="M428.954 443.189C436.279 438.268 438.21 428.352 433.268 421.042C428.326 413.731 418.382 411.794 411.058 416.716C403.733 421.637 401.802 431.552 406.744 438.863C411.686 446.173 421.63 448.11 428.954 443.189Z" fill="#FFA942"/>
<g opacity="0.65">
<path d="M425.987 440.904C422.259 439.603 419.32 436.664 418.033 432.914C418.033 432.914 418.033 432.914 418.033 432.914L413.339 419.224C417.008 420.532 419.903 423.431 421.19 427.127L425.987 440.904Z" fill="white" stroke="#FFA942" stroke-width="0.7"/>
<path d="M430.905 424.444L419.464 433.338C419.464 433.338 419.464 433.338 419.464 433.338C416.33 435.773 412.258 436.628 408.424 435.682L419.997 426.772C419.997 426.772 419.997 426.772 419.997 426.772C423.103 424.382 427.116 423.536 430.905 424.444Z" fill="white" stroke="#FFA942" stroke-width="0.7"/>
<path d="M430.901 424.448L422.746 430.785C421.708 430.675 420.667 430.47 419.631 430.161C418.594 429.853 417.61 429.456 416.681 428.981L413.332 419.221C414.935 419.794 416.388 420.674 417.627 421.788C417.628 421.788 417.628 421.789 417.629 421.789L417.863 421.529C417.864 421.53 417.866 421.532 417.868 421.533C417.87 421.535 417.872 421.536 417.874 421.538C418.405 422.017 418.898 422.538 419.346 423.097M430.901 424.448L417.645 421.803M430.901 424.448C429.259 424.056 427.575 423.995 425.937 424.244M430.901 424.448L425.937 424.244M419.346 423.097L419.065 423.306L419.065 423.306L419.066 423.307L419.068 423.31L419.068 423.31M419.346 423.097L419.073 423.316C419.071 423.314 419.07 423.312 419.068 423.31M419.346 423.097C419.347 423.098 419.348 423.1 419.349 423.102C419.354 423.108 419.36 423.116 419.365 423.122M419.068 423.31C418.635 422.77 418.158 422.266 417.645 421.803M419.068 423.31L419.076 423.32C419.08 423.326 419.087 423.336 419.096 423.346M417.645 421.803L417.651 421.808C417.652 421.809 417.651 421.808 417.649 421.806L417.643 421.802C417.642 421.801 417.641 421.799 417.639 421.798C417.637 421.796 417.636 421.795 417.634 421.793L417.634 421.793L417.639 421.798C417.641 421.799 417.643 421.801 417.645 421.803ZM419.096 423.346C419.095 423.344 419.093 423.342 419.091 423.34L419.365 423.122M419.096 423.346C419.537 423.901 419.935 424.488 420.28 425.11L420.28 425.11L420.284 425.118C420.294 425.134 420.296 425.139 420.3 425.147C420.304 425.156 420.31 425.168 420.33 425.205L420.33 425.207C420.443 425.411 420.551 425.622 420.651 425.833L420.817 426.183L421.149 425.982C421.341 425.865 421.535 425.755 421.733 425.648M419.096 423.346C419.1 423.35 419.103 423.354 419.107 423.358L419.365 423.122M419.365 423.122C419.819 423.692 420.23 424.298 420.586 424.941M421.733 425.648C421.762 425.633 421.789 425.618 421.808 425.607L421.811 425.605C421.834 425.592 421.848 425.584 421.861 425.577L421.861 425.577L421.866 425.575C422.158 425.422 422.457 425.28 422.76 425.149M421.733 425.648C421.734 425.648 421.735 425.647 421.736 425.646L421.57 425.338L421.728 425.65C421.73 425.65 421.731 425.649 421.733 425.648ZM420.586 424.941L420.586 424.941L420.586 424.941ZM420.586 424.941C420.598 424.96 420.608 424.98 420.617 425C420.624 425.012 420.631 425.025 420.637 425.038C420.697 425.146 420.755 425.257 420.812 425.368C420.804 425.373 420.795 425.378 420.786 425.383L420.968 425.683L421.284 425.532C421.28 425.523 421.275 425.514 421.271 425.504C421.37 425.448 421.47 425.393 421.57 425.338C421.593 425.327 421.615 425.314 421.637 425.302C421.659 425.289 421.681 425.277 421.703 425.265C422.005 425.107 422.313 424.961 422.625 424.827M422.625 424.827L422.758 425.151C422.759 425.15 422.76 425.15 422.76 425.149M422.625 424.827L422.763 425.148C422.762 425.149 422.761 425.149 422.76 425.149M422.625 424.827C422.648 424.817 422.671 424.808 422.695 424.799C422.718 424.79 422.741 424.78 422.764 424.771C423.048 424.653 423.337 424.544 423.629 424.446M422.76 425.149C422.78 425.141 422.801 425.133 422.824 425.124C422.847 425.115 422.872 425.105 422.897 425.095L422.898 425.094C423.173 424.98 423.453 424.874 423.735 424.779M423.735 424.779C423.733 424.78 423.73 424.781 423.728 424.781L423.629 424.446M423.735 424.779C423.763 424.771 423.788 424.762 423.808 424.755C423.811 424.754 423.815 424.752 423.818 424.751C423.836 424.745 423.847 424.741 423.859 424.737L423.859 424.737L423.861 424.736C424.518 424.521 425.19 424.362 425.873 424.255L425.873 424.255L425.879 424.254L425.904 424.25C425.913 424.248 425.925 424.246 425.937 424.244M423.735 424.779C423.737 424.778 423.739 424.778 423.741 424.777L423.629 424.446M423.629 424.446C423.653 424.438 423.677 424.43 423.701 424.422C423.718 424.416 423.736 424.409 423.753 424.404C424.428 424.183 425.118 424.019 425.819 423.909C425.829 423.907 425.84 423.905 425.85 423.904C425.861 423.902 425.871 423.901 425.881 423.899M425.937 424.244C425.936 424.244 425.935 424.245 425.934 424.245L425.881 423.899M425.937 424.244C425.939 424.244 425.94 424.244 425.942 424.243L425.881 423.899M425.937 424.244L425.881 423.899" fill="white" stroke="#FFA942" stroke-width="0.7"/>
</g>
<g opacity="0.75">
<path d="M434.045 437.623C431.426 442.386 426.43 445.693 420.581 445.896C411.749 446.202 404.338 439.314 404.022 430.506C403.801 424.362 407.086 418.912 412.093 416.078C410.755 418.512 410.037 421.328 410.144 424.303C410.46 433.112 417.871 440 426.702 439.694C429.379 439.602 431.87 438.861 434.045 437.623Z" fill="#FF8243" fill-opacity="0.58"/>
</g>
<path d="M378.785 472.491V501.037C378.785 503.264 376.977 505.072 374.75 505.072H289.95C287.705 505.072 285.888 503.264 285.888 501.037V472.491C285.888 470.247 287.696 468.43 289.95 468.43H374.75C376.977 468.439 378.785 470.247 378.785 472.491Z" fill="#EAEAEA"/>
<path d="M309.224 505.09H291.784V510.229H309.224V505.09Z" fill="#8E8E8E"/>
<path d="M372.915 505.09H355.476V510.229H372.915V505.09Z" fill="#8E8E8E"/>
<path d="M378.785 491.899V501.046C378.785 503.273 376.977 505.081 374.75 505.081H289.95C287.705 505.081 285.888 503.273 285.888 501.046V491.899H378.785Z" fill="#C1C1C1"/>
<path d="M371.116 482.565H346.204C344.833 482.565 343.71 481.451 343.71 480.071C343.71 478.699 344.824 477.577 346.204 477.577H371.116C372.488 477.577 373.61 478.69 373.61 480.071C373.601 481.451 372.488 482.565 371.116 482.565Z" fill="white"/>
<path d="M299.89 480.08C299.89 478.922 298.945 477.978 297.788 477.978C296.63 477.978 295.686 478.922 295.686 480.08C295.686 481.237 296.63 482.181 297.788 482.181C298.945 482.181 299.89 481.237 299.89 480.08Z" fill="#23D169"/>
<path d="M311.718 480.08C311.718 478.922 310.774 477.978 309.616 477.978C308.458 477.978 307.514 478.922 307.514 480.08C307.514 481.237 308.458 482.181 309.616 482.181C310.774 482.181 311.718 481.237 311.718 480.08Z" fill="white"/>
<path d="M323.546 480.08C323.546 478.922 322.601 477.978 321.444 477.978C320.286 477.978 319.342 478.922 319.342 480.08C319.342 481.237 320.286 482.181 321.444 482.181C322.61 482.181 323.546 481.237 323.546 480.08Z" fill="white"/>
<path d="M309.224 546.871H291.784V552.01H309.224V546.871Z" fill="#8E8E8E"/>
<path d="M372.915 546.871H355.476V552.01H372.915V546.871Z" fill="#8E8E8E"/>
<path d="M378.785 514.29V542.836C378.785 545.063 376.977 546.871 374.75 546.871H289.95C287.705 546.871 285.888 545.063 285.888 542.836V514.29C285.888 512.045 287.696 510.229 289.95 510.229H374.75C376.977 510.229 378.785 512.045 378.785 514.29Z" fill="#EAEAEA"/>
<path d="M378.785 533.689V542.836C378.785 545.063 376.977 546.871 374.75 546.871H289.95C287.705 546.871 285.888 545.063 285.888 542.836V533.689H378.785Z" fill="#C1C1C1"/>
<path d="M371.116 524.363H346.204C344.833 524.363 343.71 523.25 343.71 521.87C343.71 520.498 344.824 519.376 346.204 519.376H371.116C372.488 519.376 373.61 520.489 373.61 521.87C373.601 523.241 372.488 524.363 371.116 524.363Z" fill="white"/>
<path d="M299.89 521.87C299.89 520.712 298.945 519.768 297.788 519.768C296.63 519.768 295.686 520.712 295.686 521.87C295.686 523.027 296.63 523.972 297.788 523.972C298.945 523.972 299.89 523.027 299.89 521.87Z" fill="#23D169"/>
<path d="M311.718 521.87C311.718 520.712 310.774 519.768 309.616 519.768C308.458 519.768 307.514 520.712 307.514 521.87C307.514 523.027 308.458 523.972 309.616 523.972C310.774 523.972 311.718 523.027 311.718 521.87Z" fill="white"/>
<path d="M323.546 521.87C323.546 520.712 322.601 519.768 321.444 519.768C320.286 519.768 319.342 520.712 319.342 521.87C319.342 523.027 320.286 523.972 321.444 523.972C322.61 523.972 323.546 523.027 323.546 521.87Z" fill="white"/>
<path d="M309.224 588.661H291.784V593.8H309.224V588.661Z" fill="#8E8E8E"/>
<path d="M372.915 588.661H355.476V593.8H372.915V588.661Z" fill="#8E8E8E"/>
<path d="M378.785 556.08V584.626C378.785 586.853 376.977 588.661 374.75 588.661H289.95C287.705 588.661 285.888 586.853 285.888 584.626V556.08C285.888 553.836 287.696 552.019 289.95 552.019H374.75C376.977 552.019 378.785 553.836 378.785 556.08Z" fill="#EAEAEA"/>
<path d="M378.785 575.479V584.626C378.785 586.853 376.977 588.661 374.75 588.661H289.95C287.705 588.661 285.888 586.853 285.888 584.626V575.479H378.785Z" fill="#C1C1C1"/>
<path d="M371.116 566.154H346.204C344.833 566.154 343.71 565.04 343.71 563.66C343.71 562.288 344.824 561.166 346.204 561.166H371.116C372.488 561.166 373.61 562.279 373.61 563.66C373.601 565.04 372.488 566.154 371.116 566.154Z" fill="white"/>
<path d="M299.89 563.66C299.89 562.502 298.945 561.558 297.788 561.558C296.63 561.558 295.686 562.502 295.686 563.66C295.686 564.818 296.63 565.762 297.788 565.762C298.945 565.762 299.89 564.827 299.89 563.66Z" fill="#23D169"/>
<path d="M311.718 563.66C311.718 562.502 310.774 561.558 309.616 561.558C308.458 561.558 307.514 562.502 307.514 563.66C307.514 564.818 308.458 565.762 309.616 565.762C310.774 565.762 311.718 564.827 311.718 563.66Z" fill="white"/>
<path d="M323.546 563.66C323.546 562.502 322.601 561.558 321.444 561.558C320.286 561.558 319.342 562.502 319.342 563.66C319.342 564.818 320.286 565.762 321.444 565.762C322.61 565.762 323.546 564.827 323.546 563.66Z" fill="white"/>
<path d="M267.897 472.491V501.037C267.897 503.264 266.089 505.072 263.862 505.072H179.061C176.817 505.072 175 503.264 175 501.037V472.491C175 470.247 176.808 468.43 179.061 468.43H263.862C266.08 468.439 267.897 470.247 267.897 472.491Z" fill="#EAEAEA"/>
<path d="M198.327 505.09H180.887V510.229H198.327V505.09Z" fill="#8E8E8E"/>
<path d="M262.018 505.09H244.579V510.229H262.018V505.09Z" fill="#8E8E8E"/>
<path d="M267.897 491.899V501.046C267.897 503.273 266.089 505.081 263.862 505.081H179.061C176.817 505.081 175 503.273 175 501.046V491.899H267.897Z" fill="#C1C1C1"/>
<path d="M260.219 482.565H235.307C233.935 482.565 232.813 481.451 232.813 480.071C232.813 478.699 233.927 477.577 235.307 477.577H260.219C261.591 477.577 262.713 478.69 262.713 480.071C262.713 481.451 261.6 482.565 260.219 482.565Z" fill="white"/>
<path d="M188.993 480.08C188.993 478.922 188.048 477.978 186.891 477.978C185.733 477.978 184.789 478.922 184.789 480.08C184.789 481.237 185.733 482.181 186.891 482.181C188.048 482.181 188.993 481.237 188.993 480.08Z" fill="#23D169"/>
<path d="M200.829 480.08C200.829 478.922 199.885 477.978 198.727 477.978C197.57 477.978 196.625 478.922 196.625 480.08C196.625 481.237 197.57 482.181 198.727 482.181C199.885 482.181 200.829 481.237 200.829 480.08Z" fill="white"/>
<path d="M212.657 480.08C212.657 478.922 211.713 477.978 210.555 477.978C209.397 477.978 208.453 478.922 208.453 480.08C208.453 481.237 209.397 482.181 210.555 482.181C211.713 482.181 212.657 481.237 212.657 480.08Z" fill="white"/>
<path d="M198.327 546.871H180.887V552.01H198.327V546.871Z" fill="#8E8E8E"/>
<path d="M262.018 546.871H244.579V552.01H262.018V546.871Z" fill="#8E8E8E"/>
<path d="M267.897 514.29V542.836C267.897 545.063 266.089 546.871 263.862 546.871H179.061C176.817 546.871 175 545.063 175 542.836V514.29C175 512.045 176.808 510.229 179.061 510.229H263.862C266.08 510.229 267.897 512.045 267.897 514.29Z" fill="#EAEAEA"/>
<path d="M267.897 533.689V542.836C267.897 545.063 266.089 546.871 263.862 546.871H179.061C176.817 546.871 175 545.063 175 542.836V533.689H267.897Z" fill="#C1C1C1"/>
<path d="M260.219 524.363H235.307C233.935 524.363 232.813 523.25 232.813 521.87C232.813 520.498 233.927 519.376 235.307 519.376H260.219C261.591 519.376 262.713 520.489 262.713 521.87C262.713 523.241 261.6 524.363 260.219 524.363Z" fill="white"/>
<path d="M188.993 521.87C188.993 520.712 188.048 519.768 186.891 519.768C185.733 519.768 184.789 520.712 184.789 521.87C184.789 523.027 185.733 523.972 186.891 523.972C188.048 523.972 188.993 523.027 188.993 521.87Z" fill="#23D169"/>
<path d="M200.829 521.87C200.829 520.712 199.885 519.768 198.727 519.768C197.57 519.768 196.625 520.712 196.625 521.87C196.625 523.027 197.57 523.972 198.727 523.972C199.885 523.972 200.829 523.027 200.829 521.87Z" fill="white"/>
<path d="M212.657 521.87C212.657 520.712 211.713 519.768 210.555 519.768C209.397 519.768 208.453 520.712 208.453 521.87C208.453 523.027 209.397 523.972 210.555 523.972C211.713 523.972 212.657 523.027 212.657 521.87Z" fill="white"/>
<path d="M198.327 588.661H180.887V593.8H198.327V588.661Z" fill="#8E8E8E"/>
<path d="M262.018 588.661H244.579V593.8H262.018V588.661Z" fill="#8E8E8E"/>
<path d="M267.897 556.08V584.626C267.897 586.853 266.089 588.661 263.862 588.661H179.061C176.817 588.661 175 586.853 175 584.626V556.08C175 553.836 176.808 552.019 179.061 552.019H263.862C266.08 552.019 267.897 553.836 267.897 556.08Z" fill="#EAEAEA"/>
<path d="M267.897 575.479V584.626C267.897 586.853 266.089 588.661 263.862 588.661H179.061C176.817 588.661 175 586.853 175 584.626V575.479H267.897Z" fill="#C1C1C1"/>
<path d="M260.219 566.154H235.307C233.935 566.154 232.813 565.04 232.813 563.66C232.813 562.288 233.927 561.166 235.307 561.166H260.219C261.591 561.166 262.713 562.279 262.713 563.66C262.713 565.04 261.6 566.154 260.219 566.154Z" fill="white"/>
<path d="M188.993 563.66C188.993 562.502 188.048 561.558 186.891 561.558C185.733 561.558 184.789 562.502 184.789 563.66C184.789 564.818 185.733 565.762 186.891 565.762C188.048 565.762 188.993 564.827 188.993 563.66Z" fill="#23D169"/>
<path d="M200.829 563.66C200.829 562.502 199.885 561.558 198.727 561.558C197.57 561.558 196.625 562.502 196.625 563.66C196.625 564.818 197.57 565.762 198.727 565.762C199.885 565.762 200.829 564.827 200.829 563.66Z" fill="white"/>
<path d="M212.657 563.66C212.657 562.502 211.713 561.558 210.555 561.558C209.397 561.558 208.453 562.502 208.453 563.66C208.453 564.818 209.397 565.762 210.555 565.762C211.713 565.762 212.657 564.827 212.657 563.66Z" fill="white"/>
<path d="M267.273 381.489V425.443H232.537V468.394" stroke="#8E8E8E" stroke-miterlimit="10" stroke-linecap="round" stroke-linejoin="round" stroke-dasharray="4 4"/>
<path d="M286.922 380.403V425.51H320.498V468.075" stroke="#8E8E8E" stroke-miterlimit="10" stroke-linecap="round" stroke-linejoin="round" stroke-dasharray="4 4"/>
<path d="M344.037 347.953H341.81C339.619 347.953 337.891 346.092 338.051 343.91C338.087 343.464 338.096 343.01 338.096 342.547C338.096 332.393 330.303 324.057 320.372 323.184C320.372 323.157 320.372 323.13 320.372 323.104C320.372 304.266 305.106 289 286.268 289C272.267 289 260.243 297.444 254.988 309.512C252.244 308.8 249.332 308.506 246.33 308.675C232.258 309.494 220.875 320.984 220.154 335.065C220.011 337.898 220.296 340.641 220.937 343.242C221.534 345.638 219.744 347.953 217.286 347.953C208.468 347.953 200.71 355.15 200.479 363.959C200.238 373.239 207.693 380.828 216.912 380.828H344.037C353.113 380.828 360.478 373.471 360.478 364.386C360.478 355.319 353.121 347.953 344.037 347.953Z" fill="#F4F7F8"/>
<g clip-path="url(#clip0_15_1067)">
<path d="M278.038 365.597C282.442 365.597 286.747 364.291 290.409 361.845C294.071 359.398 296.925 355.92 298.61 351.852C300.295 347.783 300.736 343.306 299.877 338.987C299.018 334.667 296.897 330.7 293.783 327.586C290.669 324.472 286.702 322.351 282.382 321.492C278.063 320.633 273.586 321.074 269.517 322.759C265.448 324.444 261.971 327.298 259.524 330.96C257.077 334.622 255.772 338.927 255.772 343.331C255.764 346.257 256.335 349.156 257.452 351.86C258.568 354.565 260.208 357.023 262.277 359.092C264.346 361.161 266.804 362.801 269.509 363.917C272.213 365.034 275.112 365.605 278.038 365.597V365.597Z" fill="#FF9431"/>
<path d="M264.187 330.871C269.711 331.169 274.827 333.95 278.081 338.468C278.081 338.468 278.081 338.468 278.081 338.468L290.212 355.317C284.61 355.053 279.417 352.235 276.142 347.643L264.187 330.871Z" fill="white" stroke="#FF9431"/>
<path d="M290.213 330.869L278.257 347.64C274.983 352.232 269.789 355.05 264.188 355.314L276.318 338.468C279.572 333.95 284.689 331.169 290.213 330.869Z" fill="white" stroke="#FF9431"/>
<path d="M290.208 330.87L281.687 342.822C280.231 343.092 278.731 343.234 277.196 343.234C275.661 343.234 274.161 343.092 272.705 342.822L264.183 330.869C266.596 331.001 268.929 331.611 271.066 332.627C271.071 332.63 271.076 332.632 271.08 332.633L271.093 332.639L271.096 332.64C271.983 333.064 272.837 333.558 273.645 334.119L273.659 334.13C273.668 334.136 273.681 334.146 273.698 334.156C274.523 334.734 275.304 335.374 276.025 336.083L276.025 336.083L276.034 336.092C276.053 336.109 276.058 336.115 276.067 336.124C276.076 336.135 276.089 336.15 276.131 336.192L276.133 336.193C276.369 336.427 276.602 336.67 276.824 336.917L277.195 337.33L277.567 336.919C277.781 336.682 278.001 336.452 278.226 336.227C278.259 336.195 278.29 336.163 278.312 336.14L278.314 336.137C278.341 336.109 278.357 336.093 278.372 336.078L278.372 336.078L278.377 336.073C278.713 335.745 279.062 335.431 279.422 335.129C279.445 335.11 279.47 335.091 279.497 335.069C279.525 335.047 279.555 335.023 279.585 334.999L279.587 334.998C279.914 334.731 280.252 334.474 280.597 334.229C280.632 334.206 280.663 334.184 280.686 334.167L280.7 334.157C280.721 334.142 280.735 334.131 280.749 334.122L280.752 334.119C281.558 333.56 282.407 333.07 283.294 332.646L283.294 332.646L283.302 332.642C283.31 332.638 283.319 332.634 283.333 332.627L283.335 332.626C283.346 332.621 283.361 332.613 283.377 332.606C285.502 331.603 287.816 331.002 290.208 330.87Z" fill="white" stroke="#FF9431"/>
</g>
<rect x="290.117" y="318.892" width="16.8134" height="16.8134" rx="8.40668" fill="#23D169"/>
<path fill-rule="evenodd" clip-rule="evenodd" d="M302.304 323.877L296.989 329.006L295.579 327.499C295.319 327.254 294.911 327.24 294.614 327.447C294.325 327.663 294.243 328.041 294.421 328.345L296.091 331.062C296.255 331.314 296.537 331.47 296.856 331.47C297.16 331.47 297.449 331.314 297.613 331.062C297.88 330.713 302.979 324.634 302.979 324.634C303.647 323.951 302.838 323.35 302.304 323.87V323.877Z" fill="white"/>
<rect x="290.117" y="318.892" width="16.8134" height="16.8134" rx="8.40668" stroke="#F7F7FC"/>
<defs>
<clipPath id="clip0_15_1067">
<rect width="44.5334" height="44.5334" fill="white" transform="translate(255.771 321.064)"/>
</clipPath>
</defs>
</svg>
