<svg width="1440" height="349" viewBox="0 0 1440 349" fill="none" xmlns="http://www.w3.org/2000/svg">
<path d="M1682.59 307.207C1682.59 310.912 1681.09 314.257 1678.66 316.687C1676.23 319.118 1672.88 320.621 1669.18 320.621H1440.08C1437.46 320.621 1435.32 322.759 1435.32 325.388C1435.32 328.017 1437.46 330.138 1440.08 330.138H1475.71C1480.07 330.138 1483.59 333.678 1483.59 338.021V338.038C1483.59 342.395 1480.07 345.921 1475.71 345.921H1380.04C1375.69 345.921 1372.16 342.395 1372.16 338.038V338.021C1372.16 333.681 1375.69 330.138 1380.04 330.138H1395.91C1398.54 330.138 1400.67 328.017 1400.67 325.388C1400.67 322.759 1398.54 320.621 1395.91 320.621L1281.65 323.235C1279.03 323.235 1276.9 325.373 1276.9 328.002C1276.9 330.631 1279.03 332.752 1281.65 332.752H1319.39C1323.74 332.752 1327.27 336.292 1327.27 340.635V340.652C1327.27 345.009 1323.74 348.535 1319.39 348.535H1112.27C1107.93 348.535 1104.39 345.009 1104.39 340.652V340.635C1104.39 336.295 1107.93 332.752 1112.27 332.752H1140.03C1142.66 332.752 1144.8 330.631 1144.8 328.002C1144.8 325.373 1142.66 323.235 1140.03 323.235H925.413C918.004 323.235 912 317.231 912 309.822C912 306.117 913.503 302.772 915.933 300.341C918.364 297.911 921.712 296.408 925.413 296.408L1669.18 293.794C1676.59 293.794 1682.59 299.798 1682.59 307.207Z" fill="#FFA959"/>
<path d="M1589.92 296.934H1349.94C1349.94 296.934 1339.11 240.759 1340.18 237.232C1341.26 233.702 1361.87 198.142 1361.87 198.142L1368.38 157.101L1405.22 97.4001L1410.1 27.8555L1435.56 0L1465.93 21.727L1484.34 114.579L1487.07 113.278L1520.11 97.4001L1559.36 186.998H1577.01L1581.08 221.63L1589.92 296.934Z" fill="#FFA552"/>
<path d="M1511.03 296.773H1246.82C1246.82 296.773 1234.9 279.138 1236.08 276.984C1237.26 274.825 1259.96 253.085 1259.96 253.085L1267.12 227.993L1307.68 191.491L1313.05 148.968L1341.08 131.937L1374.52 145.223L1394.78 201.993L1397.79 201.199L1434.17 191.491L1477.38 246.274H1496.82L1501.29 267.45L1511.03 296.773Z" fill="#FF8A1E"/>
<path d="M1344.67 190.126L1377.21 228.446L1346.17 260.181L1296.94 222.715L1271.27 233.217L1281.12 261.092L1301.7 273.413L1259.96 292.827L1236.08 276.99C1237.26 274.832 1259.96 253.091 1259.96 253.091L1267.12 227.999L1307.68 191.497L1313.05 148.975L1341.08 131.944L1344.67 190.126Z" fill="#FFB471"/>
<path d="M1501.29 267.446L1470.58 290.437L1452 261.597L1462.23 246.442L1452 224.698L1419.06 240.31L1394.79 205.738L1397.79 201.196L1434.17 191.487L1477.38 246.27H1496.82L1501.29 267.446Z" fill="#FF9A3D"/>
<path d="M-242.594 307.207C-242.594 310.912 -241.092 314.257 -238.661 316.687C-236.23 319.118 -232.882 320.621 -229.181 320.621H-0.0840649C2.54483 320.621 4.68289 322.759 4.68289 325.388C4.68289 328.017 2.54483 330.138 -0.0840649 330.138H-35.7085C-40.0654 330.138 -43.5919 333.678 -43.5919 338.021V338.038C-43.5919 342.395 -40.0654 345.921 -35.7085 345.921H59.9569C64.3137 345.921 67.8402 342.395 67.8402 338.038V338.021C67.8402 333.681 64.3137 330.138 59.9569 330.138H44.0927C41.4638 330.138 39.3257 328.017 39.3257 325.388C39.3257 322.759 41.4638 320.621 44.0927 320.621L158.345 323.235C160.974 323.235 163.095 325.373 163.095 328.002C163.095 330.631 160.974 332.752 158.345 332.752H120.613C116.256 332.752 112.729 336.292 112.729 340.635V340.652C112.729 345.009 116.256 348.535 120.613 348.535H327.73C332.07 348.535 335.613 345.009 335.613 340.652V340.635C335.613 336.295 332.073 332.752 327.73 332.752H299.969C297.34 332.752 295.202 330.631 295.202 328.002C295.202 325.373 297.34 323.235 299.969 323.235H514.587C521.996 323.235 528 317.231 528 309.822C528 306.117 526.497 302.772 524.067 300.341C521.636 297.911 518.288 296.408 514.587 296.408L-229.181 293.794C-236.59 293.794 -242.594 299.798 -242.594 307.207Z" fill="#FFA959"/>
<path d="M-149.921 296.934H90.0609C90.0609 296.934 100.889 240.759 99.8167 237.232C98.7443 233.702 78.1267 198.142 78.1267 198.142L71.6217 157.101L34.7802 97.4001L29.9023 27.8555L4.4404 0L-25.9297 21.727L-44.3386 114.579L-47.0684 113.278L-80.1077 97.4001L-119.356 186.998H-137.012L-141.076 221.63L-149.921 296.934Z" fill="#FFA552"/>
<path d="M-71.0299 296.773H193.177C193.177 296.773 205.098 279.138 203.918 276.984C202.738 274.825 180.039 253.085 180.039 253.085L172.879 227.993L132.316 191.491L126.947 148.968L98.9168 131.937L65.4809 145.223L45.2162 201.993L42.2074 201.199L5.83323 191.491L-37.3788 246.274H-56.8198L-61.2943 267.45L-71.0299 296.773Z" fill="#FF8A1E"/>
<path d="M95.3336 190.126L62.7918 228.446L93.8309 260.181L143.057 222.715L168.727 233.217L158.881 261.092L138.297 273.413L180.04 292.827L203.918 276.99C202.738 274.832 180.04 253.091 180.04 253.091L172.879 227.999L132.316 191.497L126.948 148.975L98.9172 131.944L95.3336 190.126Z" fill="#FFB471"/>
<path d="M-61.2942 267.446L-30.5778 290.437L-11.9974 261.597L-22.2339 246.442L-11.9974 224.698L20.9411 240.31L45.213 205.738L42.2075 201.196L5.83336 191.487L-37.3786 246.27H-56.8196L-61.2942 267.446Z" fill="#FF9A3D"/>
</svg>
