<svg width="120" height="27" viewBox="0 0 120 27" fill="none" xmlns="http://www.w3.org/2000/svg">
<path d="M17.8225 19.6516L12.8706 21.7512V21.5412C11.9149 21.7512 10.829 21.9191 9.82988 21.9611C5.13855 21.9611 1.4463 19.5257 1.35943 16.7123V15.6625C2.87976 17.8041 6.05076 19.2737 9.82988 19.2317C11.0896 19.2737 12.4362 19.1058 13.5221 18.8118L13.9565 17.7621C12.6534 18.14 11.2199 18.3919 9.82988 18.3919C5.13855 18.3919 1.4463 16.0404 1.35943 13.1431V12.3033C2.87976 14.3188 6.05076 15.7465 9.82988 15.6625C11.524 15.7465 13.1746 15.4106 14.6081 14.8227L14.8253 13.7729C13.4353 14.4448 11.6977 14.8647 9.87332 14.8227C5.18199 14.8647 1.48974 12.5132 1.40286 9.57388V8.73406C2.9232 10.7916 6.09419 12.2193 9.87332 12.3033C12.0018 12.2613 14.0434 11.6734 15.7375 10.8336L15.9547 9.57388C14.4343 10.6656 12.219 11.3795 9.87332 11.4635C5.18199 11.3795 1.48974 8.98601 1.40286 6.00467C1.40286 3.19129 5.18199 0.797823 9.87332 0.797823C12.6534 0.797823 15.2597 1.76361 16.78 3.31727L16.9537 3.56921H18.0397L17.866 3.31727C16.3456 1.3437 13.2615 0 9.82988 0C4.61729 0 0.490662 2.7294 0.490662 6.04666V6.25661V16.9223C0.664415 20.1555 4.70417 22.8009 9.78644 22.8009C13.1312 22.8009 16.1719 21.5412 17.8225 19.6516Z" fill="#263238"/>
<path d="M15.7809 27.0001L17.5184 19.8197L12.4796 21.9192L15.5637 9.44802H9.65613L11.1765 3.31738H29.9852L28.4649 9.44802H22.3401L21.0369 12.8493L27.8133 10.1199L15.7809 27.0001ZM18.865 18.35L17.9963 22.5911L25.207 12.0514L19.2994 14.5709L21.9057 8.6502H27.8133L28.8993 4.19919H11.828L10.7421 8.6502H16.6497L13.7828 20.4916L18.8216 18.392L18.865 18.35Z" fill="#FAC02F"/>
<path d="M42.4953 7.47445C42.4953 8.1463 42.2782 8.69218 41.8438 9.0701C41.4094 9.44802 40.8013 9.65797 40.0194 9.65797C39.2375 9.65797 38.5859 9.40602 38.1515 8.94413C37.6737 8.48223 37.4565 7.81038 37.4565 7.05455V5.79483C37.4565 5.03899 37.7171 4.40913 38.1515 3.90525C38.6293 3.44335 39.2375 3.1914 40.0194 3.1914C40.8013 3.1914 41.4528 3.40136 41.8872 3.73728C42.365 4.1152 42.5822 4.66108 42.5388 5.33293H41.2791C41.2791 4.91302 41.1922 4.61909 40.975 4.40913C40.7578 4.19918 40.4538 4.1152 40.0194 4.1152C39.585 4.1152 39.3244 4.28316 39.1072 4.5771C38.89 4.87103 38.7597 5.24895 38.7597 5.75284V7.01256C38.7597 7.47445 38.89 7.89436 39.1072 8.18829C39.3244 8.48223 39.6719 8.65019 40.0628 8.65019C40.4537 8.65019 40.7578 8.56621 40.9316 8.35626C41.1053 8.1463 41.2356 7.85237 41.2356 7.43246H42.4953V7.47445ZM49.7061 6.97057C49.7061 7.7264 49.4455 8.39825 48.9676 8.90214C48.4898 9.40602 47.7948 9.65797 47.0129 9.65797C46.231 9.65797 45.5795 9.40602 45.0582 8.90214C44.5804 8.39825 44.3198 7.76839 44.3198 6.97057V5.83682C44.3198 5.08098 44.5804 4.45112 45.0582 3.90525C45.536 3.40136 46.231 3.14941 47.0129 3.14941C47.7948 3.14941 48.4898 3.40136 48.9676 3.90525C49.4889 4.40913 49.7061 5.03899 49.7061 5.83682V6.97057ZM48.4029 5.83682C48.4029 5.33293 48.2726 4.95501 48.012 4.61909C47.7514 4.32515 47.4039 4.15719 46.9695 4.15719C46.5351 4.15719 46.1876 4.32515 45.927 4.61909C45.7098 4.91302 45.536 5.33293 45.536 5.83682V6.97057C45.536 7.47445 45.6663 7.89436 45.927 8.18829C46.1442 8.48223 46.5351 8.65019 46.9695 8.65019C47.4039 8.65019 47.7514 8.48223 48.012 8.18829C48.2726 7.89436 48.4029 7.47445 48.4029 6.97057V5.83682ZM53.0943 9.57399H51.7911V3.27539H53.0943V9.57399ZM60.6525 9.57399H59.3494L56.7431 5.33293V9.57399H55.4399V3.27539H56.7431L59.3494 7.51644V3.27539H60.6525V9.57399ZM67.2551 4.24117H65.3873V9.57399H64.0841V4.24117H62.2597V3.27539H67.2551V4.24117ZM72.6849 6.8026H70.2524V8.6082H73.1193V9.57399H68.9492V3.27539H73.1193V4.24117H70.2524V5.83682H72.6849V6.8026ZM76.3337 8.6082H79.2441V9.57399H74.9871V3.27539H76.2903V8.6082H76.3337ZM84.8476 6.8026H82.4151V8.6082H85.282V9.57399H81.1119V3.27539H85.282V4.24117H82.4151V5.83682H84.8476V6.8026ZM92.1887 8.73417C91.9715 8.98612 91.7109 9.19607 91.2765 9.40602C90.8855 9.61598 90.3643 9.69996 89.7127 9.69996C88.9308 9.69996 88.2792 9.44802 87.8014 8.98612C87.3236 8.52422 87.063 7.89436 87.063 7.13853V5.79483C87.063 5.03899 87.3236 4.40913 87.8014 3.94724C88.2792 3.48534 88.9308 3.2334 89.6693 3.2334C90.4512 3.2334 91.1027 3.44335 91.4937 3.77927C91.8846 4.1152 92.1452 4.61909 92.1018 5.24895H90.8855C90.8855 4.91302 90.7987 4.66108 90.5815 4.45112C90.3643 4.24117 90.1036 4.15719 89.7127 4.15719C89.3218 4.15719 89.0177 4.32515 88.7571 4.61909C88.5399 4.91302 88.4095 5.29094 88.4095 5.75284V7.09654C88.4095 7.55843 88.5399 7.97834 88.8005 8.27228C89.0611 8.56621 89.4086 8.73417 89.7996 8.73417C90.1036 8.73417 90.3643 8.73417 90.538 8.65019C90.7118 8.6082 90.8421 8.52422 90.9724 8.44024V7.22251H89.7127V6.34071H92.2756V8.81815L92.1887 8.73417ZM95.5769 7.05455V9.57399H94.2737V3.2334H96.5325C97.271 3.2334 97.8791 3.40136 98.27 3.73728C98.7044 4.07321 98.9216 4.53511 98.9216 5.12298C98.9216 5.4589 98.8347 5.71084 98.661 5.96279C98.4872 6.17274 98.2266 6.3827 97.8791 6.55066C98.27 6.67663 98.5307 6.84459 98.7044 7.09654C98.8782 7.34848 98.965 7.68441 98.965 8.06232V8.52422C98.965 8.52422 98.965 8.90214 99.0519 9.0701C99.0519 9.28005 99.1822 9.40602 99.3125 9.49001V9.57399H97.966C97.8357 9.49001 97.7488 9.32204 97.7053 9.11209C97.7053 8.90214 97.6619 8.69218 97.6619 8.48223V8.02033C97.6619 7.7264 97.575 7.47445 97.4013 7.30649C97.2275 7.13853 96.9669 7.05455 96.6628 7.05455H95.5769ZM95.5769 6.08876H96.5325C96.88 6.08876 97.1841 6.00478 97.3578 5.87881C97.5316 5.71084 97.6185 5.50089 97.6185 5.20696C97.6185 4.91302 97.5316 4.70307 97.3578 4.53511C97.1841 4.36714 96.9235 4.28316 96.5759 4.28316H95.6203V6.13075L95.5769 6.08876ZM104.482 8.23029H102.353L101.919 9.57399H100.529L102.744 3.27539H104.091L106.263 9.57399H104.873L104.438 8.18829L104.482 8.23029ZM102.701 7.22251H104.178L103.483 4.997L102.744 7.22251H102.701ZM109.216 7.2645V9.532H107.913V3.27539H110.433C111.171 3.27539 111.779 3.48534 112.214 3.82126C112.648 4.19918 112.865 4.70307 112.865 5.29094C112.865 5.87881 112.648 6.3827 112.214 6.76061C111.779 7.13853 111.215 7.30649 110.433 7.30649H109.26L109.216 7.2645ZM109.216 6.29871H110.389C110.737 6.29871 111.041 6.21473 111.215 6.00478C111.388 5.79483 111.475 5.54288 111.475 5.29094C111.475 4.997 111.388 4.74506 111.215 4.53511C111.041 4.32515 110.737 4.24117 110.389 4.24117H109.216V6.29871ZM119.989 9.532H118.686V6.92857H116.036V9.532H114.733V3.2334H116.036V5.96279H118.686V3.2334H119.989V9.532Z" fill="#263238"/>
<path d="M39.8022 19.8619H38.9769V15.7048H37.5V15.0329H41.2791V15.7048H39.8022V19.8619ZM45.2754 19.8619H44.4501V17.5944C44.4501 17.3004 44.4067 17.0905 44.2764 16.9645C44.146 16.8385 43.9723 16.7546 43.7117 16.7546C43.3642 16.7546 43.147 16.8385 42.9732 17.0485C42.7995 17.2585 42.756 17.5524 42.7126 18.0143V19.8199H41.9307V14.697H42.7126V15.9987C42.7126 16.2087 42.7126 16.4186 42.7126 16.6706H42.756C42.756 16.6706 43.0167 16.3766 43.2338 16.2507C43.451 16.1667 43.6682 16.0827 43.9289 16.0827C44.8411 16.0827 45.3189 16.5446 45.3189 17.4264V19.8199L45.2754 19.8619ZM48.0555 19.9039C47.4474 19.9039 47.013 19.7359 46.6655 19.4C46.318 19.0641 46.1876 18.6022 46.1876 18.0143C46.1876 17.4264 46.3614 16.9645 46.6655 16.6286C46.9695 16.2927 47.4039 16.1247 47.9252 16.1247C48.403 16.1247 48.8374 16.2927 49.098 16.5866C49.4021 16.8805 49.5324 17.2585 49.5324 17.8043V18.2242H47.013C47.013 18.5602 47.1433 18.8541 47.317 19.0221C47.4908 19.232 47.7949 19.316 48.0989 19.316C48.3161 19.316 48.5333 19.316 48.7071 19.274C48.9243 19.274 49.098 19.148 49.3152 19.0641V19.6939C49.3152 19.6939 48.9243 19.8619 48.7071 19.9039C48.5333 19.9039 48.2727 19.9459 48.012 19.9459L48.0555 19.9039ZM47.9252 16.7126C47.6645 16.7126 47.4474 16.7966 47.317 16.9225C47.1867 17.0485 47.0998 17.3004 47.0564 17.5944H48.7505C48.7505 17.3004 48.6636 17.0485 48.5333 16.9225C48.403 16.7546 48.1858 16.7126 47.9252 16.7126ZM54.1368 16.7546H53.2246V19.8199H52.3993V16.7546H51.7912V16.3766L52.3993 16.1667V15.9567C52.3993 15.5368 52.4862 15.2009 52.7034 14.991C52.9206 14.781 53.2246 14.697 53.659 14.697C53.9196 14.697 54.2237 14.697 54.4843 14.823L54.2672 15.4109C54.2672 15.4109 53.8762 15.3269 53.7025 15.3269C53.5287 15.3269 53.3984 15.3689 53.3115 15.4948C53.2246 15.6208 53.1812 15.7468 53.1812 15.9567V16.1667H54.0934V16.7546H54.1368ZM57.4381 19.8199L57.3078 19.358C57.3078 19.358 57.0472 19.6519 56.83 19.7779C56.6128 19.8619 56.3956 19.9459 56.135 19.9459C55.6572 19.9459 55.3531 19.8199 55.0925 19.6099C54.8753 19.4 54.745 19.0641 54.745 18.6022V16.2087H55.5703V18.4762C55.5703 18.7701 55.6137 18.9381 55.7441 19.106C55.8744 19.232 56.0481 19.316 56.3088 19.316C56.6563 19.316 56.8735 19.232 57.0472 19.0221C57.221 18.8121 57.2644 18.5182 57.3078 18.0563V16.2087H58.1332V19.8619H57.4816L57.4381 19.8199ZM60.6091 19.232C60.6091 19.232 61.0001 19.232 61.2173 19.148V19.7359C61.2173 19.7359 61.0001 19.8199 60.8698 19.8199C60.7394 19.8199 60.6091 19.8199 60.4354 19.8199C59.6969 19.8199 59.306 19.442 59.306 18.6861V16.7126H58.7847V16.3766L59.3494 16.0827L59.6101 15.3269H60.0879V16.1247H61.1738V16.7126H60.0879V18.6861C60.0879 18.8961 60.0879 19.0221 60.2182 19.106C60.2616 19.19 60.4354 19.232 60.5657 19.232H60.6091ZM64.6055 19.8199L64.4751 19.358C64.4751 19.358 64.2145 19.6519 63.9973 19.7779C63.7801 19.8619 63.5629 19.9459 63.3023 19.9459C62.8245 19.9459 62.5204 19.8199 62.2598 19.6099C62.0426 19.4 61.9123 19.0641 61.9123 18.6022V16.2087H62.7376V18.4762C62.7376 18.7701 62.781 18.9381 62.9114 19.106C63.0417 19.232 63.2154 19.316 63.4761 19.316C63.8236 19.316 64.0408 19.232 64.2145 19.0221C64.3883 18.8121 64.4317 18.5182 64.4751 18.0563V16.2087H65.3005V19.8619H64.6489L64.6055 19.8199ZM68.2977 16.0827C68.2977 16.0827 68.6018 16.0827 68.6886 16.0827L68.6018 16.7966C68.6018 16.7966 68.3846 16.7966 68.2543 16.7966C67.9502 16.7966 67.6896 16.8805 67.4724 17.0905C67.2552 17.3004 67.1683 17.5524 67.1683 17.8883V19.7779H66.3864V16.1247H67.038L67.1249 16.7546C67.2552 16.5446 67.4289 16.3766 67.6027 16.2507C67.7764 16.1247 67.9936 16.0407 68.2543 16.0407L68.2977 16.0827ZM70.904 19.8619C70.2959 19.8619 69.8615 19.6939 69.514 19.358C69.1665 19.0221 69.0362 18.5602 69.0362 17.9723C69.0362 17.3844 69.2099 16.9225 69.514 16.5866C69.818 16.2507 70.2524 16.0827 70.7737 16.0827C71.2515 16.0827 71.6859 16.2507 71.9465 16.5446C72.2506 16.8385 72.3809 17.2165 72.3809 17.7623V18.1822H69.8615C69.8615 18.5182 69.9918 18.8121 70.1656 18.9801C70.3393 19.19 70.6434 19.274 70.9474 19.274C71.1646 19.274 71.3818 19.274 71.5556 19.232C71.7728 19.232 71.9465 19.106 72.1637 19.0221V19.6519C72.1637 19.6519 71.7728 19.8199 71.5556 19.8619C71.3384 19.8619 71.1212 19.9039 70.8606 19.9039L70.904 19.8619ZM70.7737 16.6706C70.5131 16.6706 70.2959 16.7546 70.1656 16.8805C69.9918 17.0485 69.9484 17.2585 69.9049 17.5524H71.599C71.599 17.2585 71.5121 17.0065 71.3818 16.8805C71.2081 16.7126 71.0343 16.6706 70.7737 16.6706ZM78.4623 17.9723C78.4623 18.5602 78.2885 19.0221 77.9844 19.358C77.6804 19.6939 77.246 19.8619 76.6813 19.8619C76.3338 19.8619 76.0297 19.7779 75.7256 19.6099C75.4216 19.442 75.2478 19.232 75.1175 18.9381C74.9872 18.6441 74.9003 18.3082 74.9003 17.9303C74.9003 17.3424 75.0741 16.8805 75.3781 16.5446C75.6822 16.2087 76.1166 16.0407 76.7247 16.0407C77.246 16.0407 77.6804 16.2087 78.0279 16.5446C78.3319 16.8805 78.5057 17.3424 78.5057 17.9303L78.4623 17.9723ZM75.7256 17.9723C75.7256 18.8121 76.0297 19.232 76.6813 19.232C77.3329 19.232 77.6369 18.8121 77.6369 17.9723C77.6369 17.1325 77.3329 16.7126 76.6813 16.7126C76.3338 16.7126 76.1166 16.8385 75.9428 17.0485C75.7691 17.2585 75.7256 17.5524 75.7256 17.9723ZM81.2857 16.7546H80.3735V19.8199H79.5482V16.7546H78.9401V16.3766L79.5482 16.1667V15.9567C79.5482 15.5368 79.6351 15.2009 79.8523 14.991C80.0695 14.781 80.3735 14.697 80.8079 14.697C81.0685 14.697 81.3726 14.697 81.6332 14.823L81.416 15.4109C81.416 15.4109 81.0251 15.3269 80.8514 15.3269C80.6776 15.3269 80.5473 15.3689 80.4604 15.4948C80.3735 15.5788 80.3301 15.7468 80.3301 15.9567V16.1667H81.2423V16.7546H81.2857ZM86.9327 19.8199H86.1074V17.5524C86.1074 17.2585 86.0639 17.0905 85.9336 16.9225C85.8467 16.7966 85.673 16.7126 85.4124 16.7126C85.1083 16.7126 84.8911 16.7966 84.7174 17.0065C84.587 17.2165 84.5002 17.5104 84.5002 17.9723V19.7779H83.7183V16.1247H84.3698L84.5002 16.5866C84.5002 16.5866 84.7608 16.2927 84.978 16.1667C85.1952 16.0827 85.4124 16.0407 85.6296 16.0407C86.1943 16.0407 86.5852 16.2507 86.8024 16.6286H86.8458C86.8458 16.6286 87.1065 16.2927 87.3236 16.2087C87.5408 16.1247 87.758 16.0407 88.0187 16.0407C88.4965 16.0407 88.8005 16.1667 89.0177 16.3766C89.2349 16.5866 89.3218 16.9225 89.3218 17.3844V19.7779H88.5399V17.5104C88.5399 17.2165 88.4965 17.0485 88.3662 16.8805C88.2358 16.7546 88.1055 16.6706 87.8449 16.6706C87.5408 16.6706 87.3237 16.7546 87.1499 16.9645C87.0196 17.1745 86.9327 17.4264 86.9327 17.8463V19.7779H86.8893L86.9327 19.8199ZM93.7959 17.9723C93.7959 18.5602 93.6222 19.0221 93.3181 19.358C93.0141 19.6939 92.5797 19.8619 92.015 19.8619C91.6675 19.8619 91.3634 19.7779 91.0593 19.6099C90.7987 19.442 90.5815 19.232 90.4512 18.9381C90.3209 18.6441 90.234 18.3082 90.234 17.9303C90.234 17.3424 90.4078 16.8805 90.7118 16.5446C91.0159 16.2087 91.4503 16.0407 92.0584 16.0407C92.5797 16.0407 93.0141 16.2087 93.3616 16.5446C93.6656 16.8805 93.8394 17.3424 93.8394 17.9303L93.7959 17.9723ZM91.0593 17.9723C91.0593 18.8121 91.3634 19.232 92.015 19.232C92.6665 19.232 92.9706 18.8121 92.9706 17.9723C92.9706 17.1325 92.6665 16.7126 92.015 16.7126C91.6675 16.7126 91.4503 16.8385 91.2765 17.0485C91.1028 17.2585 91.0593 17.5524 91.0593 17.9723ZM98.0529 19.8199H97.2276V17.5524C97.2276 17.2585 97.1841 17.0485 97.0538 16.9225C96.9235 16.7966 96.7497 16.7126 96.4891 16.7126C96.1416 16.7126 95.881 16.7966 95.7507 17.0065C95.6203 17.2165 95.5335 17.5104 95.5335 17.9723V19.7779H94.7516V16.1247H95.4032L95.5335 16.5866C95.5335 16.5866 95.7941 16.2927 96.0113 16.1667C96.2285 16.0827 96.4457 16.0407 96.7063 16.0407C97.6185 16.0407 98.0529 16.5026 98.0529 17.3844V19.7359V19.8199ZM100.833 19.8619C100.225 19.8619 99.7904 19.6939 99.4429 19.358C99.0954 19.0221 98.9651 18.5602 98.9651 17.9723C98.9651 17.3844 99.1388 16.9225 99.4429 16.5866C99.747 16.2507 100.181 16.0827 100.703 16.0827C101.18 16.0827 101.615 16.2507 101.875 16.5446C102.18 16.8385 102.31 17.2165 102.31 17.7623V18.1822H99.7904C99.7904 18.5182 99.9207 18.8121 100.094 18.9801C100.268 19.19 100.572 19.274 100.876 19.274C101.094 19.274 101.311 19.274 101.485 19.232C101.658 19.232 101.875 19.106 102.093 19.0221V19.6519C102.093 19.6519 101.702 19.8199 101.485 19.8619C101.267 19.8619 101.05 19.9039 100.789 19.9039L100.833 19.8619ZM100.659 16.6706C100.399 16.6706 100.181 16.7546 100.051 16.8805C99.8773 17.0485 99.8339 17.2585 99.7904 17.5524H101.485C101.485 17.2585 101.398 17.0065 101.267 16.8805C101.137 16.7126 100.92 16.6706 100.659 16.6706ZM102.484 16.1667H103.352L104.134 18.2242C104.265 18.5182 104.351 18.8121 104.351 19.0641C104.351 19.0641 104.395 18.8121 104.482 18.6022C104.525 18.4342 104.829 17.5944 105.351 16.1247H106.219L104.612 20.2398C104.308 20.9956 103.83 21.3735 103.135 21.3735C102.961 21.3735 102.788 21.3735 102.614 21.3315V20.7017C102.614 20.7017 102.875 20.7017 103.048 20.7017C103.439 20.7017 103.7 20.4917 103.874 20.0298L104.004 19.6939L102.44 16.0407L102.484 16.1667Z" fill="#263238"/>
</svg>
