<svg width="110" height="25" viewBox="0 0 110 25" fill="none" xmlns="http://www.w3.org/2000/svg">
<path d="M19.2274 12.5L12.9774 18.75H25.4774L19.2274 12.5Z" fill="#0F0717"/>
<path d="M19.2274 12.5L25.4774 6.25H12.9774L19.2274 12.5Z" fill="#0F0718"/>
<path d="M6.7298 12.5L0.479797 6.25V18.75L6.7298 12.5Z" fill="#F14C8F"/>
<path d="M12.9813 6.25L19.2313 9.53674e-07H6.73132L12.9813 6.25Z" fill="#5E0150"/>
<path d="M19.2274 25L25.4774 18.75H12.9774L19.2274 25Z" fill="#2E0970"/>
<path d="M6.7298 25L12.9798 18.75H0.479797L6.7298 25Z" fill="#C30035"/>
<path d="M19.2274 9.53674e-07L12.9774 6.25H25.4774L19.2274 9.53674e-07Z" fill="#2E0970"/>
<path d="M0.479797 6.25H12.9798L6.7298 9.53674e-07L0.479797 6.25Z" fill="#C30035"/>
<path d="M12.9813 18.75L6.73132 25H19.2313L12.9813 18.75Z" fill="#5E0150"/>
<path d="M6.7298 12.5L0.479797 18.75H12.9798L6.7298 12.5Z" fill="#D7186A"/>
<path d="M12.9798 6.25H0.479797L6.7298 12.5L12.9798 6.25Z" fill="#D7186A"/>
<path d="M32.7241 14.7875C33.0679 14.7875 33.3241 14.6938 33.4929 14.5063C33.6554 14.3188 33.7429 14.0438 33.7429 13.6813H36.0804L36.0991 13.725C36.1221 14.1367 36.05 14.5481 35.8885 14.9274C35.727 15.3067 35.4805 15.6438 35.1679 15.9125C34.4893 16.4884 33.6197 16.7894 32.7304 16.7563C31.4804 16.7563 30.5241 16.3688 29.8554 15.5938C29.1541 14.7531 28.7909 13.6814 28.8366 12.5875V12.4125C28.8366 11.1875 29.1741 10.1875 29.8491 9.41255C30.5179 8.63755 31.4741 8.25005 32.7054 8.25005C33.7429 8.25005 34.5741 8.53755 35.1929 9.1188C35.5086 9.42419 35.7534 9.79518 35.91 10.2056C36.0666 10.616 36.1311 11.0557 36.0991 11.4938L36.0804 11.5375H33.7429C33.7571 11.1992 33.6653 10.8649 33.4804 10.5813C33.3116 10.3375 33.0491 10.2188 32.7054 10.2188C32.2179 10.2188 31.8804 10.4188 31.6866 10.8125C31.4708 11.3174 31.3704 11.864 31.3929 12.4125V12.5875C31.3929 13.275 31.4866 13.8125 31.6866 14.2C31.8741 14.5875 32.2241 14.7875 32.7241 14.7875ZM41.7804 10.6563L40.8429 10.65C40.5554 10.65 40.3116 10.7 40.1241 10.7938C39.9366 10.8938 39.7991 11.0313 39.7116 11.2188V16.5938H37.1491V8.40005H39.5616L39.6491 9.60005C39.7927 9.21531 40.0288 8.87186 40.3366 8.60005C40.613 8.36848 40.9636 8.24423 41.3241 8.25005C41.5623 8.24919 41.7996 8.2786 42.0304 8.33755L41.7804 10.6563ZM46.6429 12.9813V13.0438H46.6929L48.0491 8.40005H50.7741L47.5116 17.8125C47.2616 18.4188 46.9304 18.9188 46.5366 19.3125C46.1366 19.7063 45.4991 19.9063 44.6304 19.9063C44.4116 19.9063 44.2304 19.8938 44.0866 19.8625C43.9491 19.8375 43.7241 19.7875 43.4241 19.7125L43.7366 17.8875L43.8929 17.925L44.0241 17.9375C44.4304 17.9375 44.7241 17.875 44.9116 17.7563C45.0991 17.6375 45.2366 17.4563 45.3304 17.2188L45.5366 16.6875L42.6991 8.40005H45.4179L46.6429 12.9813ZM56.4866 12.5125C56.4866 11.825 56.3804 11.2625 56.1741 10.8438C55.9741 10.425 55.6554 10.2188 55.2116 10.2188C54.9179 10.2188 54.6741 10.2688 54.4804 10.375C54.2804 10.4813 54.1179 10.6375 54.0054 10.8375V14.2625C54.1304 14.4375 54.2866 14.575 54.4866 14.6563C54.7215 14.7471 54.9724 14.7896 55.2241 14.7813C55.6741 14.7813 55.9929 14.5938 56.1866 14.225C56.4089 13.7377 56.5097 13.2037 56.4804 12.6688V12.5125H56.4866ZM59.0366 12.6688C59.0366 13.9063 58.7554 14.8938 58.1991 15.6375C57.9304 16.0023 57.576 16.2951 57.1673 16.4903C56.7585 16.6854 56.3079 16.7768 55.8554 16.7563C55.4986 16.7661 55.1447 16.6908 54.823 16.5364C54.5012 16.3821 54.2209 16.1532 54.0054 15.8688V19.7438H51.4429V8.40005H53.8366L53.9304 9.30005C54.1259 8.97126 54.4057 8.70062 54.7408 8.51604C55.0759 8.33146 55.4542 8.23964 55.8366 8.25005C56.8554 8.25005 57.6366 8.63755 58.1991 9.4188C58.7947 10.3372 59.0876 11.4191 59.0366 12.5125V12.6688ZM63.1929 6.36255V8.40005H64.5804V10.1688H63.1929V13.9313C63.1929 14.2188 63.2554 14.4313 63.3679 14.5563C63.429 14.6223 63.5036 14.6743 63.5866 14.7089C63.6697 14.7434 63.7592 14.7596 63.8491 14.7563C64.101 14.7564 64.3522 14.7313 64.5991 14.6813L64.7741 16.575C64.2603 16.6986 63.7338 16.7615 63.2054 16.7625C62.3616 16.7563 61.7241 16.5313 61.2929 16.075C60.8554 15.6313 60.6366 14.9188 60.6366 13.95V10.1688H59.4866V8.40005H60.6366V6.36255H63.1929ZM67.7741 12.5813C67.7741 13.2688 67.8804 13.8063 68.0991 14.2C68.3116 14.5875 68.6741 14.7813 69.1929 14.7813C69.6929 14.7813 70.0491 14.5875 70.2679 14.1938C70.4866 13.8 70.5928 13.2563 70.5928 12.5813V12.4188C70.6171 11.8669 70.5055 11.3175 70.2679 10.8188C70.0491 10.4188 69.6866 10.2188 69.1741 10.2188C68.6741 10.2188 68.3116 10.4188 68.0991 10.825C67.8804 11.225 67.7741 11.7625 67.7741 12.4188V12.5813ZM65.2116 12.4188C65.1653 11.3195 65.5409 10.244 66.2616 9.41255C66.9554 8.63755 67.9304 8.2438 69.1804 8.2438C70.4304 8.2438 71.4054 8.63755 72.0991 9.41255C72.8181 10.2449 73.1935 11.3197 73.1491 12.4188V12.5813C73.1491 13.8188 72.7991 14.825 72.0991 15.5938C71.4054 16.3688 70.4366 16.7563 69.1929 16.7563C67.9366 16.7563 66.9554 16.3688 66.2554 15.5938C65.5388 14.7582 65.1677 13.6809 65.2179 12.5813V12.4188H65.2116ZM76.6304 8.40005L76.7304 9.55005C76.9991 9.1438 77.3304 8.8188 77.7241 8.5938C78.1228 8.36337 78.5762 8.24463 79.0366 8.25005C79.8428 8.25005 80.4741 8.5063 80.9241 9.02505C81.3741 9.55005 81.5991 10.375 81.5991 11.5125V16.5938H79.0366V11.5063C79.0366 11.0375 78.9429 10.7 78.7491 10.5063C78.5554 10.3188 78.2678 10.2188 77.8866 10.2188C77.6775 10.2122 77.4696 10.2526 77.2781 10.337C77.0867 10.4214 76.9166 10.5475 76.7804 10.7063V16.5938H74.2366V8.40005H76.6366H76.6304ZM86.5554 10.2188C86.1866 10.2188 85.9116 10.3438 85.7241 10.6125C85.5366 10.875 85.4304 11.225 85.3866 11.6625L85.4116 11.7H87.6179V11.5063C87.6179 11.0875 87.5304 10.775 87.3616 10.55C87.1866 10.325 86.9241 10.2188 86.5554 10.2188ZM86.7428 16.7563C85.5303 16.7563 84.5679 16.3813 83.8491 15.6188C83.4899 15.2385 83.2095 14.7909 83.0239 14.3017C82.8384 13.8126 82.7514 13.2917 82.7678 12.7688V12.4813C82.7678 11.2313 83.0929 10.2125 83.7491 9.42505C84.4054 8.63755 85.3366 8.23755 86.5554 8.25005C87.6679 8.25005 88.5366 8.5813 89.1679 9.25005C89.827 9.99271 90.1682 10.9646 90.1179 11.9563V13.3H85.4304L85.4179 13.3438C85.4804 13.7625 85.6429 14.1125 85.9366 14.3813C86.2241 14.65 86.6054 14.7875 87.0866 14.7875C87.8714 14.8053 88.6485 14.6293 89.3491 14.275L89.9553 15.8375C89.5326 16.132 89.0637 16.3539 88.5678 16.4938C87.9991 16.6688 87.3866 16.7563 86.7366 16.7563M98.2366 13.15H98.2803L99.1679 8.40005H101.53L99.6053 16.5938H97.4429L96.1054 12.25H96.0616L94.7241 16.5938H92.5616L90.6303 8.40005H92.9929L93.8929 13.1875H93.9428L95.2741 8.40005H96.8866L98.2366 13.15ZM106.718 14.2938C106.718 14.0938 106.605 13.9125 106.374 13.75C105.986 13.5348 105.563 13.3909 105.124 13.325C104.344 13.211 103.602 12.9109 102.962 12.45C102.723 12.2564 102.534 12.0097 102.408 11.7298C102.282 11.4498 102.223 11.1442 102.237 10.8375C102.236 10.4822 102.318 10.1316 102.475 9.81296C102.632 9.49429 102.861 9.21612 103.143 9.00005C103.749 8.50005 104.574 8.25005 105.605 8.25005C106.699 8.25005 107.568 8.4938 108.212 8.9813C108.514 9.19044 108.759 9.47382 108.92 9.8043C109.082 10.1348 109.157 10.5013 109.137 10.8688L109.124 10.9125H106.637C106.637 10.5938 106.555 10.35 106.387 10.1813C106.224 10.0125 105.962 9.9313 105.599 9.9313C105.33 9.9313 105.105 10 104.924 10.15C104.837 10.2164 104.768 10.3026 104.722 10.4014C104.675 10.5001 104.653 10.6086 104.658 10.7176C104.662 10.8267 104.692 10.9331 104.746 11.0279C104.8 11.1227 104.876 11.2032 104.968 11.2625C105.361 11.4765 105.792 11.6144 106.237 11.6688C107.038 11.7847 107.8 12.0889 108.462 12.5563C108.703 12.7583 108.893 13.0138 109.018 13.3024C109.143 13.5911 109.198 13.9049 109.18 14.2188C109.18 14.9563 108.855 15.5625 108.199 16.0375C107.434 16.5485 106.525 16.8004 105.605 16.7563C104.493 16.7563 103.605 16.4688 102.962 15.9063C102.312 15.3438 101.999 14.7063 102.03 14.0125L102.049 13.9688H104.362C104.374 14.3563 104.487 14.6375 104.718 14.8063C104.943 14.9813 105.262 15.0625 105.674 15.0625C106.018 15.0625 106.28 15 106.455 14.8625C106.63 14.7313 106.718 14.5375 106.718 14.2938Z" fill="#151011"/>
</svg>
