<svg width="150" height="23" viewBox="0 0 150 23" fill="none" xmlns="http://www.w3.org/2000/svg">
<path d="M24.3767 10.3908C24.3767 8.51026 24.3767 6.69057 24.3767 4.83691C25.4857 4.83691 26.5298 4.83691 27.6551 4.83691C27.6551 5.06586 27.6551 5.28083 27.6551 5.49581C27.6551 7.76743 27.6487 10.0391 27.6586 12.3107C27.6622 13.1246 27.7841 13.9329 28.5809 14.3651C29.4526 14.8379 30.3543 14.7334 31.192 14.2392C31.9904 13.7683 32.2501 12.997 32.2509 12.1147C32.2529 9.92416 32.2517 7.73366 32.2518 5.54317C32.2518 5.3233 32.2518 5.10343 32.2518 4.84309C33.3441 4.84309 34.3891 4.84309 35.4802 4.84309C35.4958 4.99125 35.5261 5.14602 35.5262 5.30082C35.5287 9.337 35.5431 13.3733 35.5227 17.4094C35.5082 20.289 33.9531 22.3142 31.2634 22.8368C30.0419 23.0742 28.7706 23.0771 27.5492 22.6814C25.4873 22.0134 24.1542 19.9533 24.4416 17.8622C24.5094 17.8502 24.5857 17.8251 24.6622 17.8248C25.553 17.8221 26.4438 17.8231 27.3632 17.8231C27.3927 17.9386 27.4205 18.03 27.4391 18.1234C27.7309 19.5814 28.4927 20.1949 29.9805 20.1684C31.1549 20.1475 32.0099 19.3471 32.1759 17.9906C32.2624 17.2834 32.1911 16.5569 32.1911 15.8293C30.7196 17.4606 28.9138 17.6549 26.9922 16.9099C25.2321 16.2274 24.4589 14.7816 24.3829 12.9461C24.3486 12.116 24.3768 11.2832 24.3767 10.3908Z" fill="#FFD425"/>
<path d="M10.2993 17.5223C7.90397 17.9871 5.68445 17.7366 3.72254 16.2612C1.90646 14.8955 1.08504 12.9618 0.800058 10.7842C0.556181 8.92067 0.651216 7.06358 1.22492 5.25381C2.32792 1.77436 4.89567 -0.0245037 8.54058 0.000252091C10.772 0.0154101 12.6692 0.682162 14.1273 2.41041C14.973 3.41287 15.4208 4.58886 15.5723 5.98526C14.455 5.98526 13.3707 5.99862 12.2878 5.9663C12.1687 5.96275 12.0141 5.71448 11.9491 5.55067C11.1591 3.55702 9.51423 2.64488 7.44809 3.08456C6.09529 3.37243 5.2218 4.24362 4.7829 5.50347C4.00446 7.73799 4.00859 10.0097 4.79419 12.2374C5.39446 13.9395 6.67724 14.7219 8.51477 14.6731C10.1668 14.6292 11.3734 13.7237 11.8892 12.0266C12.0483 11.5031 12.2902 11.3883 12.7792 11.4065C13.6848 11.4403 14.5926 11.4162 15.5061 11.4162C15.1732 14.3301 13.1043 16.8651 10.2993 17.5223Z" fill="#FFD425"/>
<path d="M40.4253 5.90225C42.3763 3.73114 45.9852 4.09547 47.7077 6.62393C48.8361 8.28042 49.053 10.1584 48.8805 12.0993C48.764 13.4106 48.406 14.652 47.5793 15.7096C45.8059 17.9782 42.5324 18.1189 40.5486 16.0158C40.4692 15.9317 40.4384 15.8017 40.385 15.6931C40.3265 15.7298 40.268 15.7664 40.2094 15.8031C40.2094 18.1604 40.2094 20.5176 40.2094 22.9203C39.1198 22.9203 38.0944 22.9203 37.0292 22.9203C37.0292 16.8924 37.0292 10.8981 37.0292 4.85329C38.0258 4.85329 39.0281 4.85329 40.1102 4.85329C40.125 5.18209 40.1364 5.53681 40.1671 5.88986C40.169 5.91265 40.3186 5.92264 40.4253 5.90225ZM41.3556 14.2915C42.684 15.0274 44.2643 14.7371 44.9942 13.6229C45.8854 12.2626 45.79 9.46641 44.8083 8.17825C43.7564 6.79788 41.8018 6.7933 40.8312 8.2363C40.4716 8.77086 40.1973 9.44456 40.1335 10.0799C39.982 11.5871 40.0203 13.0978 41.3556 14.2915Z" fill="#FFD425"/>
<path d="M51.684 16.4187C50.539 15.4348 50.1068 14.157 50.0923 12.7594C50.0544 9.08949 50.0792 5.41896 50.081 1.74869C50.081 1.69088 50.1054 1.63309 50.1283 1.53149C51.1665 1.53149 52.2056 1.53149 53.3113 1.53149C53.3113 2.60955 53.3113 3.67327 53.3113 4.7864C55.599 4.7864 57.8213 4.7864 60.0922 4.7864C60.0922 5.57127 60.0922 6.30643 60.0922 7.09633C57.8667 7.09633 55.6452 7.09633 53.472 7.09633C53.397 7.17885 53.3475 7.20791 53.3474 7.2371C53.342 9.08126 53.2769 10.9283 53.3592 12.7687C53.4243 14.2228 54.4725 14.9302 55.7659 14.5644C56.4734 14.3642 56.8768 13.8709 56.969 13.1844C57.0682 12.4456 57.0675 11.6923 57.0892 10.9447C57.1067 10.3395 57.0928 9.73329 57.0928 9.08165C58.1096 9.08165 59.0884 9.08165 60.2158 9.08165C60.1343 10.7251 60.2042 12.3795 59.9341 13.9763C59.608 15.9038 58.2784 17.0657 56.3472 17.3786C54.7124 17.6434 53.1044 17.5295 51.684 16.4187Z" fill="#FFD425"/>
<path d="M66.4912 4.55347C67.4504 4.58851 68.3774 4.51823 69.2575 4.68925C71.2798 5.08226 72.673 6.31417 73.3874 8.24629C74.0263 9.97446 74.0482 11.7473 73.4638 13.4917C72.7292 15.6845 71.1805 17.0121 68.9 17.3642C66.4693 17.7395 64.2241 17.3316 62.5822 15.2954C61.2931 13.6966 61.0204 11.7929 61.3129 9.82898C61.7689 6.76609 63.3988 5.14018 66.4912 4.55347ZM64.6251 10.4695C64.7098 11.2904 64.6916 12.139 64.9033 12.9258C65.229 14.1365 66.2072 14.7445 67.5362 14.7572C68.9003 14.7702 69.8412 14.1517 70.2616 12.9475C70.6392 11.8663 70.6484 10.7525 70.4347 9.64724C70.127 8.05622 69.1554 7.25678 67.6147 7.24733C66.016 7.23751 65.0817 8.00536 64.7258 9.63297C64.6741 9.86896 64.6612 10.1134 64.6251 10.4695Z" fill="#FFD425"/>
<path d="M19.4106 5.90037C19.5416 5.8885 19.7007 5.85926 19.7802 5.76376C20.7403 4.61083 22.0248 4.42435 23.4546 4.49328C23.4546 5.59913 23.4546 6.67798 23.4546 7.77438C23.1001 7.77438 22.761 7.76505 22.4226 7.77592C20.5391 7.83641 19.6232 8.78363 19.6151 10.6943C19.607 12.6009 19.613 14.5075 19.6129 16.4141C19.6129 16.636 19.6129 16.8579 19.6129 17.1294C18.5202 17.1294 17.4615 17.1294 16.368 17.1294C16.368 13.0413 16.368 8.97215 16.368 4.85248C17.3445 4.85248 18.3243 4.85248 19.4018 4.85248C19.4018 5.18053 19.4018 5.51637 19.4106 5.90037Z" fill="#FFD425"/>
<path d="M78.3781 17.0307C77.2259 17.0859 76.0858 17.0859 74.9154 17.0859C74.9154 11.6036 74.9154 6.09997 74.9154 0.552982C75.0521 0.537848 75.1855 0.510339 75.3189 0.51019C77.6294 0.507618 79.9398 0.509217 82.2503 0.508301C86.8744 0.50647 88.5701 5.08128 87.074 8.29929C86.1742 10.2349 84.5135 11.0398 82.4643 11.1115C81.1321 11.1581 79.7969 11.1203 78.3902 11.1203C78.3902 13.0994 78.3902 15.0375 78.3781 17.0307ZM84.168 7.19012C85.0373 5.42972 84.2938 3.66269 82.5044 3.48558C81.1661 3.35314 79.8042 3.45946 78.4397 3.45946C78.4397 5.04468 78.4397 6.64602 78.4397 8.2804C79.4971 8.2804 80.5071 8.28081 81.5171 8.27997C81.679 8.27983 81.8416 8.2831 82.0026 8.26934C82.8318 8.19846 83.6024 7.99958 84.168 7.19012Z" fill="black"/>
<path d="M118.869 9.64095C119.253 9.54709 119.594 9.4848 119.916 9.36816C120.373 9.20238 120.638 8.88023 120.651 8.36303C120.664 7.85168 120.418 7.51872 119.992 7.29182C118.468 6.47827 116.824 7.14804 116.329 8.80304C115.351 8.80304 114.366 8.80304 113.384 8.80304C113.169 7.03861 114.227 5.44898 116.046 4.87036C117.665 4.35517 119.323 4.33905 120.963 4.75283C122.744 5.20202 123.794 6.35287 123.903 8.17782C124.029 10.2987 123.99 12.4297 124.015 14.5564C124.025 15.4035 124.017 16.2508 124.017 17.1738C123.042 17.1738 122.116 17.1834 121.192 17.1607C121.085 17.1581 120.937 16.994 120.888 16.8726C120.805 16.6709 120.787 16.4431 120.726 16.1501C119.473 17.2802 118.004 17.5613 116.416 17.4654C114.492 17.3492 113.171 16.3228 112.959 14.746C112.652 12.4575 113.494 10.8925 115.487 10.3011C116.566 9.98075 117.705 9.8594 118.869 9.64095ZM116.297 13.0959C115.958 14.5404 116.539 15.2307 118.015 15.1368C119.921 15.0156 121.034 13.3894 120.674 11.3397C119.8 11.551 118.919 11.7502 118.046 11.9795C117.381 12.1542 116.704 12.3304 116.297 13.0959Z" fill="black"/>
<path d="M110.767 7.12157C108.866 7.12159 107.024 7.12159 105.128 7.12159C105.115 7.36098 105.096 7.55515 105.096 7.74936C105.094 9.18858 105.091 10.6278 105.098 12.067C105.099 12.3699 105.123 12.6748 105.165 12.9748C105.317 14.0697 105.945 14.6458 106.969 14.6463C108.01 14.6467 108.703 14.0364 108.812 12.937C108.88 12.2537 108.851 11.5605 108.858 10.8716C108.864 10.287 108.86 9.70235 108.86 9.07647C109.884 9.07647 110.866 9.07647 111.982 9.07647C111.909 10.6883 111.974 12.3194 111.73 13.9027C111.419 15.9143 109.882 17.2153 107.846 17.423C107.128 17.4962 106.377 17.493 105.669 17.3675C103.433 16.9713 101.988 15.4831 101.93 13.2253C101.829 9.33951 101.902 5.4492 101.902 1.52222C102.958 1.52222 104.001 1.52222 105.089 1.52222C105.089 2.60167 105.089 3.67127 105.089 4.79759C107.374 4.79759 109.616 4.79759 111.885 4.79759C111.885 5.59669 111.885 6.33807 111.885 7.12156C111.512 7.12156 111.169 7.12156 110.767 7.12157Z" fill="black"/>
<path d="M132.283 13.3424C132.362 11.9021 132.426 10.5091 132.492 9.07413C133.438 9.07413 134.418 9.07413 135.541 9.07413C135.462 10.7147 135.53 12.3687 135.267 13.9679C134.942 15.9393 133.45 17.1819 131.446 17.417C130.729 17.5011 129.975 17.5035 129.266 17.3828C126.856 16.9727 125.484 15.384 125.435 12.7891C125.366 9.09872 125.417 5.40611 125.419 1.71446C125.419 1.6578 125.448 1.60116 125.472 1.51514C126.501 1.51514 127.529 1.51514 128.63 1.51514C128.63 2.58767 128.63 3.6682 128.63 4.78908C130.928 4.78908 133.152 4.78908 135.422 4.78908C135.422 5.56661 135.422 6.30342 135.422 7.10839C133.191 7.10839 130.953 7.10839 128.65 7.10839C128.65 8.52706 128.644 9.87966 128.653 11.2321C128.657 11.8395 128.634 12.4558 128.727 13.0517C128.883 14.0547 129.421 14.5535 130.293 14.6386C131.256 14.7325 131.874 14.3417 132.283 13.3424Z" fill="black"/>
<path d="M148.518 7.33868C149.599 9.42038 149.675 11.5478 148.941 13.682C148.297 15.552 146.959 16.7991 145.02 17.2369C142.416 17.8248 139.983 17.5174 138.159 15.3234C136.237 13.012 136.3 8.84869 138.235 6.54754C139.423 5.13426 141.009 4.55461 142.804 4.49994C145.187 4.42737 147.191 5.16446 148.518 7.33868ZM145.932 12.5892C145.933 11.5256 146.064 10.4417 145.903 9.40321C145.684 7.99321 144.628 7.26416 143.162 7.25092C141.676 7.23749 140.715 7.93702 140.347 9.33226C140.046 10.4701 140.058 11.6187 140.371 12.7502C140.616 13.6365 141.143 14.2977 142.055 14.5926C143.817 15.1626 145.303 14.4272 145.932 12.5892Z" fill="black"/>
<path d="M95.1161 4.52437C98.268 4.77498 100.471 6.95363 100.643 10.0856C100.701 11.1603 100.639 12.2966 100.348 13.3247C99.6541 15.779 97.895 17.1353 95.3857 17.415C94.4758 17.5164 93.5086 17.46 92.613 17.266C90.0825 16.7177 88.3394 14.6494 88.1574 12.0005C88.0901 11.0221 88.1121 9.9984 88.3247 9.04707C88.9764 6.13158 91.3358 4.44435 94.5162 4.48839C94.6983 4.49091 94.8802 4.50922 95.1161 4.52437ZM97.3632 10.0289C97.3285 9.84986 97.2981 9.66986 97.2584 9.49195C96.9354 8.04536 95.9845 7.27537 94.4943 7.25159C92.9811 7.22744 92.0249 7.93203 91.6462 9.3766C91.3632 10.4561 91.3683 11.5438 91.6501 12.6231C92.0205 14.0414 92.9693 14.7594 94.4377 14.7551C95.92 14.7507 96.9487 13.9941 97.2269 12.5551C97.3787 11.7696 97.3317 10.9456 97.3632 10.0289Z" fill="black"/>
<path d="M142.657 12.7581C141.271 12.255 140.972 9.79526 142.186 8.74057C142.715 8.28062 143.484 8.29425 144.013 8.76239C144.98 9.61893 145.001 11.5628 144.046 12.4357C143.663 12.7864 143.215 12.9205 142.657 12.7581Z" fill="black"/>
<path d="M66.4914 9.07061C67.3893 8.31901 68.3198 8.45746 68.8499 9.43047C69.3619 10.3704 69.3625 11.3435 68.7864 12.2591C68.1356 13.2935 66.9117 13.2655 66.2585 12.2302C65.6696 11.2969 65.7487 10.0738 66.4914 9.07061Z" fill="black"/>
</svg>
