<svg width="23" height="28" viewBox="0 0 23 28" fill="none" xmlns="http://www.w3.org/2000/svg">
<g clip-path="url(#clip0_1621_802)">
<path fill-rule="evenodd" clip-rule="evenodd" d="M13.8563 9.97416C14.6939 9.54707 15.7597 8.91837 16.8267 8.057C17.0517 8.53477 17.0763 8.95169 16.9604 9.28835C16.8783 9.5256 16.7235 9.73196 16.52 9.89613C16.2995 10.0736 16.0243 10.2027 15.72 10.2725C15.1426 10.4055 14.4685 10.3279 13.8563 9.97416ZM14.0015 14.3502L15.1103 15.0051C12.8464 16.3026 12.231 18.7119 11.4999 21.0586C10.7689 18.7119 10.1534 16.3026 7.88966 15.0051L8.99841 14.3502C9.10566 14.3087 9.19734 14.2336 9.26029 14.1356C9.32325 14.0376 9.35426 13.9218 9.34888 13.8047C9.2473 11.6069 9.82759 10.6351 10.6103 10.0248C10.8911 9.80625 11.1976 9.69649 11.4999 9.69649C11.8023 9.69649 12.1088 9.80625 12.3896 10.0248C13.1724 10.6351 13.7527 11.6069 13.6511 13.8047C13.6457 13.9218 13.6767 14.0376 13.7397 14.1356C13.8026 14.2336 13.8943 14.3087 14.0015 14.3502ZM11.4999 0C12.7815 0.0351867 14.0663 0.289613 15.1814 0.78456C15.9535 1.12775 16.674 1.58107 17.3264 2.12315C17.621 2.36787 17.8636 2.60428 18.1309 2.87644C18.8516 2.90192 19.905 2.08311 20.394 1.31693C19.5524 4.1384 15.7119 7.47031 13.0532 8.74524C13.0521 8.74477 13.0513 8.74412 13.0505 8.74356C12.5734 8.37097 12.0367 8.18468 11.4999 8.18468C10.9632 8.18468 10.4266 8.37097 9.94944 8.74356C9.94862 8.74403 9.94789 8.74487 9.94679 8.74524C7.28792 7.47031 3.44756 4.1384 2.60596 1.31693C3.09489 2.08311 4.14823 2.90192 4.86899 2.87644C5.13632 2.60437 5.37892 2.36787 5.67345 2.12315C6.32584 1.58107 7.04633 1.12775 7.81847 0.78456C8.9336 0.289613 10.2184 0.0351867 11.4999 0ZM9.14352 9.97416C8.30603 9.54707 7.24018 8.91837 6.17324 8.057C5.94826 8.53477 5.92362 8.95169 6.03944 9.28835C6.12167 9.5256 6.27647 9.73196 6.47991 9.89613C6.70041 10.0736 6.97568 10.2027 7.27998 10.2725C7.85735 10.4055 8.53138 10.3279 9.14352 9.97416Z" fill="#ffffff"/>
<path fill-rule="evenodd" clip-rule="evenodd" d="M17.9954 7.00149C18.5828 6.39529 19.1004 5.72432 19.5166 5.12559L19.728 5.53243C20.4085 6.92468 20.7621 8.31133 20.7621 9.87187L20.7606 12.3482L20.7734 13.6319C20.8227 16.7834 21.4895 19.9719 23 22.8899L19.8396 20.2839L17.6034 23.9947L15.2541 21.7331L11.5 27.963L7.74589 21.7332L5.39669 23.9948L3.16049 20.2839L0 22.89C1.51052 19.972 2.17733 16.7835 2.22671 13.632L2.23949 12.3483L2.23803 9.87196C2.23803 8.31133 2.59152 6.92468 3.27221 5.53252L3.4835 5.12568C3.89969 5.72441 4.41719 6.39529 5.00469 7.00159L4.82124 7.39125C4.46483 8.14809 4.34682 8.99435 4.62446 9.79916C4.80344 10.3175 5.1301 10.7621 5.55121 11.1014C5.9601 11.431 6.44402 11.6531 6.95065 11.7698C7.28069 11.8458 7.61692 11.877 7.95097 11.8664C7.87303 12.3182 7.83898 12.7869 7.83679 13.2643L4.85556 15.0252L7.1561 16.3439C7.33998 16.4493 7.51502 16.5701 7.67944 16.705C9.57612 18.4464 10.7164 23.5981 11.5001 26.1145C12.2838 23.5981 13.4241 18.4464 15.3208 16.705C15.4852 16.5701 15.6603 16.4493 15.8442 16.3439L18.1447 15.0252L15.1634 13.2643C15.1612 12.7869 15.1272 12.3182 15.0492 11.8664C15.3833 11.877 15.7195 11.8458 16.0495 11.7698C16.5562 11.6531 17.0402 11.431 17.449 11.1014C17.87 10.7621 18.1967 10.3175 18.3756 9.79916C18.6534 8.99435 18.5353 8.14819 18.1789 7.39125L17.9955 7.00159L17.9954 7.00149Z" fill="#ffffff"/>
</g>
<defs>
<clipPath id="clip0_1621_802">
<rect width="23" height="28" fill="white"/>
</clipPath>
</defs>
</svg>
