<svg width="25" height="24" viewBox="0 0 25 24" fill="none" xmlns="http://www.w3.org/2000/svg">
<rect x="1.06997" y="0.35" width="23.3" height="23.3" rx="11.65" fill="white"/>
<rect x="1.06997" y="0.35" width="23.3" height="23.3" rx="11.65" stroke="#DFE6EB" stroke-width="0.7"/>
<g clip-path="url(#clip0_2195_6914)">
<path fill-rule="evenodd" clip-rule="evenodd" d="M11.538 6.68901C10.7942 7.06339 10.1857 7.38019 10.1858 7.39307C10.1862 7.42633 11.971 8.29971 12.0343 8.29758C12.0632 8.29665 12.2722 8.20367 12.4989 8.09098L12.911 7.88614L13.3612 8.10971L13.8113 8.33332L14.5485 8.01327C15.6593 7.531 15.7746 7.47815 15.7566 7.46039C15.7326 7.43683 15.3342 7.23003 14.2532 6.68019C13.7308 6.41444 13.2238 6.15389 13.1265 6.10116C13.0292 6.04844 12.9362 6.00603 12.92 6.00685C12.9038 6.00767 12.2819 6.31464 11.538 6.68901ZM8.2757 8.3213L7.5014 8.70774V10.4038C7.5014 11.3366 7.51156 12.0998 7.52404 12.0998C7.53646 12.0998 7.91742 11.9402 8.37059 11.7452L9.19453 11.3906V9.6029L9.59716 9.81485C9.90742 9.97803 10.2179 10.1409 10.5285 10.3034L11.0572 10.58L11.2925 10.4772C11.44 10.4126 11.5873 10.3474 11.7342 10.2816C11.8478 10.2305 12.1265 10.1092 12.3536 10.012C12.5808 9.9147 12.791 9.8169 12.8208 9.7946C12.8604 9.76499 12.3775 9.50715 11.0347 8.84088C10.0225 8.33865 9.16186 7.92934 9.12217 7.9313C9.08248 7.93326 8.70157 8.10874 8.2757 8.3213ZM15.8961 8.42982C15.3688 8.65985 14.9369 8.85725 14.9364 8.8685C14.936 8.87975 15.2234 9.04487 15.5752 9.2354C15.927 9.42596 16.2148 9.59206 16.2148 9.60457C16.2148 9.61705 15.9035 9.76278 15.5231 9.92848C15.1426 10.0941 14.181 10.5138 13.386 10.861L10.7225 12.0243C10.0524 12.3169 9.44849 12.5807 9.38036 12.6105C8.01181 13.2091 7.63565 13.3752 7.58399 13.4038C7.53204 13.4325 7.52028 13.5992 7.51103 14.4362L7.5 15.4346L8.19241 15.7754L8.88481 16.1163L9.84493 15.6976C10.373 15.4674 10.805 15.2669 10.805 15.2522C10.805 15.2374 10.7075 15.176 10.5883 15.1156C10.469 15.0552 10.2228 14.9214 10.0411 14.8183C9.85939 14.7152 9.67822 14.6206 9.63845 14.608C9.59868 14.5955 9.56673 14.5736 9.56738 14.5594C9.56804 14.5451 9.99083 14.3511 10.5069 14.1281C11.5091 13.6951 12.2762 13.3614 13.9229 12.6419C14.6592 12.3202 15.3957 11.9987 16.1322 11.6775C16.7795 11.3952 17.5321 11.0654 17.8047 10.9448L18.3002 10.7254L18.3112 9.71571L18.3223 8.70608L17.62 8.35779C17.2338 8.16625 16.9036 8.01 16.8863 8.01057C16.869 8.0111 16.4234 8.19974 15.8961 8.42982ZM18.1121 12.0723C18.0086 12.1212 17.8042 12.2126 17.6578 12.2755C17.5115 12.3384 17.2338 12.4595 17.0407 12.5446L16.6897 12.6993L16.6817 13.5857C16.6772 14.0732 16.6587 14.4699 16.6404 14.4674C16.5988 14.4614 15.9409 14.1354 15.2796 13.793C14.8023 13.5459 14.7724 13.5361 14.6602 13.5898C14.5954 13.6208 14.2078 13.7888 13.799 13.963C13.3902 14.1373 13.0423 14.2913 13.026 14.3052C13.0097 14.3191 13.8325 14.75 14.8545 15.2628L16.7127 16.1951L17.5065 15.7984C17.943 15.5802 18.3142 15.3812 18.3313 15.3561C18.3698 15.2999 18.3665 11.9758 18.328 11.9803C18.3127 11.9821 18.2155 12.0235 18.1121 12.0723ZM13.7164 15.9739C13.5787 16.0311 13.4411 16.0884 13.3034 16.1458C12.8879 16.3195 12.9693 16.3252 12.4749 16.0874C12.1456 15.9291 12.0037 15.8802 11.9421 15.9039C11.8959 15.9217 11.4982 16.0946 11.0582 16.2881C10.6183 16.4816 10.2431 16.6399 10.2244 16.6399C10.0398 16.6399 10.3467 16.8171 11.5308 17.3942L12.9195 18.071L13.5038 17.7923C13.8251 17.639 14.4733 17.332 14.9442 17.1101C15.415 16.8882 15.7945 16.7008 15.7874 16.6938C15.7802 16.6867 15.3857 16.491 14.9106 16.2588L14.0468 15.8366L13.7164 15.9739Z" fill="#7A868D"/>
</g>
<defs>
<clipPath id="clip0_2195_6914">
<rect width="10.8698" height="12.0775" fill="white" transform="translate(7.5 6)"/>
</clipPath>
</defs>
</svg>
