<svg width="704" height="661" viewBox="0 0 704 661" fill="none" xmlns="http://www.w3.org/2000/svg">
<rect width="704" height="661" fill="white"/>
<path d="M699.381 635.151C699.381 637.604 698.403 639.819 696.821 641.428C695.239 643.037 693.06 644.032 690.65 644.032H342.241C340.53 644.032 339.138 645.448 339.138 647.188C339.138 648.929 340.53 650.334 342.241 650.334H365.429C368.265 650.334 370.56 652.678 370.56 655.553V655.565C370.56 658.449 368.265 660.784 365.429 660.784H303.16C300.324 660.784 298.029 658.449 298.029 655.565V655.553C298.029 652.68 300.324 650.334 303.16 650.334H313.486C315.197 650.334 316.589 648.929 316.589 647.188C316.589 645.448 315.197 644.032 313.486 644.032H243.611C241.899 644.032 240.519 645.448 240.519 647.188C240.519 648.929 241.899 650.334 243.611 650.334H268.171C271.007 650.334 273.302 652.678 273.302 655.553V655.565C273.302 658.449 271.007 660.784 268.171 660.784H133.357C130.532 660.784 128.226 658.449 128.226 655.565V655.553C128.226 652.68 130.53 650.334 133.357 650.334H151.427C153.138 650.334 154.53 648.929 154.53 647.188C154.53 645.448 153.138 644.032 151.427 644.032H11.7309C6.9081 644.032 3 640.057 3 635.151C3 632.698 3.97812 630.483 5.56018 628.874C7.14223 627.264 9.32167 626.27 11.7309 626.27H690.65C695.473 626.27 699.381 630.245 699.381 635.151Z" fill="#F8EFE7" fill-opacity="0.56"/>
<path d="M4.5 626.122H122.643C122.643 626.122 130.649 584.587 129.856 581.98C129.063 579.37 113.819 553.077 113.819 553.077L109.009 522.733L81.7695 478.591L78.1629 427.172L59.337 406.576L36.8821 422.641L23.2709 491.293L21.2526 490.331L11 483L4.5 544.838V559.5V621V626.122Z" fill="#F9E9DE" fill-opacity="0.16"/>
<g opacity="0.91">
<path d="M9.34517 599H149.058C149.058 599 155.603 588.837 154.955 587.595C154.307 586.351 141.845 573.821 141.845 573.821L137.913 559.36L115.643 538.323L112.696 513.815L97.3061 504L78.9487 511.657L67.8227 544.375L66.1708 543.918L46.2003 538.323L22.4755 569.896H11.8018L9.34517 582.1V599Z" fill="#EEDECE"/>
<path d="M78.3492 547.151L55.3949 575.484L77.2892 598.948L112.012 571.246L130.12 579.011L123.174 599.622L108.654 608.731L138.099 623.086L154.942 611.376C154.11 609.78 138.099 593.706 138.099 593.706L133.048 575.153L104.436 548.165L100.649 516.724L80.877 504.132L78.3492 547.151Z" fill="#F9E9DE"/>
<path d="M4 623.161H25.6668L38.773 601.837L31.5524 590.632L38.773 574.555L62.0071 586.098L79.1279 560.536L77.008 557.178L51.3504 550L20.8697 590.505H7.15639L4 623.161Z" fill="#FFF0E5"/>
</g>
<g opacity="0.76">
<path d="M244 626H600.401C600.401 626 620.093 512.237 618.5 507C616.908 501.758 513 435.5 513 435.5L502 375L477.5 340L470 275.5L430 239.5L399.5 306L383 359.5L353 385L312.5 375L289.393 462.725H263.172L257.136 514.161L244 626Z" fill="#F9E9DE" fill-opacity="0.36"/>
<g opacity="0.91">
<path d="M132 627.693L655.868 625.837C655.868 625.837 676.941 594.665 674.855 590.856C672.769 587.04 632.644 548.61 632.644 548.61L601.5 493.5L513 434.5L504 374L477 339L430.138 357.941L394.316 458.294L388.998 456.892L347.922 453L248.313 536.57L213.922 554L132 590.856V627.693Z" fill="#E9D9C8" fill-opacity="0.5"/>
<path d="M461.5 428L425.385 505.056L471.5 562.765L567.271 494.924L612.648 513.489L595.242 562.765L558.856 584.544L632.645 618.863L674.855 590.867C672.77 587.052 632.645 548.621 632.645 548.621L619.987 504.266L514 435L503.5 374.5L476.5 340L461.5 428Z" fill="#F8EEE8"/>
<path d="M206.037 573.997L260.335 614.638L293.179 563.657L275.084 536.867L293.179 498.431L351.405 526.028L394.311 464.914L388.998 456.886L347.922 451.5L248.313 536.564L212.922 553L206.037 573.997Z" fill="#FDF2EA"/>
</g>
</g>
<path d="M695.151 506.101V534.268C695.151 536.465 693.367 538.249 691.17 538.249H607.495C605.28 538.249 603.487 536.465 603.487 534.268V506.101C603.487 503.887 605.271 502.094 607.495 502.094H691.17C693.367 502.103 695.151 503.887 695.151 506.101Z" fill="#EAEAEA"/>
<path d="M626.513 538.267H609.306V543.338H626.513V538.267Z" fill="#8E8E8E"/>
<path d="M689.359 538.267H672.151V543.338H689.359V538.267Z" fill="#8E8E8E"/>
<path d="M695.151 525.251V534.277C695.151 536.474 693.367 538.258 691.17 538.258H607.495C605.28 538.258 603.487 536.474 603.487 534.277V525.251H695.151Z" fill="#C1C1C1"/>
<path d="M687.584 516.041H663.003C661.649 516.041 660.542 514.943 660.542 513.58C660.542 512.227 661.641 511.12 663.003 511.12H687.584C688.937 511.12 690.045 512.218 690.045 513.58C690.036 514.943 688.937 516.041 687.584 516.041Z" fill="white"/>
<path d="M617.302 513.589C617.302 512.447 616.371 511.515 615.228 511.515C614.086 511.515 613.154 512.447 613.154 513.589C613.154 514.732 614.086 515.663 615.228 515.663C616.371 515.663 617.302 514.732 617.302 513.589Z" fill="#23D169"/>
<path d="M628.974 513.589C628.974 512.447 628.043 511.515 626.9 511.515C625.758 511.515 624.826 512.447 624.826 513.589C624.826 514.732 625.758 515.663 626.9 515.663C628.043 515.663 628.974 514.732 628.974 513.589Z" fill="white"/>
<path d="M640.645 513.589C640.645 512.447 639.714 511.515 638.571 511.515C637.429 511.515 636.497 512.447 636.497 513.589C636.497 514.732 637.429 515.663 638.571 515.663C639.722 515.663 640.645 514.732 640.645 513.589Z" fill="white"/>
<path d="M626.513 579.494H609.306V584.565H626.513V579.494Z" fill="#8E8E8E"/>
<path d="M689.359 579.494H672.151V584.565H689.359V579.494Z" fill="#8E8E8E"/>
<path d="M695.151 547.345V575.512C695.151 577.709 693.367 579.494 691.17 579.494H607.495C605.28 579.494 603.487 577.709 603.487 575.512V547.345C603.487 545.131 605.271 543.338 607.495 543.338H691.17C693.367 543.338 695.151 545.131 695.151 547.345Z" fill="#EAEAEA"/>
<path d="M695.151 566.487V575.513C695.151 577.71 693.367 579.494 691.17 579.494H607.495C605.28 579.494 603.487 577.71 603.487 575.513V566.487H695.151Z" fill="#C1C1C1"/>
<path d="M687.584 557.285H663.003C661.649 557.285 660.542 556.187 660.542 554.825C660.542 553.471 661.641 552.364 663.003 552.364H687.584C688.937 552.364 690.045 553.462 690.045 554.825C690.036 556.178 688.937 557.285 687.584 557.285Z" fill="white"/>
<path d="M617.302 554.824C617.302 553.682 616.371 552.75 615.228 552.75C614.086 552.75 613.154 553.682 613.154 554.824C613.154 555.967 614.086 556.898 615.228 556.898C616.371 556.898 617.302 555.967 617.302 554.824Z" fill="#23D169"/>
<path d="M628.974 554.824C628.974 553.682 628.043 552.75 626.9 552.75C625.758 552.75 624.826 553.682 624.826 554.824C624.826 555.967 625.758 556.898 626.9 556.898C628.043 556.898 628.974 555.967 628.974 554.824Z" fill="white"/>
<path d="M640.645 554.824C640.645 553.682 639.714 552.75 638.571 552.75C637.429 552.75 636.497 553.682 636.497 554.824C636.497 555.967 637.429 556.898 638.571 556.898C639.722 556.898 640.645 555.967 640.645 554.824Z" fill="white"/>
<path d="M626.513 620.729H609.306V625.8H626.513V620.729Z" fill="#8E8E8E"/>
<path d="M689.359 620.729H672.151V625.8H689.359V620.729Z" fill="#8E8E8E"/>
<path d="M695.151 588.581V616.748C695.151 618.945 693.367 620.729 691.17 620.729H607.495C605.28 620.729 603.487 618.945 603.487 616.748V588.581C603.487 586.366 605.271 584.573 607.495 584.573H691.17C693.367 584.573 695.151 586.366 695.151 588.581Z" fill="#EAEAEA"/>
<path d="M695.151 607.722V616.748C695.151 618.945 693.367 620.729 691.17 620.729H607.495C605.28 620.729 603.487 618.945 603.487 616.748V607.722H695.151Z" fill="#C1C1C1"/>
<path d="M687.584 598.521H663.003C661.649 598.521 660.542 597.422 660.542 596.06C660.542 594.706 661.641 593.599 663.003 593.599H687.584C688.937 593.599 690.045 594.698 690.045 596.06C690.036 597.422 688.937 598.521 687.584 598.521Z" fill="white"/>
<path d="M617.302 596.06C617.302 594.917 616.371 593.986 615.228 593.986C614.086 593.986 613.154 594.917 613.154 596.06C613.154 597.202 614.086 598.134 615.228 598.134C616.371 598.134 617.302 597.211 617.302 596.06Z" fill="#23D169"/>
<path d="M628.974 596.06C628.974 594.917 628.043 593.986 626.9 593.986C625.758 593.986 624.826 594.917 624.826 596.06C624.826 597.202 625.758 598.134 626.9 598.134C628.043 598.134 628.974 597.211 628.974 596.06Z" fill="white"/>
<path d="M640.645 596.06C640.645 594.917 639.714 593.986 638.571 593.986C637.429 593.986 636.497 594.917 636.497 596.06C636.497 597.202 637.429 598.134 638.571 598.134C639.722 598.134 640.645 597.211 640.645 596.06Z" fill="white"/>
<path d="M585.735 506.101V534.268C585.735 536.465 583.951 538.249 581.754 538.249H498.079C495.864 538.249 494.071 536.465 494.071 534.268V506.101C494.071 503.887 495.855 502.094 498.079 502.094H581.754C583.942 502.103 585.735 503.887 585.735 506.101Z" fill="#EAEAEA"/>
<path d="M517.089 538.267H499.881V543.338H517.089V538.267Z" fill="#8E8E8E"/>
<path d="M579.934 538.267H562.727V543.338H579.934V538.267Z" fill="#8E8E8E"/>
<path d="M585.735 525.251V534.277C585.735 536.474 583.951 538.258 581.754 538.258H498.079C495.864 538.258 494.071 536.474 494.071 534.277V525.251H585.735Z" fill="#C1C1C1"/>
<path d="M578.159 516.041H553.578C552.225 516.041 551.117 514.943 551.117 513.58C551.117 512.227 552.216 511.12 553.578 511.12H578.159C579.513 511.12 580.62 512.218 580.62 513.58C580.62 514.943 579.521 516.041 578.159 516.041Z" fill="white"/>
<path d="M507.878 513.589C507.878 512.447 506.946 511.515 505.804 511.515C504.661 511.515 503.729 512.447 503.729 513.589C503.729 514.732 504.661 515.663 505.804 515.663C506.946 515.663 507.878 514.732 507.878 513.589Z" fill="#23D169"/>
<path d="M519.558 513.589C519.558 512.447 518.627 511.515 517.484 511.515C516.342 511.515 515.41 512.447 515.41 513.589C515.41 514.732 516.342 515.663 517.484 515.663C518.627 515.663 519.558 514.732 519.558 513.589Z" fill="white"/>
<path d="M531.229 513.589C531.229 512.447 530.298 511.515 529.155 511.515C528.013 511.515 527.081 512.447 527.081 513.589C527.081 514.732 528.013 515.663 529.155 515.663C530.298 515.663 531.229 514.732 531.229 513.589Z" fill="white"/>
<path d="M517.089 579.494H499.881V584.565H517.089V579.494Z" fill="#8E8E8E"/>
<path d="M579.934 579.494H562.727V584.565H579.934V579.494Z" fill="#8E8E8E"/>
<path d="M585.735 547.345V575.512C585.735 577.709 583.951 579.494 581.754 579.494H498.079C495.864 579.494 494.071 577.709 494.071 575.512V547.345C494.071 545.131 495.855 543.338 498.079 543.338H581.754C583.942 543.338 585.735 545.131 585.735 547.345Z" fill="#EAEAEA"/>
<path d="M585.735 566.487V575.513C585.735 577.71 583.951 579.494 581.754 579.494H498.079C495.864 579.494 494.071 577.71 494.071 575.513V566.487H585.735Z" fill="#C1C1C1"/>
<path d="M578.159 557.285H553.578C552.225 557.285 551.117 556.187 551.117 554.825C551.117 553.471 552.216 552.364 553.578 552.364H578.159C579.513 552.364 580.62 553.462 580.62 554.825C580.62 556.178 579.521 557.285 578.159 557.285Z" fill="white"/>
<path d="M507.878 554.824C507.878 553.682 506.946 552.75 505.804 552.75C504.661 552.75 503.729 553.682 503.729 554.824C503.729 555.967 504.661 556.898 505.804 556.898C506.946 556.898 507.878 555.967 507.878 554.824Z" fill="#23D169"/>
<path d="M519.558 554.824C519.558 553.682 518.627 552.75 517.484 552.75C516.342 552.75 515.41 553.682 515.41 554.824C515.41 555.967 516.342 556.898 517.484 556.898C518.627 556.898 519.558 555.967 519.558 554.824Z" fill="white"/>
<path d="M531.229 554.824C531.229 553.682 530.298 552.75 529.155 552.75C528.013 552.75 527.081 553.682 527.081 554.824C527.081 555.967 528.013 556.898 529.155 556.898C530.298 556.898 531.229 555.967 531.229 554.824Z" fill="white"/>
<path d="M517.089 620.729H499.881V625.8H517.089V620.729Z" fill="#8E8E8E"/>
<path d="M579.934 620.729H562.727V625.8H579.934V620.729Z" fill="#8E8E8E"/>
<path d="M585.735 588.581V616.748C585.735 618.945 583.951 620.729 581.754 620.729H498.079C495.864 620.729 494.071 618.945 494.071 616.748V588.581C494.071 586.366 495.855 584.573 498.079 584.573H581.754C583.942 584.573 585.735 586.366 585.735 588.581Z" fill="#EAEAEA"/>
<path d="M585.735 607.722V616.748C585.735 618.945 583.951 620.729 581.754 620.729H498.079C495.864 620.729 494.071 618.945 494.071 616.748V607.722H585.735Z" fill="#C1C1C1"/>
<path d="M578.159 598.521H553.578C552.225 598.521 551.117 597.422 551.117 596.06C551.117 594.706 552.216 593.599 553.578 593.599H578.159C579.513 593.599 580.62 594.698 580.62 596.06C580.62 597.422 579.521 598.521 578.159 598.521Z" fill="white"/>
<path d="M507.878 596.06C507.878 594.917 506.946 593.986 505.804 593.986C504.661 593.986 503.729 594.917 503.729 596.06C503.729 597.202 504.661 598.134 505.804 598.134C506.946 598.134 507.878 597.211 507.878 596.06Z" fill="#23D169"/>
<path d="M519.558 596.06C519.558 594.917 518.627 593.986 517.484 593.986C516.342 593.986 515.41 594.917 515.41 596.06C515.41 597.202 516.342 598.134 517.484 598.134C518.627 598.134 519.558 597.211 519.558 596.06Z" fill="white"/>
<path d="M531.229 596.06C531.229 594.917 530.298 593.986 529.155 593.986C528.013 593.986 527.081 594.917 527.081 596.06C527.081 597.202 528.013 598.134 529.155 598.134C530.298 598.134 531.229 597.211 531.229 596.06Z" fill="white"/>
<path d="M585.12 410.307V456.713H550.845V502.059" stroke="#8E8E8E" stroke-opacity="0.69" stroke-miterlimit="10" stroke-linecap="round" stroke-linejoin="round" stroke-dasharray="4 4"/>
<path d="M604.354 409.16V456.764H637.999V501.685" stroke="#8E8E8E" stroke-opacity="0.69" stroke-miterlimit="10" stroke-linecap="round" stroke-linejoin="round" stroke-dasharray="4 4"/>
<path d="M645.089 384.36H643.413C641.764 384.36 640.464 382.959 640.585 381.317C640.612 380.982 640.618 380.641 640.618 380.292C640.618 372.652 634.754 366.379 627.282 365.722C627.282 365.702 627.282 365.682 627.282 365.662C627.282 351.487 615.794 340 601.62 340C591.084 340 582.037 346.353 578.083 355.435C576.018 354.898 573.827 354.677 571.568 354.805C560.979 355.421 552.414 364.067 551.871 374.662C551.764 376.794 551.979 378.858 552.461 380.815C552.91 382.618 551.563 384.36 549.713 384.36C543.078 384.36 537.241 389.775 537.067 396.404C536.886 403.387 542.495 409.097 549.432 409.097H645.089C651.918 409.097 657.46 403.561 657.46 396.725C657.46 389.903 651.925 384.36 645.089 384.36Z" fill="#F4F7F8"/>
<g clip-path="url(#clip0_79_690)">
<path d="M595.427 397.637C598.741 397.637 601.98 396.654 604.735 394.813C607.491 392.972 609.638 390.355 610.906 387.294C612.174 384.232 612.506 380.863 611.86 377.613C611.213 374.363 609.617 371.378 607.274 369.034C604.931 366.691 601.946 365.095 598.695 364.449C595.445 363.802 592.077 364.134 589.015 365.402C585.953 366.67 583.337 368.818 581.496 371.573C579.655 374.329 578.672 377.568 578.672 380.882C578.667 383.084 579.096 385.265 579.936 387.3C580.776 389.335 582.01 391.184 583.567 392.741C585.124 394.298 586.973 395.532 589.009 396.372C591.044 397.212 593.225 397.642 595.427 397.637V397.637Z" fill="#FF9431"/>
<path d="M604.335 389.763C600.257 389.493 596.493 387.409 594.101 384.055C594.101 384.055 594.101 384.055 594.101 384.055L585.256 371.647C589.276 371.94 592.983 373.996 595.359 377.295C595.359 377.295 595.359 377.295 595.359 377.295L604.335 389.763Z" fill="white" stroke="#FF9431"/>
<path d="M604.336 371.645L595.491 384.052C595.491 384.052 595.491 384.052 595.491 384.052C593.1 387.406 589.335 389.491 585.257 389.76L594.233 377.295C596.609 373.996 600.316 371.939 604.336 371.645Z" fill="white" stroke="#FF9431"/>
<path d="M604.332 371.645L598.101 380.386C597.028 380.582 595.923 380.685 594.793 380.685C593.663 380.685 592.559 380.582 591.485 380.386L585.254 371.645C586.96 371.771 588.61 372.218 590.127 372.939C590.132 372.941 590.136 372.943 590.14 372.945L590.152 372.951C590.812 373.266 591.447 373.633 592.049 374.05L592.058 374.058C592.065 374.063 592.077 374.071 592.092 374.081C592.707 374.512 593.288 374.988 593.825 375.516L593.825 375.516L593.834 375.525C593.848 375.537 593.85 375.539 593.853 375.544C593.857 375.549 593.865 375.557 593.904 375.597L593.906 375.599C594.082 375.773 594.256 375.954 594.421 376.139L594.792 376.551L595.164 376.14C595.323 375.964 595.487 375.793 595.655 375.625C595.682 375.599 595.706 375.573 595.722 375.556L595.724 375.554C595.744 375.533 595.754 375.522 595.763 375.514L595.763 375.514L595.768 375.509C596.018 375.265 596.278 375.031 596.546 374.806C596.563 374.792 596.581 374.778 596.602 374.762L596.602 374.761C596.623 374.745 596.646 374.727 596.669 374.709L596.67 374.708C596.914 374.508 597.166 374.317 597.422 374.135C597.45 374.117 597.475 374.099 597.492 374.086L597.503 374.078C597.518 374.067 597.527 374.06 597.537 374.054L597.537 374.054L597.54 374.052C598.14 373.635 598.774 373.27 599.435 372.953L599.435 372.953L599.443 372.949L599.465 372.939L599.466 372.938C599.474 372.934 599.486 372.929 599.498 372.923C601.006 372.211 602.641 371.771 604.332 371.645ZM594.226 375.21C594.21 375.193 594.193 375.176 594.175 375.159L595.305 375.267C595.248 375.324 595.192 375.381 595.136 375.438C595.146 375.449 595.156 375.46 595.165 375.47L594.793 375.804L594.422 375.469C594.432 375.459 594.441 375.448 594.451 375.438C594.387 375.372 594.322 375.307 594.258 375.244C594.247 375.233 594.236 375.221 594.226 375.21Z" fill="white" stroke="#FF9431"/>
</g>
<rect x="604.64" y="362.616" width="12.4039" height="12.4039" rx="6.20194" fill="#23D169"/>
<path fill-rule="evenodd" clip-rule="evenodd" d="M613.686 366.244L609.688 370.103L608.626 368.969C608.431 368.785 608.124 368.774 607.9 368.93C607.683 369.092 607.621 369.377 607.755 369.606L609.012 371.65C609.135 371.84 609.347 371.957 609.587 371.957C609.816 371.957 610.034 371.84 610.157 371.65C610.358 371.387 614.195 366.813 614.195 366.813C614.697 366.299 614.088 365.847 613.686 366.238V366.244Z" fill="white"/>
<rect x="604.64" y="362.616" width="12.4039" height="12.4039" rx="6.20194" stroke="#F7F7FC"/>
<path d="M102.869 570.987C103.83 575.121 103.61 579.249 102.427 583.024C102.059 584.243 101.574 585.423 100.998 586.56C99.7279 589.081 97.998 591.355 95.8868 593.266C95.5546 593.574 95.2106 593.866 94.8568 594.154C93.7599 595.04 92.5824 595.822 91.3184 596.492C89.9444 597.245 88.4701 597.857 86.9171 598.305C86.4709 598.441 86.0129 598.564 85.5509 598.67C73.1038 601.546 60.6724 593.813 57.7887 581.401C56.7567 576.961 57.0791 572.531 58.5101 568.535C59.0645 566.943 59.7997 565.426 60.6882 564.003C61.3015 563.023 61.9816 562.084 62.7365 561.219C63.1414 560.731 63.5719 560.271 64.0201 559.83C65.8424 558.02 67.9791 556.499 70.3714 555.37C71.5371 554.814 72.7716 554.347 74.0572 553.992C74.4032 553.888 74.7551 553.798 75.1069 553.718C87.554 550.842 99.9854 558.575 102.869 570.987Z" fill="#FCD554"/>
<path d="M80.327 596.496C91.5722 596.496 100.688 587.406 100.688 576.193C100.688 564.98 91.5722 555.89 80.327 555.89C69.0818 555.89 59.9658 564.98 59.9658 576.193C59.9658 587.406 69.0818 596.496 80.327 596.496Z" fill="#FF8243"/>
<path d="M93.9618 589.791C101.493 582.281 101.493 570.106 93.9618 562.597C86.431 555.088 74.2212 555.088 66.6904 562.597C59.1596 570.106 59.1596 582.281 66.6904 589.791C74.2212 597.3 86.431 597.3 93.9618 589.791Z" fill="#FFA942"/>
<path d="M87.1476 575.529C86.5558 575.052 85.843 574.771 85.0108 574.681C84.8383 574.663 84.7738 574.445 84.9076 574.333C85.4866 573.845 85.901 573.298 86.1526 572.688C86.4606 571.942 86.5219 571.172 86.3364 570.376C85.972 568.816 85.1511 567.774 83.8755 567.25C82.8773 566.839 81.6307 566.744 80.1358 566.962C80.0358 566.977 79.9407 566.913 79.9181 566.813L79.3327 564.311C79.3085 564.205 79.2037 564.14 79.0988 564.166L77.4926 564.552C77.3878 564.576 77.3233 564.683 77.3491 564.789L77.9216 567.233C77.9458 567.34 77.8813 567.446 77.7781 567.47L76.5509 567.766C76.4461 567.791 76.3412 567.725 76.317 567.621L75.7446 565.176C75.7204 565.07 75.6155 565.005 75.5107 565.031L73.9045 565.417C73.7997 565.441 73.7352 565.548 73.761 565.654L74.3335 568.098C74.3577 568.204 74.2931 568.311 74.1899 568.335L69.4197 569.483C69.3149 569.508 69.2504 569.614 69.2762 569.72L69.7197 571.617C69.7439 571.723 69.8487 571.788 69.9535 571.762L72.8386 571.067C72.9434 571.043 73.0482 571.108 73.0724 571.213L75.9832 583.639C76.0074 583.745 75.9429 583.852 75.8397 583.876L72.953 584.571C72.8482 584.596 72.7837 584.702 72.8095 584.808L73.253 586.705C73.2772 586.811 73.382 586.877 73.4868 586.85L78.257 585.703C78.3619 585.678 78.4667 585.743 78.4909 585.848L79.073 588.333C79.0972 588.44 79.2021 588.505 79.3069 588.479L80.9131 588.093C81.0179 588.068 81.0824 587.962 81.0566 587.856L80.4744 585.371C80.4502 585.264 80.5148 585.158 80.618 585.134L81.8452 584.838C81.95 584.813 82.0548 584.879 82.079 584.983L82.6612 587.468C82.6854 587.575 82.7902 587.64 82.895 587.614L84.5012 587.228C84.606 587.204 84.6706 587.097 84.6448 586.991L84.0561 584.475C84.0319 584.373 84.0916 584.272 84.1884 584.241C85.8042 583.734 86.9992 582.995 87.7717 582.024C88.6796 580.881 88.9425 579.494 88.5603 577.864C88.3297 576.882 87.8588 576.102 87.1476 575.529ZM83.1772 571.313C83.3595 572.093 83.2192 572.763 82.7564 573.324C82.2935 573.885 81.563 574.285 80.5648 574.526L77.6055 575.238C77.5007 575.263 77.3959 575.198 77.3717 575.093L76.3186 570.597C76.2944 570.49 76.359 570.384 76.4622 570.359L79.3956 569.653C80.4954 569.388 81.3501 569.383 81.9597 569.64C82.5693 569.897 82.9757 570.454 83.1772 571.313ZM84.9689 580.799C84.5109 581.406 83.7788 581.829 82.7725 582.071L79.394 582.884C79.2891 582.908 79.1843 582.843 79.1601 582.738L77.9781 577.694C77.9539 577.588 78.0184 577.482 78.1216 577.457L81.7662 576.579C83.7384 576.146 84.9366 576.831 85.3592 578.638C85.5575 579.473 85.4269 580.193 84.9689 580.799Z" fill="#FFEBD3"/>
<g opacity="0.75">
<path d="M98.6992 582.034C96.6981 588.273 91.5498 593.336 84.6776 594.924C74.3004 597.321 63.9468 590.88 61.5427 580.533C59.8659 573.315 62.4961 566.112 67.7663 561.605C66.7441 564.793 66.5436 568.29 67.3554 571.785C69.7595 582.132 80.1131 588.573 90.4903 586.176C93.6374 585.451 96.4131 583.998 98.6992 582.034Z" fill="#F5702D" fill-opacity="0.49"/>
</g>
<path d="M104.377 618.214V624.871C104.377 625.63 103.781 626.245 103.048 626.245H47.948C47.2148 626.245 46.6191 625.63 46.6191 624.871V618.214C46.6191 617.456 47.2148 616.84 47.948 616.84H103.048C103.781 616.84 104.377 617.456 104.377 618.214Z" fill="#FFC84A"/>
<g opacity="0.8">
<path d="M104.377 618.301H46.6172V624.477H104.377V618.301Z" fill="#FF884D"/>
</g>
<g opacity="0.8">
<path d="M52.0039 618.301H50.3389V624.475H52.0039V618.301Z" fill="#FF5C50"/>
<path d="M57.3847 618.301H55.7197V624.475H57.3847V618.301Z" fill="#FF5C50"/>
<path d="M62.7646 618.301H61.0996V624.475H62.7646V618.301Z" fill="#FF5C50"/>
<path d="M68.1445 618.301H66.4795V624.475H68.1445V618.301Z" fill="#FF5C50"/>
<path d="M73.5253 618.301H71.8604V624.475H73.5253V618.301Z" fill="#FF5C50"/>
<path d="M78.9052 618.301H77.2402V624.475H78.9052V618.301Z" fill="#FF5C50"/>
<path d="M84.2832 618.301H82.6182V624.475H84.2832V618.301Z" fill="#FF5C50"/>
<path d="M89.664 618.301H87.999V624.475H89.664V618.301Z" fill="#FF5C50"/>
<path d="M95.0439 618.301H93.3789V624.475H95.0439V618.301Z" fill="#FF5C50"/>
<path d="M100.425 618.301H98.7598V624.475H100.425V618.301Z" fill="#FF5C50"/>
</g>
<path d="M112.331 608.808V615.464C112.331 616.223 111.735 616.838 111.002 616.838H55.9021C55.1689 616.838 54.5732 616.223 54.5732 615.464V608.808C54.5732 608.049 55.1689 607.434 55.9021 607.434H111.002C111.735 607.434 112.331 608.049 112.331 608.808Z" fill="#FFE36C"/>
<path d="M112.331 608.892H54.5713V615.069H112.331V608.892Z" fill="#FFC84A"/>
<g opacity="0.8">
<path d="M59.9599 608.894H58.2949V615.069H59.9599V608.894Z" fill="#FF884D"/>
<path d="M65.3398 608.894H63.6748V615.069H65.3398V608.894Z" fill="#FF884D"/>
<path d="M70.7207 608.894H69.0557V615.069H70.7207V608.894Z" fill="#FF884D"/>
<path d="M76.0986 608.894H74.4336V615.069H76.0986V608.894Z" fill="#FF884D"/>
<path d="M81.4785 608.894H79.8135V615.069H81.4785V608.894Z" fill="#FF884D"/>
<path d="M86.8593 608.894H85.1943V615.069H86.8593V608.894Z" fill="#FF884D"/>
<path d="M92.2392 608.894H90.5742V615.069H92.2392V608.894Z" fill="#FF884D"/>
<path d="M97.6191 608.894H95.9541V615.069H97.6191V608.894Z" fill="#FF884D"/>
<path d="M103 608.894H101.335V615.069H103V608.894Z" fill="#FF884D"/>
<path d="M108.38 608.894H106.715V615.069H108.38V608.894Z" fill="#FF884D"/>
</g>
<g opacity="0.54">
<path d="M83.6305 608.892L80.6308 615.069H75.4668L78.7122 608.892H83.6305Z" fill="#FFF2BB"/>
<path d="M64.3961 608.892L61.4456 615.069H59.126L61.9665 608.892H64.3961Z" fill="#FFF2BB"/>
<path d="M98.2505 608.892L94.3917 615.069H85.6992L89.8057 608.892H98.2505Z" fill="#FFF2BB"/>
</g>
<path d="M102.142 600.632V607.289C102.142 608.047 101.547 608.663 100.813 608.663H45.7136C44.9804 608.663 44.3848 608.047 44.3848 607.289V600.632C44.3848 599.873 44.9804 599.258 45.7136 599.258H100.813C101.547 599.258 102.142 599.873 102.142 600.632Z" fill="#FFC84A"/>
<g opacity="0.8">
<path d="M102.142 600.718H44.3828V606.895H102.142V600.718Z" fill="#FF884D"/>
</g>
<g opacity="0.8">
<path d="M49.7685 600.718H48.1035V606.893H49.7685V600.718Z" fill="#FF5C50"/>
<path d="M55.1484 600.718H53.4834V606.893H55.1484V600.718Z" fill="#FF5C50"/>
<path d="M60.5283 600.718H58.8633V606.893H60.5283V600.718Z" fill="#FF5C50"/>
<path d="M65.9091 600.718H64.2441V606.893H65.9091V600.718Z" fill="#FF5C50"/>
<path d="M71.29 600.718H69.625V606.893H71.29V600.718Z" fill="#FF5C50"/>
<path d="M76.6699 600.718H75.0049V606.893H76.6699V600.718Z" fill="#FF5C50"/>
<path d="M82.0478 600.718H80.3828V606.893H82.0478V600.718Z" fill="#FF5C50"/>
<path d="M87.4287 600.718H85.7637V606.893H87.4287V600.718Z" fill="#FF5C50"/>
<path d="M92.8085 600.718H91.1436V606.893H92.8085V600.718Z" fill="#FF5C50"/>
<path d="M98.1884 600.718H96.5234V606.893H98.1884V600.718Z" fill="#FF5C50"/>
</g>
<path d="M70.3379 596.557C71.2992 600.691 71.079 604.819 69.8956 608.594C69.528 609.813 69.0425 610.993 68.4665 612.13C67.1967 614.651 65.4668 616.925 63.3556 618.836C63.0234 619.143 62.6794 619.435 62.3255 619.724C61.2286 620.61 60.0512 621.392 58.7872 622.062C57.4131 622.815 55.9388 623.426 54.3859 623.875C53.9397 624.01 53.4816 624.134 53.0197 624.24C40.5726 627.115 28.1412 619.383 25.2574 606.971C24.2254 602.531 24.5478 598.101 25.9789 594.105C26.5332 592.513 27.2684 590.996 28.1569 589.573C28.7702 588.593 29.4504 587.654 30.2052 586.789C30.6102 586.301 31.0407 585.841 31.4889 585.399C33.3111 583.59 35.4479 582.069 37.8402 580.94C39.0059 580.383 40.2404 579.917 41.526 579.562C41.8719 579.458 42.2238 579.368 42.5757 579.288C55.0228 576.412 67.4542 584.145 70.3379 596.557Z" fill="#FCD554"/>
<path d="M62.1922 616.12C70.1437 608.191 70.1437 595.336 62.1922 587.407C54.2408 579.478 41.3489 579.478 33.3974 587.407C25.4459 595.336 25.4459 608.191 33.3974 616.12C41.3489 624.048 54.2407 624.048 62.1922 616.12Z" fill="#FF8243"/>
<path d="M61.4305 615.36C68.9613 607.851 68.9613 595.676 61.4305 588.166C53.8997 580.657 41.6899 580.657 34.1591 588.166C26.6283 595.676 26.6284 607.851 34.1591 615.36C41.6899 622.869 53.8997 622.869 61.4305 615.36Z" fill="#FFA942"/>
<path d="M54.216 603.714C53.7679 603.099 53.1522 602.643 52.3717 602.341C52.2096 602.279 52.2036 602.052 52.3621 601.978C53.0474 601.657 53.5895 601.235 53.9903 600.711C54.4808 600.071 54.7394 599.343 54.7663 598.526C54.818 596.925 54.2947 595.706 53.1984 594.869C52.3404 594.214 51.1608 593.8 49.6606 593.623C49.5602 593.612 49.4848 593.525 49.4888 593.423L49.5708 590.855C49.5749 590.746 49.4906 590.656 49.3826 590.654L47.7312 590.611C47.6236 590.608 47.5338 590.694 47.5313 590.803L47.4516 593.312C47.4475 593.421 47.3576 593.507 47.2516 593.504L45.9896 593.473C45.882 593.469 45.7976 593.379 45.8014 593.271L45.8811 590.762C45.8852 590.653 45.8008 590.563 45.6928 590.561L44.0415 590.518C43.9339 590.515 43.8441 590.601 43.8415 590.71L43.7618 593.219C43.7577 593.328 43.6679 593.414 43.5618 593.411L38.6571 593.285C38.5495 593.282 38.4597 593.368 38.4571 593.477L38.3946 595.424C38.3904 595.533 38.4747 595.623 38.5828 595.625L41.5494 595.7C41.657 595.704 41.7413 595.794 41.7376 595.901L41.3331 608.658C41.3289 608.767 41.2391 608.853 41.133 608.85L38.1649 608.774C38.0573 608.77 37.9675 608.856 37.9649 608.965L37.9024 610.912C37.8982 611.021 37.9826 611.111 38.0906 611.113L42.9954 611.239C43.1029 611.243 43.1873 611.333 43.1835 611.44L43.1027 613.992C43.0985 614.101 43.1828 614.191 43.2909 614.193L44.9422 614.236C45.0498 614.239 45.1396 614.153 45.1422 614.044L45.2231 611.493C45.2272 611.384 45.3171 611.298 45.4231 611.301L46.6851 611.333C46.7927 611.336 46.877 611.426 46.8733 611.534L46.7924 614.085C46.7883 614.194 46.8726 614.284 46.9806 614.286L48.6319 614.329C48.7395 614.332 48.8294 614.246 48.832 614.137L48.9146 611.554C48.9175 611.45 49.0014 611.367 49.1029 611.363C50.7949 611.291 52.1404 610.887 53.1379 610.148C54.3107 609.279 54.9235 608.008 54.9762 606.335C55.0078 605.326 54.7548 604.451 54.216 603.714ZM51.4723 598.613C51.4465 599.414 51.1375 600.025 50.5452 600.447C49.953 600.869 49.1437 601.067 48.1173 601.04L45.0744 600.963C44.9668 600.96 44.8825 600.869 44.8862 600.762L45.0327 596.146C45.0369 596.037 45.1267 595.951 45.2328 595.954L48.249 596.031C49.3799 596.06 50.2068 596.277 50.7291 596.682C51.2515 597.088 51.4997 597.732 51.4723 598.613ZM50.7476 608.24C50.1482 608.707 49.3314 608.927 48.2968 608.9L44.8231 608.811C44.7155 608.807 44.6312 608.717 44.6349 608.61L44.7986 603.432C44.8027 603.323 44.8926 603.237 44.9986 603.24L48.7462 603.335C50.7635 603.427 51.7435 604.399 51.684 606.253C51.6594 607.112 51.347 607.773 50.7476 608.24Z" fill="#FFEBD3"/>
<g opacity="0.75">
<path d="M66.1699 607.604C64.1688 613.844 59.0205 618.907 52.1483 620.494C41.7711 622.892 31.4175 616.451 29.0134 606.103C27.3366 598.886 29.9668 591.682 35.2369 587.176C34.2148 590.363 34.0142 593.86 34.8261 597.355C37.2302 607.702 47.5838 614.143 57.961 611.746C61.1062 611.019 63.8818 609.568 66.1699 607.604Z" fill="#FF8243" fill-opacity="0.45"/>
</g>
<path d="M190.823 454.475C191.899 459.101 191.653 463.721 190.328 467.945C189.917 469.31 189.373 470.63 188.729 471.903C187.308 474.723 185.372 477.268 183.009 479.407C182.638 479.751 182.253 480.078 181.857 480.4C180.629 481.392 179.311 482.267 177.897 483.017C176.359 483.86 174.709 484.544 172.972 485.046C172.472 485.198 171.96 485.336 171.443 485.454C157.513 488.672 143.601 480.019 140.374 466.129C139.219 461.161 139.58 456.203 141.182 451.73C141.802 449.949 142.625 448.251 143.619 446.659C144.305 445.562 145.067 444.511 145.911 443.544C146.364 442.998 146.846 442.482 147.348 441.989C149.387 439.964 151.778 438.262 154.455 436.998C155.76 436.375 157.141 435.853 158.58 435.456C158.967 435.34 159.361 435.239 159.755 435.149C173.684 431.931 187.596 440.585 190.823 454.475Z" fill="#FCD554"/>
<path d="M165.597 483.022C178.182 483.022 188.383 472.85 188.383 460.301C188.383 447.753 178.182 437.58 165.597 437.58C153.013 437.58 142.812 447.753 142.812 460.301C142.812 472.85 153.013 483.022 165.597 483.022Z" fill="#FF8243"/>
<path d="M180.855 475.517C189.282 467.114 189.282 453.489 180.855 445.085C172.427 436.682 158.763 436.682 150.336 445.085C141.908 453.489 141.908 467.114 150.336 475.517C158.763 483.921 172.427 483.921 180.855 475.517Z" fill="#FFA942"/>
<g style="mix-blend-mode:lighten" opacity="0.65">
<path d="M179.263 468.36C173.945 469.565 168.348 468.23 164.136 464.726C164.136 464.726 164.136 464.726 164.136 464.726L148.908 452.053C154.164 450.899 159.68 452.218 163.856 455.659C163.856 455.659 163.856 455.659 163.856 455.659L179.263 468.36Z" fill="white" stroke="#FFA942" stroke-width="0.7"/>
<path d="M166.273 464.165C164.334 469.276 160.118 473.174 154.89 474.723L162.041 456.133C162.041 456.133 162.041 456.133 162.041 456.133C163.98 451.095 168.134 447.25 173.281 445.685L166.273 464.165C166.273 464.165 166.273 464.165 166.273 464.165Z" fill="white" stroke="#FFA942" stroke-width="0.7"/>
<path d="M173.288 445.687L168.245 458.972L168.243 458.976C166.95 459.587 165.585 460.087 164.151 460.462C162.717 460.837 161.281 461.069 159.853 461.17L159.85 461.166L148.903 452.061C151.248 451.547 153.643 451.53 155.95 451.967C155.954 451.968 155.958 451.969 155.961 451.969L155.971 451.971L155.976 451.971C156.902 452.149 157.814 452.399 158.7 452.722L158.702 452.723L158.717 452.729C158.725 452.732 158.738 452.737 158.754 452.742C159.658 453.076 160.536 453.478 161.377 453.959L161.377 453.959L161.385 453.963C161.408 453.976 161.418 453.982 161.431 453.991C161.445 454 161.463 454.011 161.502 454.034L161.504 454.035C161.779 454.193 162.054 454.362 162.32 454.537L162.644 454.75L162.823 454.406C162.963 454.135 163.111 453.87 163.264 453.607C163.286 453.572 163.305 453.537 163.32 453.51L163.322 453.507C163.339 453.476 163.351 453.454 163.363 453.434L163.363 453.434L163.366 453.43C163.597 453.045 163.843 452.671 164.103 452.305C164.121 452.281 164.14 452.256 164.159 452.229L164.16 452.229C164.18 452.202 164.201 452.174 164.222 452.145L164.223 452.144C164.462 451.818 164.712 451.498 164.972 451.188C164.997 451.161 165.019 451.134 165.036 451.112C165.04 451.108 165.043 451.105 165.046 451.101C165.062 451.082 165.073 451.067 165.085 451.053L165.087 451.051C165.696 450.339 166.363 449.682 167.08 449.076L167.08 449.076L167.084 449.072C167.092 449.065 167.1 449.058 167.111 449.049L167.112 449.048C167.122 449.04 167.134 449.03 167.146 449.019C168.932 447.525 171.012 446.382 173.288 445.687Z" fill="white" stroke="#FFA942" stroke-width="0.7"/>
</g>
<g opacity="0.75">
<path d="M186.157 466.837C183.917 473.82 178.156 479.486 170.465 481.262C158.852 483.945 147.266 476.737 144.575 465.157C142.699 457.08 145.642 449.019 151.54 443.976C150.396 447.543 150.172 451.456 151.08 455.367C153.771 466.947 165.357 474.155 176.97 471.472C180.492 470.661 183.598 469.035 186.157 466.837Z" fill="#F5702D" fill-opacity="0.49"/>
</g>
<path d="M201.607 513.157V520.607C201.607 521.456 200.941 522.144 200.12 522.144H138.459C137.638 522.144 136.972 521.456 136.972 520.607V513.157C136.972 512.308 137.638 511.62 138.459 511.62H200.12C200.941 511.62 201.607 512.308 201.607 513.157Z" fill="#FFC84A"/>
<g opacity="0.8">
<path d="M201.607 513.254H136.969V520.166H201.607V513.254Z" fill="#FF884D"/>
</g>
<g opacity="0.8">
<path d="M142.997 513.254H141.134V520.164H142.997V513.254Z" fill="#FF5C50"/>
<path d="M149.018 513.254H147.154V520.164H149.018V513.254Z" fill="#FF5C50"/>
<path d="M155.038 513.254H153.175V520.164H155.038V513.254Z" fill="#FF5C50"/>
<path d="M161.06 513.254H159.196V520.164H161.06V513.254Z" fill="#FF5C50"/>
<path d="M167.081 513.254H165.218V520.164H167.081V513.254Z" fill="#FF5C50"/>
<path d="M173.102 513.254H171.238V520.164H173.102V513.254Z" fill="#FF5C50"/>
<path d="M179.121 513.254H177.258V520.164H179.121V513.254Z" fill="#FF5C50"/>
<path d="M185.142 513.254H183.278V520.164H185.142V513.254Z" fill="#FF5C50"/>
<path d="M191.163 513.254H189.3V520.164H191.163V513.254Z" fill="#FF5C50"/>
<path d="M197.183 513.254H195.319V520.164H197.183V513.254Z" fill="#FF5C50"/>
</g>
<path d="M210.508 502.63V510.08C210.508 510.929 209.841 511.618 209.021 511.618H147.359C146.539 511.618 145.872 510.929 145.872 510.08V502.63C145.872 501.782 146.539 501.093 147.359 501.093H209.021C209.841 501.093 210.508 501.782 210.508 502.63Z" fill="#FFE36C"/>
<path d="M210.507 502.725H145.869V509.637H210.507V502.725Z" fill="#FFC84A"/>
<g opacity="0.8">
<path d="M151.898 502.727H150.035V509.636H151.898V502.727Z" fill="#FF884D"/>
<path d="M157.919 502.727H156.056V509.636H157.919V502.727Z" fill="#FF884D"/>
<path d="M163.94 502.727H162.077V509.636H163.94V502.727Z" fill="#FF884D"/>
<path d="M169.959 502.727H168.096V509.636H169.959V502.727Z" fill="#FF884D"/>
<path d="M175.98 502.727H174.117V509.636H175.98V502.727Z" fill="#FF884D"/>
<path d="M182.002 502.727H180.139V509.636H182.002V502.727Z" fill="#FF884D"/>
<path d="M188.022 502.727H186.159V509.636H188.022V502.727Z" fill="#FF884D"/>
<path d="M194.044 502.727H192.181V509.636H194.044V502.727Z" fill="#FF884D"/>
<path d="M200.063 502.727H198.2V509.636H200.063V502.727Z" fill="#FF884D"/>
<path d="M206.085 502.727H204.222V509.636H206.085V502.727Z" fill="#FF884D"/>
</g>
<g opacity="0.54">
<path d="M178.39 502.725L175.033 509.637H169.254L172.886 502.725H178.39Z" fill="#FFF2BB"/>
<path d="M156.865 502.725L153.563 509.637H150.967L154.146 502.725H156.865Z" fill="#FFF2BB"/>
<path d="M194.75 502.725L190.432 509.637H180.704L185.3 502.725H194.75Z" fill="#FFF2BB"/>
</g>
<path d="M199.105 493.481V500.93C199.105 501.779 198.439 502.468 197.618 502.468H135.957C135.136 502.468 134.47 501.779 134.47 500.93V493.481C134.47 492.632 135.136 491.943 135.957 491.943H197.618C198.439 491.943 199.105 492.632 199.105 493.481Z" fill="#FFC84A"/>
<g opacity="0.8">
<path d="M199.105 493.578H134.467V500.49H199.105V493.578Z" fill="#FF884D"/>
</g>
<g opacity="0.8">
<path d="M140.495 493.577H138.632V500.487H140.495V493.577Z" fill="#FF5C50"/>
<path d="M146.516 493.577H144.652V500.487H146.516V493.577Z" fill="#FF5C50"/>
<path d="M152.536 493.578H150.673V500.487H152.536V493.578Z" fill="#FF5C50"/>
<path d="M158.559 493.578H156.695V500.487H158.559V493.578Z" fill="#FF5C50"/>
<path d="M164.579 493.577H162.716V500.487H164.579V493.577Z" fill="#FF5C50"/>
<path d="M170.6 493.578H168.736V500.487H170.6V493.578Z" fill="#FF5C50"/>
<path d="M176.618 493.578H174.755V500.487H176.618V493.578Z" fill="#FF5C50"/>
<path d="M182.64 493.577H180.776V500.487H182.64V493.577Z" fill="#FF5C50"/>
<path d="M188.661 493.577H186.798V500.487H188.661V493.577Z" fill="#FF5C50"/>
<path d="M194.681 493.578H192.817V500.487H194.681V493.578Z" fill="#FF5C50"/>
</g>
<path d="M208.007 482.954V490.404C208.007 491.252 207.34 491.941 206.52 491.941H144.858C144.038 491.941 143.371 491.252 143.371 490.404V482.954C143.371 482.105 144.038 481.417 144.858 481.417H206.52C207.34 481.417 208.007 482.105 208.007 482.954Z" fill="#FFE36C"/>
<path d="M208.006 483.049H143.368V489.961H208.006V483.049Z" fill="#FFC84A"/>
<g opacity="0.8">
<path d="M149.397 483.051H147.534V489.961H149.397V483.051Z" fill="#FF884D"/>
<path d="M155.417 483.051H153.554V489.961H155.417V483.051Z" fill="#FF884D"/>
<path d="M161.439 483.051H159.576V489.961H161.439V483.051Z" fill="#FF884D"/>
<path d="M167.46 483.051H165.597V489.961H167.46V483.051Z" fill="#FF884D"/>
<path d="M173.479 483.051H171.616V489.961H173.479V483.051Z" fill="#FF884D"/>
<path d="M179.499 483.051H177.636V489.961H179.499V483.051Z" fill="#FF884D"/>
<path d="M185.52 483.051H183.657V489.961H185.52V483.051Z" fill="#FF884D"/>
<path d="M191.542 483.051H189.679V489.961H191.542V483.051Z" fill="#FF884D"/>
<path d="M197.563 483.051H195.7V489.961H197.563V483.051Z" fill="#FF884D"/>
<path d="M203.583 483.051H201.72V489.961H203.583V483.051Z" fill="#FF884D"/>
</g>
<g opacity="0.54">
<path d="M175.889 483.049L172.532 489.961H166.755L170.385 483.049H175.889Z" fill="#FFF2BB"/>
<path d="M154.364 483.049L151.062 489.961H148.466L151.645 483.049H154.364Z" fill="#FFF2BB"/>
<path d="M192.249 483.049L187.931 489.961H178.203L182.799 483.049H192.249Z" fill="#FFF2BB"/>
</g>
<path d="M160.984 513.653C162.06 518.28 161.814 522.899 160.489 527.124C160.078 528.488 159.535 529.809 158.89 531.081C157.469 533.902 155.533 536.447 153.17 538.585C152.799 538.93 152.414 539.257 152.018 539.579C150.79 540.571 149.473 541.446 148.058 542.196C146.52 543.038 144.871 543.723 143.133 544.225C142.633 544.376 142.121 544.515 141.604 544.633C127.674 547.851 113.763 539.197 110.535 525.308C109.381 520.339 109.741 515.382 111.343 510.909C111.963 509.128 112.786 507.43 113.78 505.838C114.467 504.741 115.228 503.69 116.072 502.723C116.526 502.177 117.007 501.661 117.509 501.168C119.548 499.143 121.939 497.441 124.617 496.177C125.921 495.554 127.303 495.032 128.741 494.635C129.128 494.519 129.522 494.418 129.916 494.328C143.845 491.11 157.757 499.764 160.984 513.653Z" fill="#FCD554"/>
<path d="M151.87 535.545C160.768 526.672 160.768 512.286 151.87 503.413C142.972 494.54 128.544 494.54 119.646 503.413C110.748 512.286 110.748 526.672 119.646 535.545C128.544 544.418 142.972 544.418 151.87 535.545Z" fill="#FF8243"/>
<path d="M151.017 534.695C159.444 526.291 159.444 512.667 151.017 504.263C142.589 495.859 128.925 495.859 120.498 504.263C112.07 512.667 112.07 526.291 120.498 534.695C128.925 543.099 142.589 543.099 151.017 534.695Z" fill="#FFA942"/>
<g opacity="0.65">
<path d="M147.027 530.151C141.569 530.031 136.465 527.38 133.236 522.964L121.564 506.993C126.948 507.148 131.978 509.764 135.187 514.11C135.187 514.11 135.187 514.11 135.187 514.11L147.027 530.151Z" fill="white" stroke="#FFA942" stroke-width="0.7"/>
<path d="M135.448 522.939C132.314 527.421 127.267 530.178 121.813 530.412L133.31 514.13C133.31 514.13 133.31 514.13 133.31 514.13C136.426 509.718 141.4 506.998 146.779 506.729L135.448 522.939Z" fill="white" stroke="#FFA942" stroke-width="0.7"/>
<path d="M146.777 506.729L138.633 518.378L138.63 518.382C137.226 518.661 135.779 518.815 134.296 518.83C132.813 518.846 131.363 518.722 129.953 518.473L129.95 518.469L121.561 506.992C123.962 507.062 126.289 507.627 128.42 508.61C128.42 508.61 128.421 508.61 128.421 508.61L128.568 508.293C128.57 508.294 128.574 508.295 128.577 508.296C128.58 508.297 128.583 508.299 128.585 508.3C129.461 508.705 130.305 509.18 131.105 509.722M146.777 506.729L128.445 508.62M146.777 506.729C144.398 506.85 142.1 507.454 140.002 508.468M146.777 506.729L140.002 508.468M131.105 509.722L130.899 510.005L130.903 510.008M131.105 509.722L130.909 510.012C130.907 510.011 130.905 510.009 130.903 510.008M131.105 509.722C131.107 509.724 131.109 509.725 131.111 509.727C131.12 509.733 131.13 509.741 131.14 509.747M130.903 510.008C130.123 509.48 129.299 509.016 128.445 508.62M130.903 510.008L130.905 510.009L130.918 510.019C130.925 510.024 130.936 510.032 130.95 510.041M128.445 508.62L128.45 508.623C128.452 508.623 128.452 508.623 128.451 508.623C128.451 508.623 128.45 508.622 128.449 508.622L128.443 508.62L128.438 508.617L128.433 508.615L128.432 508.615L128.438 508.617C128.44 508.618 128.443 508.619 128.445 508.62ZM130.95 510.041C130.948 510.039 130.946 510.037 130.943 510.036L131.14 509.747M130.95 510.041C131.746 510.584 132.499 511.187 133.197 511.856L133.197 511.856L133.204 511.862C133.223 511.88 133.231 511.888 133.242 511.9C133.253 511.912 133.268 511.927 133.3 511.959L133.302 511.96C133.53 512.181 133.755 512.41 133.97 512.644L134.232 512.93L134.49 512.64C134.692 512.412 134.9 512.19 135.114 511.973M130.95 510.041C130.955 510.043 130.959 510.046 130.964 510.049L131.14 509.747M131.14 509.747C131.953 510.301 132.724 510.917 133.44 511.604C133.462 511.624 133.483 511.646 133.504 511.667C133.517 511.681 133.531 511.695 133.545 511.709C133.694 511.853 133.842 512.001 133.987 512.152C133.98 512.159 133.973 512.167 133.966 512.175L134.228 512.407L134.485 512.171C134.478 512.163 134.471 512.155 134.464 512.147C134.596 512.004 134.73 511.863 134.867 511.724M135.114 511.973C135.112 511.974 135.111 511.975 135.11 511.976L134.867 511.724M135.114 511.973C135.143 511.944 135.17 511.915 135.192 511.892L135.194 511.89C135.218 511.864 135.235 511.845 135.252 511.829L135.252 511.829L135.256 511.825C135.574 511.509 135.905 511.206 136.246 510.914M135.114 511.973C135.115 511.972 135.115 511.971 135.116 511.97L134.867 511.724M134.867 511.724C134.891 511.701 134.914 511.676 134.938 511.651C134.961 511.626 134.984 511.601 135.009 511.577C135.334 511.253 135.673 510.943 136.021 510.646M136.246 510.914C136.245 510.915 136.245 510.915 136.244 510.916L136.021 510.646M136.246 510.914C136.269 510.895 136.293 510.876 136.319 510.855C136.345 510.834 136.373 510.811 136.401 510.789L136.402 510.788C136.713 510.529 137.034 510.28 137.362 510.043M136.246 510.914C136.247 510.914 136.248 510.913 136.248 510.912L136.021 510.646M136.021 510.646C136.047 510.625 136.073 510.604 136.1 510.582C136.126 510.561 136.152 510.54 136.178 510.519C136.497 510.254 136.826 509.998 137.163 509.755C137.191 509.737 137.219 509.716 137.246 509.696C137.266 509.681 137.285 509.666 137.305 509.653C138.087 509.099 138.911 508.614 139.77 508.193C139.782 508.186 139.795 508.18 139.808 508.174C139.821 508.168 139.834 508.161 139.846 508.155M137.362 510.043C137.393 510.022 137.421 510.002 137.443 509.985C137.448 509.982 137.452 509.979 137.455 509.976C137.475 509.961 137.49 509.95 137.506 509.94L137.508 509.938C138.273 509.396 139.081 508.92 139.924 508.507L139.924 508.507L139.93 508.504C139.938 508.5 139.948 508.495 139.962 508.488L139.963 508.488C139.974 508.482 139.988 508.476 140.002 508.468M137.362 510.043C137.364 510.042 137.366 510.04 137.368 510.039L137.163 509.755L137.356 510.047C137.358 510.046 137.36 510.044 137.362 510.043ZM139.846 508.155L139.999 508.47C140 508.469 140.001 508.469 140.002 508.468M139.846 508.155L140.006 508.467C140.005 508.467 140.003 508.468 140.002 508.468M139.846 508.155L140.002 508.468" fill="white" stroke="#FFA942" stroke-width="0.7"/>
</g>
<g opacity="0.75">
<path d="M156.322 526.016C154.082 532.998 148.321 538.664 140.63 540.441C129.017 543.124 117.431 535.916 114.74 524.336C112.864 516.259 115.807 508.198 121.705 503.155C120.561 506.722 120.337 510.635 121.245 514.546C123.936 526.126 135.522 533.334 147.135 530.651C150.655 529.837 153.761 528.214 156.322 526.016Z" fill="#FF8243" fill-opacity="0.45"/>
</g>
<path d="M229.677 493.972C230.752 498.599 230.506 503.218 229.182 507.443C228.77 508.808 228.227 510.128 227.582 511.4C226.161 514.221 224.226 516.766 221.863 518.905C221.491 519.249 221.106 519.576 220.71 519.898C219.483 520.89 218.165 521.765 216.75 522.515C215.213 523.358 213.563 524.042 211.825 524.544C211.326 524.696 210.813 524.834 210.296 524.952C196.367 528.17 182.455 519.517 179.228 505.627C178.073 500.659 178.434 495.701 180.035 491.228C180.656 489.447 181.478 487.749 182.473 486.157C183.159 485.06 183.92 484.009 184.765 483.042C185.218 482.496 185.7 481.98 186.201 481.487C188.241 479.462 190.632 477.76 193.309 476.496C194.613 475.873 195.995 475.351 197.434 474.954C197.821 474.838 198.215 474.737 198.608 474.647C212.538 471.427 226.45 480.081 229.677 493.972Z" fill="#FCD554"/>
<path d="M220.561 515.865C229.46 506.992 229.46 492.606 220.561 483.733C211.663 474.86 197.236 474.86 188.337 483.733C179.439 492.606 179.439 506.992 188.338 515.865C197.236 524.738 211.663 524.738 220.561 515.865Z" fill="#FF8243"/>
<path d="M219.709 515.015C228.137 506.611 228.137 492.986 219.709 484.583C211.282 476.179 197.618 476.179 189.19 484.583C180.763 492.986 180.763 506.611 189.19 515.015C197.618 523.418 211.282 523.418 219.709 515.015Z" fill="#FFA942"/>
<g opacity="0.65">
<path d="M215.424 512.91C210.014 512.208 205.228 509.027 202.497 504.29C202.497 504.29 202.497 504.29 202.497 504.29L192.627 487.159C197.961 487.887 202.677 491.026 205.396 495.692L215.424 512.91Z" fill="white" stroke="#FFA942" stroke-width="0.7"/>
<path d="M217.716 489.587L204.698 504.501C201.097 508.625 195.783 510.828 190.338 510.478L203.528 495.511C207.103 491.455 212.341 489.281 217.716 489.587Z" fill="white" stroke="#FFA942" stroke-width="0.7"/>
<path d="M217.712 489.593L208.356 500.309L208.353 500.313C206.928 500.439 205.472 500.438 203.996 500.294C202.52 500.151 201.092 499.873 199.718 499.475L199.716 499.47L192.617 487.157C194.996 487.484 197.248 488.295 199.26 489.5C199.261 489.5 199.261 489.501 199.262 489.501L199.442 489.201C199.444 489.202 199.447 489.204 199.45 489.205C199.453 489.207 199.456 489.208 199.458 489.21C200.285 489.707 201.073 490.27 201.81 490.894C201.811 490.896 201.813 490.898 201.815 490.899C201.823 490.907 201.832 490.915 201.842 490.922M217.712 489.593L199.284 489.513M217.712 489.593C215.335 489.459 212.985 489.814 210.79 490.599M217.712 489.593L210.79 490.599M201.842 490.922L201.614 491.189C201.617 491.19 201.619 491.192 201.621 491.194M201.842 490.922L201.634 491.204C201.629 491.201 201.625 491.197 201.621 491.194M201.842 490.922C202.59 491.561 203.29 492.256 203.927 493.015C203.947 493.038 203.965 493.062 203.984 493.085C203.996 493.101 204.007 493.116 204.02 493.131C204.152 493.29 204.284 493.453 204.412 493.619C204.404 493.626 204.396 493.633 204.388 493.64L204.623 493.899L204.905 493.691C204.899 493.683 204.892 493.674 204.886 493.665C205.033 493.537 205.182 493.412 205.332 493.288M201.621 491.194C201.608 491.184 201.598 491.175 201.591 491.169L201.579 491.158L201.578 491.157M201.621 491.194C202.353 491.819 203.037 492.5 203.658 493.24L203.658 493.24L203.664 493.247C203.682 493.267 203.688 493.276 203.698 493.289C203.708 493.302 203.721 493.319 203.75 493.354L203.751 493.355C203.954 493.599 204.153 493.851 204.342 494.107L204.572 494.419L204.859 494.158C205.085 493.953 205.315 493.754 205.551 493.561M201.578 491.157C201.579 491.158 201.581 491.16 201.583 491.161L201.81 490.894L201.574 491.153L201.578 491.157ZM201.578 491.157C200.859 490.548 200.09 489.999 199.284 489.513M199.284 489.513L199.289 489.516C199.29 489.517 199.29 489.517 199.29 489.517C199.29 489.517 199.289 489.516 199.288 489.516L199.283 489.513L199.278 489.51L199.272 489.506L199.272 489.506L199.278 489.51C199.28 489.511 199.282 489.512 199.284 489.513ZM205.551 493.561C205.55 493.562 205.548 493.563 205.547 493.564L205.332 493.288M205.551 493.561C205.584 493.536 205.614 493.509 205.637 493.489L205.64 493.487C205.667 493.464 205.686 493.448 205.704 493.433L205.704 493.433L205.708 493.43C206.059 493.149 206.42 492.883 206.791 492.63M205.551 493.561C205.552 493.56 205.553 493.559 205.554 493.559L205.332 493.288M205.332 493.288C205.359 493.267 205.385 493.245 205.411 493.223C205.437 493.2 205.462 493.178 205.489 493.157C205.848 492.869 206.218 492.597 206.597 492.339C206.624 492.321 206.653 492.302 206.682 492.284C206.71 492.266 206.739 492.247 206.766 492.229C207.112 492 207.467 491.781 207.828 491.575C207.858 491.56 207.888 491.542 207.917 491.525C207.938 491.512 207.959 491.5 207.98 491.488C208.817 491.021 209.689 490.627 210.589 490.3C210.601 490.295 210.615 490.29 210.629 490.285C210.642 490.28 210.656 490.275 210.669 490.271M206.791 492.63C206.817 492.613 206.843 492.596 206.87 492.578L206.871 492.578C206.899 492.56 206.929 492.541 206.959 492.521L206.96 492.52C207.297 492.297 207.643 492.083 207.995 491.882M206.791 492.63C206.792 492.629 206.793 492.628 206.794 492.628L206.597 492.339L206.789 492.631C206.79 492.631 206.791 492.63 206.791 492.63ZM210.669 490.271L210.786 490.6C210.787 490.6 210.788 490.599 210.79 490.599M210.669 490.271L210.793 490.597C210.792 490.598 210.791 490.598 210.79 490.599M210.669 490.271L210.79 490.599M210.79 490.599C210.775 490.604 210.76 490.61 210.749 490.614L210.747 490.614C210.733 490.62 210.723 490.623 210.714 490.627L210.708 490.629L210.708 490.629C209.825 490.95 208.97 491.336 208.151 491.794L208.149 491.795C208.132 491.804 208.116 491.813 208.095 491.826C208.091 491.828 208.087 491.831 208.082 491.834C208.058 491.848 208.028 491.865 207.995 491.882M207.995 491.882C207.997 491.881 207.999 491.88 208.001 491.879L207.828 491.575L207.989 491.886C207.991 491.885 207.993 491.884 207.995 491.882Z" fill="white" stroke="#FFA942" stroke-width="0.7"/>
</g>
<g opacity="0.75">
<path d="M225.013 506.333C222.774 513.315 217.012 518.981 209.322 520.758C197.709 523.441 186.122 516.233 183.432 504.653C181.555 496.576 184.499 488.515 190.396 483.472C189.252 487.038 189.028 490.952 189.937 494.863C192.627 506.443 204.214 513.651 215.826 510.968C219.346 510.156 222.452 508.533 225.013 506.333Z" fill="#FF8243" fill-opacity="0.58"/>
</g>
<path d="M219.896 533.036V540.485C219.896 541.334 219.23 542.023 218.409 542.023H156.748C155.927 542.023 155.261 541.334 155.261 540.485V533.036C155.261 532.187 155.927 531.498 156.748 531.498H218.409C219.23 531.498 219.896 532.187 219.896 533.036Z" fill="#FFC84A"/>
<g opacity="0.8">
<path d="M219.896 533.13H155.258V540.042H219.896V533.13Z" fill="#FF884D"/>
</g>
<g opacity="0.8">
<path d="M161.288 533.132H159.425V540.042H161.288V533.132Z" fill="#FF5C50"/>
<path d="M167.309 533.133H165.445V540.043H167.309V533.133Z" fill="#FF5C50"/>
<path d="M173.331 533.133H171.468V540.043H173.331V533.133Z" fill="#FF5C50"/>
<path d="M179.35 533.133H177.486V540.043H179.35V533.133Z" fill="#FF5C50"/>
<path d="M185.37 533.132H183.507V540.042H185.37V533.132Z" fill="#FF5C50"/>
<path d="M191.39 533.133H189.526V540.043H191.39V533.133Z" fill="#FF5C50"/>
<path d="M197.412 533.133H195.549V540.043H197.412V533.133Z" fill="#FF5C50"/>
<path d="M203.433 533.132H201.569V540.042H203.433V533.132Z" fill="#FF5C50"/>
<path d="M209.453 533.133H207.59V540.043H209.453V533.133Z" fill="#FF5C50"/>
<path d="M215.476 533.133H213.612V540.043H215.476V533.133Z" fill="#FF5C50"/>
</g>
<path d="M228.801 522.509V529.958C228.801 530.807 228.134 531.496 227.314 531.496H165.652C164.832 531.496 164.165 530.807 164.165 529.958V522.509C164.165 521.66 164.832 520.971 165.652 520.971H227.314C228.134 520.969 228.801 521.66 228.801 522.509Z" fill="#FFE36C"/>
<path d="M228.8 522.604H164.162V529.515H228.8V522.604Z" fill="#FFC84A"/>
<g opacity="0.8">
<path d="M170.189 522.605H168.326V529.515H170.189V522.605Z" fill="#FF884D"/>
<path d="M176.21 522.606H174.347V529.516H176.21V522.606Z" fill="#FF884D"/>
<path d="M182.231 522.606H180.368V529.516H182.231V522.606Z" fill="#FF884D"/>
<path d="M188.252 522.605H186.389V529.515H188.252V522.605Z" fill="#FF884D"/>
<path d="M194.272 522.606H192.409V529.516H194.272V522.606Z" fill="#FF884D"/>
<path d="M200.294 522.605H198.431V529.515H200.294V522.605Z" fill="#FF884D"/>
<path d="M206.314 522.605H204.451V529.515H206.314V522.605Z" fill="#FF884D"/>
<path d="M212.335 522.606H210.472V529.516H212.335V522.606Z" fill="#FF884D"/>
<path d="M218.355 522.606H216.492V529.516H218.355V522.606Z" fill="#FF884D"/>
<path d="M224.375 522.605H222.512V529.515H224.375V522.605Z" fill="#FF884D"/>
</g>
<g opacity="0.54">
<path d="M196.681 522.604L193.326 529.515H187.547L191.177 522.604H196.681Z" fill="#FFF2BB"/>
<path d="M175.158 522.604L171.853 529.515H169.26L172.436 522.604H175.158Z" fill="#FFF2BB"/>
<path d="M213.041 522.604L208.725 529.515H198.995L203.593 522.604H213.041Z" fill="#FFF2BB"/>
</g>
<path d="M183.748 495.015L188.487 500.775C189.028 501.431 188.951 502.385 188.315 502.905L140.64 541.9C140.005 542.42 139.052 542.308 138.511 541.652L133.773 535.892C133.231 535.236 133.308 534.282 133.944 533.762L181.619 494.767C182.255 494.247 183.21 494.359 183.748 495.015Z" fill="#FFE36C"/>
<path d="M183.815 495.097L133.837 535.974L138.233 541.318L188.211 500.441L183.815 495.097Z" fill="#FFC84A"/>
<g opacity="0.8">
<path d="M138.498 532.162L137.058 533.34L141.452 538.683L142.893 537.505L138.498 532.162Z" fill="#FF884D"/>
<path d="M143.154 528.358L141.713 529.536L146.108 534.879L147.548 533.7L143.154 528.358Z" fill="#FF884D"/>
<path d="M147.809 524.548L146.368 525.726L150.763 531.069L152.204 529.89L147.809 524.548Z" fill="#FF884D"/>
<path d="M152.463 520.742L151.022 521.92L155.417 527.263L156.858 526.085L152.463 520.742Z" fill="#FF884D"/>
<path d="M157.117 516.934L155.677 518.112L160.071 523.455L161.512 522.277L157.117 516.934Z" fill="#FF884D"/>
<path d="M161.775 513.123L160.334 514.302L164.729 519.644L166.169 518.466L161.775 513.123Z" fill="#FF884D"/>
<path d="M166.429 509.318L164.988 510.496L169.383 515.839L170.824 514.66L166.429 509.318Z" fill="#FF884D"/>
<path d="M171.086 505.509L169.646 506.687L174.04 512.03L175.481 510.851L171.086 505.509Z" fill="#FF884D"/>
<path d="M175.74 501.7L174.3 502.878L178.694 508.221L180.135 507.043L175.74 501.7Z" fill="#FF884D"/>
<path d="M180.397 497.896L178.956 499.074L183.351 504.417L184.791 503.239L180.397 497.896Z" fill="#FF884D"/>
</g>
<g opacity="0.54">
<path d="M158.975 515.399L160.777 522.866L156.309 526.521L154.719 518.881L158.975 515.399Z" fill="#FFF2BB"/>
<path d="M142.334 529.013L144.178 536.445L142.172 538.085L140.231 530.732L142.334 529.013Z" fill="#FFF2BB"/>
<path d="M171.625 505.055L172.683 513.129L165.162 519.28L164.319 511.03L171.625 505.055Z" fill="#FFF2BB"/>
</g>
<path d="M306.02 415.658C303.812 418.564 302.641 418.461 302.641 418.461L296.495 415.816L295.747 415.496L282.61 409.841C282.61 409.841 282.61 409.841 282.607 409.838C282.607 409.838 282.607 409.838 282.605 409.836C282.546 409.645 279.64 400.524 282.55 395.602C286.316 393.167 294.946 389.149 305.074 394.768H305.077C306.592 396.683 306.445 398.732 305.332 400.562C305.332 400.562 305.332 400.562 305.336 400.56C305.464 400.575 309.404 401.04 309.709 404.789C310.017 408.59 308.227 412.756 306.02 415.658Z" fill="#5B3939"/>
<path d="M283.643 403.284C283.643 403.284 281.786 409.632 282.912 416.34C284.039 423.048 288.337 424.711 290.108 425.32C291.879 425.93 293.388 425.757 293.388 425.757L292.873 429.321C292.873 429.321 289.745 435.975 295.76 436.378C301.774 436.782 304.953 432.285 304.953 432.285C304.953 432.285 302.454 424.287 302.493 421.361C302.533 418.435 302.907 415.515 303.47 414.976C304.031 414.436 305.047 415.423 306.079 413.276C307.111 411.128 305.234 408.57 303.923 408.572C302.614 408.575 301.211 414.127 300.63 414.124C300.049 414.12 299.125 413.962 299.429 413.126C299.732 412.291 300.571 410.222 300.287 409.718C300.003 409.213 296.95 406.927 295.887 405.284C294.825 403.644 294.675 402.913 294.675 402.913C294.675 402.913 293.025 404.225 289.217 404.106C285.407 403.986 283.643 403.284 283.643 403.284Z" fill="#FFD3B6"/>
<path d="M293.389 425.757C293.389 425.757 294.878 425.862 296.649 424.103C298.42 422.344 300.345 417.871 300.345 417.871C300.345 417.871 300.323 421.339 298.257 424.906C296.189 428.473 292.874 429.322 292.874 429.322L293.389 425.757Z" fill="#F48E76"/>
<path d="M286.223 412.876C286.188 413.357 285.907 413.727 285.597 413.703C285.286 413.679 285.064 413.271 285.099 412.793C285.135 412.313 285.416 411.942 285.726 411.966C286.036 411.988 286.259 412.396 286.223 412.876Z" fill="#604A42"/>
<path d="M292.637 412.707C292.601 413.188 292.32 413.558 292.01 413.534C291.699 413.51 291.477 413.102 291.512 412.624C291.548 412.144 291.829 411.773 292.139 411.797C292.45 411.819 292.672 412.227 292.637 412.707Z" fill="#604A42"/>
<path d="M287.429 418.477C287.185 418.334 287.013 418.11 286.917 417.812C286.404 416.228 288.283 412.797 288.364 412.653C288.43 412.532 288.584 412.488 288.705 412.554C288.826 412.615 288.87 412.771 288.804 412.894C288.287 413.831 287.024 416.516 287.394 417.658C287.46 417.86 287.572 417.998 287.739 418.075C287.992 418.196 288.208 418.2 288.397 418.093C289.037 417.729 289.312 416.224 289.363 415.675C289.376 415.537 289.497 415.436 289.636 415.45C289.772 415.463 289.875 415.583 289.862 415.722C289.84 415.95 289.627 417.97 288.646 418.527C288.412 418.659 288.032 418.766 287.526 418.527C287.491 418.512 287.46 418.494 287.429 418.477Z" fill="#F48E76"/>
<path d="M288.455 421.262C288.347 421.199 288.286 421.151 288.277 421.142C288.169 421.054 288.154 420.896 288.242 420.791C288.33 420.683 288.488 420.668 288.594 420.756C288.622 420.78 289.366 421.357 290.569 420.995C291.777 420.631 292.375 418.584 292.382 418.562C292.419 418.431 292.558 418.352 292.692 418.391C292.826 418.428 292.903 418.567 292.863 418.698C292.837 418.792 292.186 421.03 290.714 421.473C289.599 421.811 288.794 421.464 288.455 421.262Z" fill="#F48E76"/>
<path d="M290.738 410.231C291.279 409.707 291.95 409.285 292.731 409.439C293.452 409.581 294.288 410.132 294.777 410.667C294.94 410.845 295.21 410.584 295.047 410.406C294.471 409.775 293.505 409.138 292.636 409.035C291.798 408.937 291.055 409.402 290.478 409.961C290.302 410.13 290.564 410.4 290.738 410.231Z" fill="#604A42"/>
<path d="M283.934 410.038C284.739 409.362 285.74 410.007 286.446 410.494C286.644 410.63 286.836 410.308 286.638 410.172C285.762 409.571 284.625 408.969 283.672 409.768C283.488 409.924 283.749 410.191 283.934 410.038Z" fill="#604A42"/>
<g opacity="0.57">
<path d="M296.515 417.503C296.095 418.211 295.301 418.521 294.742 418.192C294.183 417.862 294.073 417.02 294.493 416.312C294.914 415.603 295.708 415.294 296.266 415.623C296.825 415.952 296.937 416.794 296.515 417.503Z" fill="#F47B76"/>
</g>
<g opacity="0.57">
<path d="M285.193 417.998C284.918 418.463 284.376 418.652 283.985 418.422C283.593 418.191 283.499 417.628 283.774 417.163C284.049 416.698 284.59 416.509 284.981 416.739C285.375 416.97 285.467 417.533 285.193 417.998Z" fill="#F47B76"/>
</g>
<path d="M340.385 492.718L249.655 514.493C248.925 514.669 248.263 515.083 247.785 515.66L197.955 576.034C197.046 577.133 195.887 578.041 194.602 578.664L136.533 606.685C136.08 606.904 135.596 607.007 135.125 607.007C134.113 607.007 133.136 606.535 132.52 605.702C132.397 605.542 132.292 605.366 132.201 605.18C131.42 603.574 132.098 601.637 133.711 600.858L183.598 576.782L191.775 572.836C192.224 572.621 192.629 572.303 192.946 571.919L199.213 564.325L242.026 512.46L242.776 511.55C244.142 509.893 246.047 508.704 248.137 508.204L248.214 508.187L338.865 486.427C340.605 486.01 342.358 487.078 342.779 488.815C342.805 488.921 342.825 489.028 342.838 489.133C343.062 490.761 342.017 492.325 340.385 492.718Z" fill="#D0D9DE"/>
<path d="M265.044 502.336C265.044 502.336 259.617 506.118 259.502 507.575C259.386 509.031 267.76 512.396 268.671 510.194C269.582 507.991 270.508 504.526 270.508 504.526L265.044 502.336Z" fill="#FFD3B6"/>
<path d="M283.711 435.365C283.711 435.365 276.247 443.073 275.462 448.5C274.676 453.927 273.684 479.341 271.746 482.577C269.81 485.812 263.063 500.018 262.483 502.457C261.902 504.899 269.28 508.242 272.316 504.956C275.352 501.67 289.593 473.741 289.593 473.741L283.711 435.365Z" fill="#DD4B80"/>
<path d="M267.906 605.38C267.906 605.38 266.122 617.857 266.48 618.307C266.839 618.756 275.326 618.914 275.425 618.008C275.524 617.102 277.306 606.997 277.306 606.997L267.906 605.38Z" fill="#FFD3B6"/>
<path d="M282.821 489.63C282.821 489.63 278.923 510.133 277.7 515.801C276.477 521.469 268.153 575.85 266.727 589.94C265.302 604.031 264.563 606.775 265.387 607.196C266.212 607.617 277.995 609.53 278.389 608.923C278.782 608.315 289.639 559.412 291.203 552.758C292.767 546.103 302.444 510.104 303.854 502.576C305.266 495.046 287.417 478.741 282.821 489.63Z" fill="#2F2159"/>
<path d="M321.829 608.741C321.829 608.741 323.217 612.803 323.644 614.637C324.071 616.471 324.478 617.917 324.478 617.917C324.478 617.917 327.188 617.726 328.622 617.754C330.056 617.783 332.245 617.899 332.256 617.285C332.267 616.671 331.051 607.662 331.051 607.662L321.829 608.741Z" fill="#FFD3B6"/>
<path d="M332.696 607.99C332.351 608.161 329.964 608.721 327.393 609.197C327.221 609.227 327.047 609.26 326.873 609.291C326.484 609.361 326.092 609.427 325.707 609.491C323.158 609.905 320.828 610.135 320.544 609.717C319.913 608.786 300.994 553.759 300.143 547.04C299.292 540.323 295.446 519.664 294.468 513.844C293.493 508.023 291.735 495.087 291.735 495.087C291.735 495.087 302.693 492.249 310.139 491.968C313.619 491.836 316.332 492.26 316.809 493.789C316.809 493.789 319.924 501.065 320.742 515.531C321.561 529.998 318.518 548.459 319.22 551.629C319.92 554.794 322.711 561.958 326.253 575.617C329.788 589.279 333.462 607.608 332.696 607.99Z" fill="#3D237C"/>
<path d="M333.543 623.17C333.488 624.01 317.762 624.854 317.762 624.854C317.762 624.854 312.794 625.703 311.791 625.052C311.496 624.863 311.349 624.53 311.336 624.144C311.305 623.209 312.064 621.957 313.479 621.612C315.476 621.125 318.382 619.816 319.788 618.476C321.193 617.135 322.471 616.056 323.765 616.238C325.058 616.42 328.022 616.587 329.779 615.885C331.537 615.183 332.401 614.569 332.822 615.946C333.116 616.912 333.383 619.673 333.493 621.52C333.539 622.301 333.559 622.92 333.543 623.17Z" fill="#3D237C"/>
<path d="M333.542 623.17C333.487 624.01 317.761 624.854 317.761 624.854C317.761 624.854 312.793 625.703 311.79 625.052C311.496 624.863 311.348 624.53 311.335 624.144C312.455 624.223 313.977 624.26 315.504 624.074C318.473 623.712 323.364 622.705 327.059 622.567C329.752 622.466 332.15 622.053 333.494 621.518C333.538 622.301 333.558 622.92 333.542 623.17Z" fill="#9EA8DB"/>
<path d="M317.247 619.515C316.934 619.509 316.921 620.14 317.236 620.147C317.819 620.16 318.254 620.693 318.65 621.184C318.874 621.465 319.229 621.027 319.002 620.746C318.509 620.132 317.966 619.531 317.247 619.515Z" fill="#9EA8DB"/>
<path d="M318.558 619.033C318.25 619.077 318.234 619.709 318.547 619.665C319.163 619.577 319.715 619.873 320.097 620.503C320.291 620.821 320.641 620.378 320.449 620.064C319.998 619.32 319.284 618.93 318.558 619.033Z" fill="#9EA8DB"/>
<path d="M322.533 618.122C322.427 617.795 322.141 617.605 321.778 617.6C321.569 617.596 321.259 617.501 321.035 617.429L320.944 617.401L320.889 617.44C320.85 617.469 320.808 617.497 320.766 617.523C320.7 617.429 320.623 617.344 320.535 617.271C320.229 617.025 319.86 617.032 319.561 617.036C319.409 617.039 319.154 617.043 318.984 617.271C318.808 617.506 318.804 617.916 318.976 618.188C319.11 618.403 319.33 618.524 319.583 618.517C319.794 618.513 319.99 618.423 320.159 618.339C320.331 618.254 320.498 618.16 320.665 618.059C320.727 618.19 320.782 618.337 320.837 618.489C320.876 618.596 320.918 618.706 320.96 618.809C321.006 618.921 321.061 619.035 321.147 619.123C321.252 619.23 321.38 619.269 321.479 619.291C321.556 619.309 321.631 619.318 321.703 619.32C321.912 619.324 322.097 619.263 322.249 619.14C322.484 618.94 322.658 618.506 322.533 618.122ZM320.043 617.945C319.902 618.015 319.737 618.092 319.578 618.096C319.429 618.1 319.299 618.035 319.226 617.92C319.16 617.815 319.156 617.644 319.215 617.563C319.284 617.471 319.424 617.462 319.561 617.46C319.62 617.458 319.686 617.458 319.75 617.46C319.961 617.464 320.186 617.493 320.359 617.633C320.392 617.659 320.423 617.69 320.452 617.723C320.32 617.8 320.183 617.874 320.043 617.945ZM322.075 618.78C321.908 618.919 321.69 618.908 321.536 618.872C321.475 618.859 321.4 618.837 321.351 618.787C321.314 618.747 321.283 618.686 321.248 618.603C321.206 618.504 321.169 618.401 321.131 618.298C321.076 618.153 321.021 618.006 320.96 617.866C320.969 617.859 320.98 617.852 320.988 617.846C321.226 617.923 321.538 618.01 321.776 618.019C321.945 618.015 322.17 618.089 322.234 618.287C322.289 618.46 322.196 618.682 322.075 618.78Z" fill="#9EA8DB"/>
<path d="M276.624 624.883C276.481 625.793 260.323 624.925 260.323 624.925C260.323 624.925 255.16 625.284 254.201 624.46C253.92 624.221 253.803 623.839 253.827 623.418C253.889 622.398 254.793 621.117 256.274 620.902C258.366 620.599 261.467 619.5 263.04 618.199C264.613 616.898 266.028 615.867 267.332 616.214C268.639 616.561 271.646 617.078 273.516 616.512C275.384 615.949 276.329 615.376 276.62 616.925C276.824 618.011 276.816 621.051 276.741 623.076C276.71 623.933 276.666 624.611 276.624 624.883Z" fill="#2F2159"/>
<path d="M276.624 624.883C276.481 625.793 260.323 624.925 260.323 624.925C260.323 624.925 255.16 625.284 254.201 624.46C253.92 624.22 253.803 623.839 253.827 623.418C254.962 623.63 256.516 623.845 258.095 623.815C261.168 623.758 266.267 623.216 270.058 623.488C272.821 623.685 275.313 623.508 276.741 623.078C276.71 623.933 276.666 624.611 276.624 624.883Z" fill="#525FBA"/>
<path d="M260.338 619.046C260.019 619.002 259.942 619.691 260.264 619.733C260.858 619.812 261.249 620.443 261.606 621.025C261.808 621.356 262.213 620.917 262.01 620.586C261.568 619.862 261.075 619.145 260.338 619.046Z" fill="#9EA8DB"/>
<path d="M261.729 618.669C261.41 618.682 261.331 619.369 261.654 619.356C262.292 619.332 262.827 619.715 263.154 620.444C263.319 620.812 263.724 620.371 263.559 620.005C263.172 619.147 262.481 618.641 261.729 618.669Z" fill="#9EA8DB"/>
<path d="M265.882 618.129C265.807 617.761 265.532 617.522 265.163 617.473C264.949 617.445 264.644 617.307 264.421 617.201L264.333 617.16L264.272 617.197C264.228 617.223 264.184 617.25 264.138 617.274C264.08 617.162 264.01 617.061 263.926 616.973C263.638 616.671 263.26 616.636 262.954 616.607C262.798 616.592 262.536 616.57 262.34 616.796C262.138 617.03 262.092 617.478 262.237 617.794C262.354 618.044 262.565 618.2 262.824 618.221C263.042 618.239 263.251 618.164 263.432 618.092C263.614 618.02 263.797 617.936 263.977 617.844C264.025 617.996 264.067 618.162 264.109 618.331C264.14 618.454 264.171 618.577 264.204 618.695C264.239 618.823 264.285 618.954 264.362 619.059C264.459 619.189 264.584 619.246 264.683 619.281C264.76 619.307 264.835 619.327 264.91 619.336C265.123 619.364 265.319 619.318 265.484 619.202C265.752 619.016 265.972 618.564 265.882 618.129ZM263.357 617.653C263.205 617.715 263.029 617.778 262.866 617.765C262.714 617.752 262.587 617.667 262.525 617.533C262.468 617.41 262.481 617.223 262.552 617.142C262.631 617.05 262.774 617.054 262.915 617.068C262.976 617.074 263.042 617.079 263.108 617.087C263.324 617.116 263.55 617.173 263.713 617.344C263.744 617.377 263.772 617.414 263.799 617.454C263.656 617.526 263.506 617.592 263.357 617.653ZM265.348 618.796C265.163 618.928 264.941 618.891 264.787 618.836C264.725 618.814 264.65 618.783 264.606 618.722C264.571 618.676 264.547 618.603 264.52 618.509C264.487 618.397 264.461 618.281 264.43 618.164C264.391 618 264.349 617.833 264.298 617.673C264.309 617.667 264.32 617.66 264.331 617.656C264.567 617.765 264.875 617.899 265.119 617.934C265.29 617.949 265.515 618.057 265.561 618.279C265.601 618.469 265.482 618.702 265.348 618.796Z" fill="#9EA8DB"/>
<g opacity="0.42">
<path d="M332.693 607.988C332.273 608.196 328.826 608.982 325.702 609.491C325.99 597.329 317.371 567.392 314.762 560.365C311.511 551.609 311.128 545.93 312.521 537.074C313.913 528.219 309.786 497.074 309.786 497.074C309.819 495.153 309.936 493.457 310.131 491.963C313.609 491.832 316.324 492.257 316.801 493.786C316.801 493.786 319.916 501.062 320.735 515.529C321.555 529.998 318.511 548.459 319.212 551.626C319.912 554.794 322.706 561.954 326.245 575.615C329.787 589.277 333.459 607.611 332.693 607.988Z" fill="#2F2159"/>
</g>
<path d="M327.39 609.197C327.219 609.228 327.045 609.26 326.871 609.291C324.924 599.626 320.412 584.701 317.223 574.155C315.293 567.773 313.769 562.733 313.358 560.728C313.144 559.69 312.913 558.707 312.689 557.758C311.54 552.897 310.456 548.306 311.545 536.208C312.827 521.954 308.102 494.87 308.054 494.598L308.562 494.469C308.61 494.741 313.353 521.919 312.06 536.269C310.984 548.249 312.053 552.785 313.188 557.587C313.413 558.543 313.646 559.528 313.861 560.574C314.266 562.548 315.784 567.576 317.709 573.937C321.09 585.125 325.483 599.648 327.39 609.197Z" fill="#525FBA"/>
<path d="M318.359 493.801C316.144 498.476 284.717 496.133 282.146 494.655C281.798 494.455 281.56 493.268 281.409 491.358C280.441 479.142 283.059 437.354 283.712 435.367C284.466 433.066 292.881 428.832 292.881 428.832C292.881 428.832 292.069 433.27 295.191 433.081C298.312 432.89 303.854 427.161 303.854 427.161L317.156 432.364C317.156 432.364 318.896 439.559 318.969 447.118C318.993 449.636 318.832 452.196 318.359 454.543C316.474 463.938 320.577 489.127 318.359 493.801Z" fill="#F4677F"/>
<path d="M318.359 493.801C316.144 498.476 284.717 496.133 282.145 494.655C281.798 494.455 281.56 493.268 281.408 491.358H306.557C306.557 491.358 310.05 487.045 311.495 481.193C312.938 475.34 310.052 468.716 307.855 459.937C305.657 451.158 307.855 441.915 307.855 441.915L318.968 447.12C318.992 449.638 318.832 452.198 318.359 454.545C316.474 463.938 320.576 489.127 318.359 493.801Z" fill="#DD4B80"/>
<path d="M140.472 624.689C148.974 624.689 155.866 617.817 155.866 609.339C155.866 600.861 148.974 593.988 140.472 593.988C131.969 593.988 125.077 600.861 125.077 609.339C125.077 617.817 131.969 624.689 140.472 624.689Z" fill="#4D516D"/>
<path d="M140.472 617.701C145.103 617.701 148.858 613.957 148.858 609.339C148.858 604.721 145.103 600.977 140.472 600.977C135.84 600.977 132.086 604.721 132.086 609.339C132.086 613.957 135.84 617.701 140.472 617.701Z" fill="white"/>
<path d="M232.015 542.88V574.577C232.015 576.056 231.584 577.506 230.772 578.743L225.963 586.094C224.549 588.252 222.142 589.553 219.56 589.553H136.384C133.535 589.553 130.924 587.976 129.606 585.46L109.282 546.673L106.873 542.075L115.936 542.132L217.542 542.788L232.015 542.88Z" fill="#D7DFE4"/>
<g opacity="0.53">
<path d="M232.016 542.88V574.577C232.016 576.056 231.585 577.506 230.773 578.743L225.964 586.094C224.55 588.252 222.143 589.553 219.561 589.553H136.385C133.536 589.553 130.925 587.976 129.607 585.46L109.283 546.673L106.874 542.075L115.937 542.132L138.761 581.235H174.961L217.543 542.788L232.016 542.88Z" fill="#BDC9D3"/>
</g>
<g opacity="0.73">
<path d="M232.014 542.88V546.673H109.279L106.87 542.075L232.014 542.88Z" fill="#F0F5F9"/>
</g>
<path d="M235.781 542.88H104.808C103.928 542.88 103.215 542.17 103.215 541.292V536.611C103.215 535.734 103.928 535.023 104.808 535.023H235.781C236.661 535.023 237.374 535.734 237.374 536.611V541.292C237.374 542.17 236.659 542.88 235.781 542.88Z" fill="#D7DFE4"/>
<path d="M344.022 499.382L253.292 521.157C252.561 521.333 251.899 521.747 251.422 522.324L201.591 582.698C200.683 583.797 199.523 584.705 198.239 585.328L140.17 613.351C139.716 613.57 139.232 613.673 138.762 613.673C137.75 613.673 136.773 613.202 136.157 612.368C136.034 612.208 135.928 612.032 135.838 611.846C135.057 610.24 135.735 608.303 137.347 607.525L187.235 583.448L195.412 579.502C195.861 579.287 196.265 578.969 196.582 578.585L202.85 570.991L245.663 519.126L246.413 518.216C247.779 516.559 249.684 515.37 251.774 514.87L251.851 514.853L342.502 493.093C344.242 492.676 345.995 493.744 346.415 495.481C346.442 495.587 346.462 495.694 346.475 495.799C346.701 497.425 345.656 498.989 344.022 499.382Z" fill="#E2E9EE"/>
<path d="M229.119 549.347V611.488H217.493L199.958 592.786L196.942 589.568L204.006 589.535L219.713 606.406H224.02V555.524L229.119 549.347Z" fill="#C9D4DB"/>
<path d="M229.119 549.347V561.361L227.729 562.291V607.805H218.14L205.099 592.786H199.958L196.942 589.568L204.006 589.535L219.713 606.406H224.02V555.524L229.119 549.347Z" fill="#E2E9EE"/>
<path d="M344.022 499.382L253.292 521.157C252.562 521.333 251.899 521.747 251.422 522.324L201.591 582.698C200.683 583.797 199.524 584.705 198.239 585.328L140.17 613.351C139.717 613.57 139.233 613.673 138.762 613.673C137.75 613.673 136.773 613.202 136.157 612.368L188.12 587.124L187.235 583.448L195.412 579.502C195.861 579.287 196.266 578.969 196.582 578.585L202.85 570.991L205.1 574.303L246.873 522.462L245.663 519.124L246.413 518.213C247.779 516.557 249.684 515.368 251.774 514.868L251.851 514.851L254.878 517.558L346.477 495.797C346.701 497.425 345.657 498.989 344.022 499.382Z" fill="#D0D9DE"/>
<path d="M197.276 587.122C200.25 587.122 202.661 584.718 202.661 581.752C202.661 578.786 200.25 576.382 197.276 576.382C194.302 576.382 191.891 578.786 191.891 581.752C191.891 584.718 194.302 587.122 197.276 587.122Z" fill="#E9F3FB"/>
<path d="M313.991 495.13C313.991 495.13 309.259 499.678 307.994 500.215C306.729 500.752 304.336 502.678 303.794 505.142C303.253 507.607 302.791 509.472 303.176 509.503C303.563 509.533 304.017 510.139 304.259 509.503C304.501 508.866 305.185 506.601 305.185 506.601C305.185 506.601 305.108 509.514 305.339 509.792C305.57 510.073 306.421 509.974 306.652 509.792C306.883 509.61 307.347 506.601 307.347 506.601C307.347 506.601 307.281 509.786 307.855 509.968C308.429 510.15 309.204 511.051 309.666 509.503C310.128 507.956 310.669 506.601 310.669 506.601L317.928 504.528C320.091 501.601 319.952 499.522 319.952 499.522L313.991 495.13Z" fill="#FFD3B6"/>
<path d="M336.081 468.332C336.026 471.396 335.438 474.665 334.543 477.918C331.767 487.995 326.003 497.934 323.683 501.213C320.614 505.554 314.186 499.886 311.984 497.625C309.782 495.361 323.337 475.645 322.873 469.222C322.409 462.799 309.434 449.307 307.995 443.068C306.557 436.83 316.757 432.155 316.757 432.155C319.281 430.734 332.922 450.728 335.619 463.958C335.94 465.526 336.105 467 336.081 468.332Z" fill="#FC7C7C"/>
<path d="M336.081 468.331C336.026 471.396 335.439 474.664 334.543 477.917C332.412 476.463 331.013 474.017 331.013 471.247C331.013 468.033 332.894 465.258 335.619 463.958C335.94 465.526 336.105 467 336.081 468.331Z" fill="#FFB8B8"/>
<path d="M316.072 499.88L315.458 499.555C315.583 499.318 328.076 475.702 327.625 467.463C327.172 459.224 311.371 435.988 311.21 435.755L311.784 435.365C312.44 436.326 327.856 458.994 328.318 467.426C328.782 475.858 316.591 498.904 316.072 499.88Z" fill="#FFB8B8"/>
<path d="M287.5 438.92C287.5 438.92 281.912 458.858 291.58 460.244C301.249 461.63 308.627 438.218 305.633 437.909C302.639 437.602 299.473 442.068 296.035 440.375C292.597 438.679 289.508 433.923 287.5 438.92Z" fill="#FC7C7C"/>
<path d="M280.393 401.094C280.393 401.094 279.794 388.157 289.595 386.461C299.393 384.768 309.123 388.771 311.208 397.859C313.294 406.947 309.615 413.745 307.961 412.521C306.307 411.297 300.458 405.188 294.672 402.911C288.889 400.634 280.393 401.094 280.393 401.094Z" fill="#FFB450"/>
<path d="M305.005 389.087C305.005 389.087 296.303 389.85 293.832 395.858C291.36 401.867 291.36 401.867 291.36 401.867L285.66 401.169C285.66 401.169 284.245 396.012 288.344 390.469C292.44 384.923 292.464 384 294.461 384C296.457 383.998 307.374 387.246 305.005 389.087Z" fill="#FFC84A"/>
<path d="M280.393 401.095C280.393 401.095 276.405 403.69 277.45 404.33C278.495 404.971 301.254 406.835 301.254 406.835C301.254 406.835 293.06 399.248 280.393 401.095Z" fill="#FF8E55"/>
<path d="M412.753 399.053C415.224 401.832 416.402 401.633 416.402 401.633L422.434 398.468L423.168 398.085L436.059 391.317C436.059 391.317 436.059 391.317 436.061 391.314C436.061 391.314 436.061 391.314 436.063 391.312C436.109 391.113 438.342 381.63 435.001 376.859C430.989 374.682 421.911 371.278 412.073 377.771H412.071C410.684 379.834 410.993 381.902 412.268 383.67C412.268 383.67 412.268 383.67 412.264 383.667C412.135 383.693 408.175 384.473 408.158 388.301C408.142 392.193 410.287 396.282 412.753 399.053Z" fill="#5B3939"/>
<path d="M435.688 383.71C435.688 383.71 437.912 389.902 437.059 396.784C436.206 403.666 431.832 405.817 430.024 406.627C428.216 407.437 426.646 407.428 426.646 407.428L427.347 410.962C427.347 410.962 430.903 417.321 424.688 418.391C418.474 419.462 407.928 413.156 407.928 413.156C407.928 413.156 417.181 406.947 417.003 404.002C416.825 401.058 416.3 398.156 415.692 397.677C415.083 397.196 414.078 398.303 412.907 396.251C411.738 394.202 413.563 391.418 414.919 391.274C416.276 391.129 417.994 396.571 418.595 396.505C419.196 396.438 420.146 396.175 419.792 395.365C419.438 394.555 418.474 392.565 418.742 392.025C419.01 391.485 422.07 388.846 423.094 387.074C424.118 385.302 424.237 384.551 424.237 384.551C424.237 384.551 426.009 385.69 429.951 385.15C433.892 384.61 435.688 383.71 435.688 383.71Z" fill="#F48E76"/>
<path d="M426.367 408.319C426.367 408.319 424.863 408.541 422.927 406.893C420.991 405.246 418.687 400.856 418.687 400.856C418.687 400.856 418.981 404.374 421.359 407.833C423.737 411.292 427.17 411.893 427.17 411.893L426.367 408.319Z" fill="#C65252"/>
<path d="M378.977 594.062L374.408 609.544L382.975 614.13L389.544 597.216L378.977 594.062Z" fill="#F48E76"/>
<path d="M438.74 472.552C438.74 472.552 445.801 530.705 446.086 539.304C446.371 547.906 447.229 607.821 446.086 608.968C444.943 610.114 434.949 609.255 435.234 606.388C435.519 603.522 424.669 567.113 425.239 556.792C425.809 546.47 426.667 542.744 425.239 539.304C423.811 535.865 414.387 513.789 415.245 500.03C416.102 486.269 426.826 465.142 438.74 472.552Z" fill="#2F2159"/>
<path d="M437.519 479.103C437.519 479.103 419.813 544.467 418.673 548.193C417.532 551.919 389.544 601.802 387.831 602.089C387.48 602.148 386.826 602.157 386.011 602.098C385.819 602.084 385.62 602.067 385.415 602.044C382.217 601.7 377.34 600.352 377.552 596.929C377.837 592.343 380.407 582.595 386.403 567.114C392.4 551.633 400.682 539.018 400.967 538.445C401.252 537.871 394.97 500.03 396.968 490.855C398.966 481.68 403.25 476.521 403.25 476.521L417.827 477.617L433.295 478.78L437.519 479.103Z" fill="#3D237C"/>
<path d="M405.249 496.877C403.252 511.498 408.675 533.285 407.535 539.307C406.392 545.326 395.255 564.25 391.257 575.142C387.543 585.257 380.385 595.619 386.011 602.098C382.868 601.866 377.323 600.573 377.549 596.929C377.834 592.343 380.404 582.595 386.401 567.114C392.397 551.633 400.679 539.018 400.964 538.445C401.249 537.871 394.967 500.03 396.965 490.855C398.963 481.68 403.247 476.521 403.247 476.521L417.824 477.617C412.595 481.934 406.371 488.657 405.249 496.877Z" fill="#2F2159"/>
<g opacity="0.58">
<path d="M437.519 479.103C437.519 479.103 419.813 544.466 418.673 548.193C417.532 551.919 389.544 601.802 387.831 602.089C387.48 602.148 386.826 602.157 386.011 602.098C385.819 602.084 385.619 602.067 385.415 602.044C393.642 587.216 411.536 555.105 415.244 549.626C419.29 543.654 429.879 494.873 433.297 478.783L437.519 479.103Z" fill="#525FBA"/>
</g>
<path d="M396.785 624.866C396.676 625.389 396.391 625.74 395.825 625.884C394.683 626.171 379.835 619.005 376.406 617.569C372.981 616.136 369.267 614.99 370.125 612.696C370.125 612.696 370.322 612.118 370.657 611.249C371.762 608.357 374.366 602.264 376.124 603.811C378.409 605.817 379.549 607.25 382.693 608.11C385.833 608.97 387.261 608.683 388.689 611.55C390.117 614.416 390.402 616.709 392.687 618.716C394.973 620.722 396.4 621.009 396.685 622.729C396.828 623.603 396.899 624.328 396.785 624.866Z" fill="#3D237C"/>
<path d="M396.785 624.866C396.676 625.389 396.391 625.74 395.825 625.884C394.683 626.171 379.835 619.005 376.406 617.569C372.981 616.136 369.267 614.99 370.125 612.696C370.125 612.696 370.322 612.118 370.657 611.249C372.242 612.488 374.957 614.449 377.552 615.563C381.55 617.283 382.405 617.569 385.548 619.862C388.29 621.869 393.436 624.75 396.785 624.866Z" fill="#9EA8DB"/>
<path d="M390.459 615.658C390.863 615.741 391.037 615.118 390.63 615.035C389.53 614.812 388.449 614.971 387.464 615.513C387.1 615.712 387.426 616.269 387.787 616.07C388.616 615.615 389.533 615.471 390.459 615.658Z" fill="#9EA8DB"/>
<path d="M391.847 616.871C390.797 616.745 389.702 616.707 388.896 617.503C388.602 617.794 389.056 618.252 389.35 617.96C390.02 617.297 390.992 617.415 391.847 617.517C392.256 617.565 392.253 616.92 391.847 616.871Z" fill="#9EA8DB"/>
<path d="M388.537 613.469C388.554 613.493 388.568 613.516 388.585 613.542C388.587 613.639 388.632 613.732 388.732 613.779C388.746 613.805 388.763 613.831 388.777 613.857C388.901 614.082 389.159 614.045 389.293 613.895C390.233 614.054 391.697 614.184 392.077 613.362C392.414 612.633 391.884 611.623 391.122 611.46C390.172 611.259 389.369 611.986 388.639 612.59C387.974 611.896 387.078 611.408 386.104 611.436C385.114 611.465 384.515 612.41 384.817 613.398C385.102 614.336 386.551 614.286 387.33 614.092C387.782 613.981 388.166 613.741 388.537 613.469ZM390.131 612.294C391.074 613.047 391.138 613.381 390.331 613.301C389.929 613.327 389.532 613.296 389.136 613.218C389.105 613.17 389.074 613.125 389.041 613.08C389.297 612.87 389.82 612.306 390.131 612.294ZM385.765 612.573C385.917 612.036 386.244 611.905 386.746 612.18C387.024 612.249 387.28 612.358 387.518 612.507C387.751 612.642 387.953 612.803 388.131 612.981C388.102 613.002 388.071 613.024 388.043 613.042C387.387 613.471 384.795 613.985 385.765 612.573Z" fill="#9EA8DB"/>
<path d="M434.918 602.911L437.332 618.875L447.029 619.375L445.818 601.262L434.918 602.911Z" fill="#F48E76"/>
<path d="M464.072 623.205C464.196 623.727 464.087 624.165 463.635 624.537C462.723 625.283 446.247 625.127 442.539 625.29C438.831 625.454 434.984 625.998 434.789 623.556C434.789 623.556 434.723 622.947 434.659 622.019C434.435 618.929 434.217 612.304 436.46 612.953C439.377 613.796 441.016 614.606 444.226 614.045C447.435 613.483 448.604 612.616 451.111 614.601C453.617 616.589 454.845 618.543 457.763 619.384C460.68 620.228 462.093 619.877 463.079 621.313C463.576 622.042 463.949 622.67 464.072 623.205Z" fill="#3D237C"/>
<path d="M464.072 623.205C464.195 623.727 464.086 624.165 463.635 624.537C462.722 625.283 446.247 625.127 442.538 625.29C438.83 625.454 434.984 625.998 434.789 623.556C434.789 623.556 434.722 622.947 434.658 622.019C436.618 622.464 439.906 623.082 442.724 622.985C447.071 622.838 447.967 622.732 451.782 623.468C455.113 624.113 460.991 624.527 464.072 623.205Z" fill="#9EA8DB"/>
<path d="M454.448 617.567C454.847 617.47 454.743 616.833 454.339 616.932C453.249 617.2 452.336 617.804 451.673 618.716C451.429 619.053 451.958 619.417 452.203 619.081C452.761 618.313 453.529 617.792 454.448 617.567Z" fill="#9EA8DB"/>
<path d="M456.218 618.075C455.216 618.409 454.206 618.842 453.814 619.903C453.669 620.294 454.275 620.512 454.418 620.124C454.743 619.238 455.672 618.93 456.489 618.657C456.884 618.527 456.606 617.944 456.218 618.075Z" fill="#9EA8DB"/>
<path d="M451.783 616.404C451.806 616.418 451.833 616.435 451.856 616.449C451.899 616.537 451.98 616.601 452.089 616.603C452.113 616.62 452.139 616.636 452.163 616.655C452.369 616.805 452.586 616.66 452.645 616.471C453.564 616.212 454.942 615.708 454.94 614.8C454.938 613.997 454.03 613.308 453.27 613.486C452.324 613.708 451.906 614.71 451.5 615.568C450.604 615.224 449.587 615.163 448.718 615.604C447.834 616.051 447.692 617.162 448.383 617.93C449.039 618.657 450.329 617.994 450.951 617.487C451.315 617.191 451.562 616.809 451.783 616.404ZM452.728 614.661C453.899 614.94 454.101 615.215 453.334 615.487C452.982 615.682 452.609 615.824 452.217 615.921C452.17 615.893 452.122 615.864 452.072 615.836C452.215 615.537 452.453 614.805 452.728 614.661ZM448.894 616.776C448.803 616.224 449.046 615.966 449.616 616.002C449.896 615.945 450.174 615.935 450.455 615.968C450.723 615.992 450.973 616.051 451.21 616.137C451.191 616.167 451.174 616.2 451.155 616.229C450.744 616.897 448.613 618.468 448.894 616.776Z" fill="#9EA8DB"/>
<path d="M459.5 469.257L455.667 470.733C455.667 470.733 444.361 458.147 443.506 456.55C443.171 455.922 442.429 453.686 441.657 451.204C440.462 447.378 439.187 442.967 439.187 442.967L449.478 439.117C449.478 439.117 450.063 441.408 450.785 444.12C451.768 447.795 452.997 452.253 453.372 452.89C454.018 453.989 459.321 468.949 459.5 469.257Z" fill="#F48E76"/>
<path d="M450.783 444.12C449.69 445.433 448.431 446.84 447.013 448.245C445.48 449.763 443.587 450.675 441.655 451.201C440.46 447.375 439.185 442.964 439.185 442.964L449.476 439.115C449.476 439.117 450.061 441.408 450.783 444.12Z" fill="#C65252"/>
<path d="M450.2 441.92C450.032 445.314 439.464 444.58 439.464 444.58C439.464 444.58 439.985 450.63 440.422 457.993C440.819 464.699 441.149 472.5 440.947 477.8C440.88 479.553 440.757 481.031 440.56 482.109C440.362 483.184 440.089 483.859 439.73 484.006C436.709 485.233 404.689 484.544 400.852 484.006C397.015 483.468 399.868 482.106 400.493 473.512C400.693 470.738 400.674 466.898 400.553 462.968C400.467 460.175 400.334 457.337 400.189 454.802C399.914 449.844 399.609 446.058 399.609 446.058C399.609 446.058 397.336 451.433 396.994 452.909C396.942 453.146 396.671 453.293 396.25 453.364C394.031 453.76 387.546 452.134 385.415 450.694C384.999 450.412 384.954 449.458 385.184 448.046C385.213 447.885 385.227 447.792 385.227 447.792C386.536 440.392 394.587 421.568 396.398 418.055C398.137 414.672 408.105 410.505 412.129 408.932C413.172 408.527 413.814 408.292 413.814 408.292C413.814 408.292 413.764 410.605 415.569 413.099C417.373 415.596 424.089 418.403 426.45 417.778C428.812 417.155 427.567 409.617 427.567 409.617C427.567 409.617 428.512 410.031 429.926 410.652C433.737 412.324 440.944 415.496 442.113 416.077C443.715 416.873 450.371 438.525 450.2 441.92Z" fill="#62D37A"/>
<path d="M405.006 470.347C404.381 471.752 402.815 479.586 404.692 479.955C406.163 480.249 430.219 481.557 440.563 482.109C440.366 483.184 440.092 483.859 439.734 484.006C436.712 485.233 404.692 484.544 400.855 484.006C397.018 483.468 399.872 482.106 400.496 473.512C401.119 464.92 399.615 446.058 399.615 446.058L407.163 426.168C407.084 426.569 404.538 439.456 404.538 448.823C404.538 456.297 429.658 457.728 440.427 457.995C440.824 464.702 441.154 472.503 440.952 477.802C431.825 475.554 405.521 469.186 405.006 470.347Z" fill="#40A885"/>
<path d="M439.468 444.58L436.652 428.466L445.212 444.478L439.468 444.58Z" fill="#40A885"/>
<path d="M428.923 418.09C427.184 421.99 424.089 420.898 418.615 417.621C415.13 415.537 413.127 411.552 412.132 408.93C413.175 408.525 413.816 408.29 413.816 408.29C413.816 408.29 413.766 410.602 415.572 413.097C417.375 415.593 424.091 418.401 426.453 417.775C428.814 417.152 427.569 409.614 427.569 409.614C427.569 409.614 428.515 410.029 429.928 410.65C429.973 413.116 429.805 416.108 428.923 418.09Z" fill="#D0E286"/>
<path d="M433.765 471.098C431.656 470.979 425.334 467.13 423.744 466.687C422.155 466.244 413.272 465.026 409.096 464.444C407.457 464.214 404.159 463.667 400.555 462.965C394.97 461.871 388.658 460.407 386.698 459.182C383.901 457.431 384.852 450.147 385.156 448.247C384.966 449.548 385.025 450.424 385.419 450.694C387.55 452.134 394.036 453.762 396.255 453.364L396.257 453.366L396.927 453.999C396.927 453.999 398.279 454.323 400.194 454.8C402.648 455.411 406.024 456.275 408.656 457.033C413.348 458.389 421.378 461.12 424.155 461.037C426.937 460.956 429.624 461.373 430.924 461.982C432.226 462.591 431.848 463.354 432.021 465.168C432.192 466.981 434.535 469.712 436.652 470.347C438.773 470.987 435.872 471.214 433.765 471.098Z" fill="#F48E76"/>
<path d="M440.034 472.785C440.034 472.785 439.2 467.675 445.769 469.755C452.34 471.835 454.759 473.919 452.454 474.438C450.15 474.957 442.64 474.983 440.034 472.785Z" fill="#F48E76"/>
<path d="M426.354 393.683C426.851 393.683 427.254 393.281 427.254 392.785C427.254 392.289 426.851 391.887 426.354 391.887C425.856 391.887 425.453 392.289 425.453 392.785C425.453 393.281 425.856 393.683 426.354 393.683Z" fill="#604A42"/>
<path d="M433.032 393.209C433.217 393.671 433.74 393.894 434.203 393.711C434.666 393.529 434.889 393.005 434.706 392.543C434.521 392.081 433.999 391.859 433.535 392.041C433.072 392.224 432.846 392.747 433.032 393.209Z" fill="#604A42"/>
<path d="M433.896 401.138C433.96 401.022 433.988 400.946 433.991 400.934C434.041 400.799 433.969 400.648 433.834 400.598C433.699 400.548 433.546 400.619 433.497 400.754C433.482 400.792 433.124 401.711 431.843 402.029C430.555 402.349 428.914 400.821 428.9 400.804C428.795 400.705 428.629 400.709 428.529 400.814C428.429 400.92 428.434 401.084 428.538 401.183C428.615 401.254 430.406 402.924 431.971 402.536C433.159 402.244 433.699 401.5 433.896 401.138Z" fill="#C65252"/>
<path d="M425.413 398.878C426.28 398.861 426.974 398.297 426.959 397.62C426.947 396.94 426.232 396.405 425.365 396.421C424.498 396.438 423.804 397.002 423.819 397.679C423.83 398.357 424.546 398.894 425.413 398.878Z" fill="#C65252"/>
<path d="M434.951 395.585C434.424 395.796 434.139 396.324 434.315 396.767C434.49 397.21 435.063 397.4 435.593 397.189C436.12 396.978 436.405 396.45 436.229 396.007C436.051 395.564 435.479 395.374 434.951 395.585Z" fill="#C65252"/>
<path d="M430.185 394.081C430.596 394.773 431.007 395.467 431.418 396.158C431.577 396.426 431.981 396.853 431.858 397.179C431.782 397.381 431.095 397.703 430.91 397.831C430.508 398.106 431.017 398.667 431.413 398.395C431.984 398.004 432.948 397.632 432.654 396.791C432.49 396.322 432.117 395.85 431.862 395.424C431.53 394.86 431.195 394.299 430.862 393.735C430.613 393.318 429.936 393.659 430.185 394.081Z" fill="#C65252"/>
<path d="M424.79 391.087C424.809 390.764 425.679 390.191 425.921 390.049C426.403 389.765 427.004 389.625 427.527 389.888C427.959 390.104 428.38 389.473 427.943 389.258C427.197 388.886 426.384 388.936 425.653 389.331C425.068 389.649 424.075 390.333 424.03 391.056C424.002 391.539 424.759 391.575 424.79 391.087Z" fill="#604A42"/>
<path d="M432.825 389.91C433.728 389.606 434.678 389.791 435.358 390.473C435.7 390.817 436.268 390.315 435.923 389.971C435.068 389.111 433.825 388.782 432.664 389.17C432.205 389.324 432.362 390.064 432.825 389.91Z" fill="#604A42"/>
<path d="M466.191 460.288C466.319 463.807 465.484 467.134 463.922 470.021C463.429 470.956 462.846 471.84 462.197 472.675C460.763 474.526 458.993 476.103 456.971 477.325C456.651 477.523 456.325 477.706 455.991 477.885C454.957 478.432 453.874 478.883 452.738 479.228C451.5 479.623 450.202 479.887 448.866 480.007C448.481 480.046 448.089 480.074 447.696 480.087C437.102 480.454 428.204 472.184 427.825 461.619C427.688 457.839 428.654 454.282 430.453 451.254C431.157 450.046 431.997 448.927 432.946 447.909C433.601 447.208 434.304 446.551 435.056 445.967C435.463 445.634 435.887 445.327 436.322 445.039C438.093 443.854 440.074 442.954 442.202 442.414C443.239 442.146 444.319 441.962 445.422 441.877C445.72 441.847 446.021 441.829 446.32 441.82C456.914 441.451 465.812 449.721 466.191 460.288Z" fill="#FCD554"/>
<path d="M456.454 474.928C464.188 469.732 466.227 459.262 461.009 451.544C455.791 443.825 445.291 441.78 437.558 446.976C429.824 452.172 427.785 462.642 433.003 470.36C438.221 478.079 448.721 480.124 456.454 474.928Z" fill="#FF8243"/>
<path d="M455.954 474.189C463.278 469.268 465.21 459.352 460.268 452.041C455.326 444.731 445.382 442.794 438.057 447.715C430.733 452.637 428.801 462.552 433.743 469.863C438.685 477.173 448.629 479.11 455.954 474.189Z" fill="#FFA942"/>
<g opacity="0.65">
<path d="M452.986 471.904C449.258 470.603 446.319 467.664 445.033 463.914C445.033 463.914 445.033 463.914 445.033 463.914L440.338 450.224C444.008 451.532 446.902 454.431 448.19 458.127L452.986 471.904Z" fill="white" stroke="#FFA942" stroke-width="0.7"/>
<path d="M457.903 455.444L446.463 464.338C446.463 464.338 446.463 464.338 446.463 464.338C443.329 466.774 439.256 467.629 435.422 466.682L446.996 457.773C446.996 457.773 446.996 457.773 446.996 457.773C450.101 455.383 454.114 454.537 457.903 455.444Z" fill="white" stroke="#FFA942" stroke-width="0.7"/>
<path d="M457.9 455.448L449.745 461.786C448.707 461.675 447.666 461.47 446.63 461.162C445.593 460.854 444.609 460.456 443.68 459.982L440.331 450.222C441.934 450.795 443.387 451.675 444.626 452.789C444.627 452.789 444.627 452.789 444.628 452.79L444.862 452.529C444.863 452.531 444.865 452.532 444.867 452.534C444.869 452.535 444.871 452.537 444.873 452.538C445.404 453.017 445.897 453.538 446.345 454.098M457.9 455.448L444.644 452.803M457.9 455.448C456.258 455.056 454.574 454.996 452.936 455.245M457.9 455.448L452.936 455.245M446.345 454.098L446.064 454.306L446.064 454.307L446.065 454.307L446.067 454.31L446.067 454.311M446.345 454.098L446.072 454.316C446.07 454.314 446.069 454.313 446.067 454.311M446.345 454.098C446.346 454.099 446.347 454.1 446.348 454.102C446.353 454.109 446.359 454.116 446.364 454.122M446.067 454.311C445.634 453.771 445.157 453.267 444.644 452.803M446.067 454.311L446.075 454.321C446.079 454.327 446.086 454.336 446.095 454.347M444.644 452.803L444.65 452.808C444.651 452.809 444.65 452.808 444.648 452.807L444.642 452.802C444.641 452.801 444.64 452.8 444.638 452.798C444.637 452.797 444.635 452.795 444.633 452.794L444.633 452.794L444.638 452.798C444.64 452.8 444.642 452.802 444.644 452.803ZM446.095 454.347C446.094 454.345 446.092 454.342 446.09 454.34L446.364 454.122M446.095 454.347C446.536 454.901 446.934 455.489 447.279 456.111L447.279 456.111L447.283 456.119C447.293 456.134 447.295 456.139 447.299 456.147C447.303 456.156 447.309 456.169 447.329 456.205L447.329 456.207C447.442 456.412 447.55 456.622 447.65 456.833L447.817 457.183L448.148 456.982C448.34 456.866 448.535 456.755 448.732 456.649M446.095 454.347C446.099 454.351 446.102 454.355 446.106 454.359L446.364 454.122M446.364 454.122C446.818 454.693 447.229 455.298 447.585 455.941M448.732 456.649C448.761 456.634 448.788 456.618 448.807 456.607L448.81 456.606C448.833 456.593 448.847 456.584 448.86 456.578L448.86 456.578L448.865 456.576C449.157 456.422 449.456 456.281 449.76 456.15M448.732 456.649C448.733 456.648 448.734 456.647 448.735 456.647L448.569 456.339L448.727 456.651C448.729 456.65 448.73 456.649 448.732 456.649ZM447.585 455.941L447.585 455.941L447.585 455.941ZM447.585 455.941C447.597 455.961 447.607 455.98 447.616 456C447.623 456.013 447.63 456.026 447.636 456.039C447.696 456.147 447.754 456.257 447.811 456.368C447.803 456.373 447.794 456.379 447.785 456.384L447.967 456.683L448.283 456.533C448.279 456.524 448.274 456.514 448.27 456.505C448.369 456.448 448.469 456.393 448.569 456.339C448.592 456.327 448.614 456.315 448.636 456.302C448.658 456.29 448.68 456.277 448.702 456.266C449.004 456.107 449.312 455.962 449.624 455.827M449.624 455.827L449.757 456.151C449.758 456.151 449.759 456.15 449.76 456.15M449.624 455.827L449.762 456.149C449.761 456.149 449.76 456.149 449.76 456.15M449.624 455.827C449.647 455.818 449.67 455.809 449.694 455.799C449.717 455.79 449.74 455.781 449.763 455.771C450.047 455.653 450.336 455.545 450.628 455.446M449.76 456.15C449.779 456.142 449.8 456.134 449.823 456.125C449.846 456.115 449.871 456.105 449.896 456.095L449.897 456.095C450.172 455.98 450.452 455.875 450.734 455.78M450.734 455.78C450.732 455.78 450.729 455.781 450.727 455.782L450.628 455.446M450.734 455.78C450.762 455.771 450.787 455.762 450.807 455.756C450.81 455.754 450.814 455.753 450.817 455.752C450.835 455.746 450.846 455.741 450.858 455.738L450.858 455.738L450.861 455.737C451.517 455.522 452.189 455.363 452.872 455.255L452.872 455.255L452.878 455.254L452.903 455.25C452.912 455.249 452.924 455.247 452.936 455.245M450.734 455.78C450.736 455.779 450.738 455.778 450.74 455.778L450.628 455.446M450.628 455.446C450.652 455.439 450.676 455.431 450.7 455.422C450.717 455.416 450.735 455.41 450.752 455.405C451.427 455.183 452.117 455.02 452.818 454.909C452.828 454.908 452.839 454.906 452.849 454.904C452.86 454.903 452.87 454.901 452.881 454.899M452.936 455.245C452.935 455.245 452.934 455.245 452.933 455.245L452.881 454.899M452.936 455.245C452.938 455.244 452.939 455.244 452.941 455.244L452.881 454.899M452.936 455.245L452.881 454.899" fill="white" stroke="#FFA942" stroke-width="0.7"/>
</g>
<g opacity="0.75">
<path d="M461.045 468.623C458.426 473.387 453.43 476.694 447.581 476.896C438.749 477.203 431.339 470.315 431.022 461.506C430.801 455.362 434.086 449.912 439.093 447.078C437.755 449.512 437.037 452.328 437.144 455.303C437.46 464.112 444.871 471 453.703 470.694C456.379 470.602 458.87 469.861 461.045 468.623Z" fill="#FF8243" fill-opacity="0.58"/>
</g>
<path d="M360.81 180.58C364.77 169.49 375.35 161.55 387.8 161.55C391.78 161.55 395.58 162.36 399.03 163.83C401.35 154.18 410.03 147 420.39 147C430.83 147 439.57 154.29 441.8 164.05C443.63 163.56 445.55 163.29 447.54 163.29C458.06 163.29 466.85 170.69 469 180.57H360.81V180.58Z" fill="#F4F7F8"/>
<path d="M18 126C19.2752 109.174 32.1576 95.9615 47.8845 95.9615C50.0589 95.9615 52.1841 96.2233 54.2276 96.712C55.4701 80.6368 67.813 68 82.8534 68C95.1309 68 105.61 76.4129 109.713 88.2468C112.574 86.8853 115.746 86.1174 119.065 86.1174C128.383 86.1174 136.426 92.0692 140.187 100.692C142.622 100.028 145.173 99.6618 147.788 99.6618C162.535 99.6618 174.877 110.92 178 126H18Z" fill="#F4F7F8"/>
<defs>
<clipPath id="clip0_79_690">
<rect width="33.5097" height="33.5097" fill="white" transform="translate(578.672 364.127)"/>
</clipPath>
</defs>
</svg>
