<svg width="167" height="24" viewBox="0 0 167 24" fill="none" xmlns="http://www.w3.org/2000/svg" _ngcontent-ng-c3942390079="" aria-hidden="true" style="width: 168px; height: 24px;">
<path d="M4.4014 20.592V18.614H9.0934C9.99806 18.614 10.6957 18.361 11.1864 17.855C11.6924 17.3337 11.9454 16.6437 11.9454 15.785C11.9454 14.911 11.7001 14.2287 11.2094 13.738C10.7187 13.232 10.0134 12.979 9.0934 12.979H4.4014V11.507H8.7714C9.84473 11.507 10.7877 11.6373 11.6004 11.898C12.4284 12.1587 13.0724 12.5957 13.5324 13.209C14.0077 13.807 14.2454 14.6273 14.2454 15.67V15.992C14.2454 16.9733 14.0461 17.809 13.6474 18.499C13.2487 19.1737 12.6431 19.695 11.8304 20.063C11.0177 20.4157 9.99806 20.592 8.7714 20.592H4.4014ZM2.6074 20.592V3.618H4.8614V20.592H2.6074ZM4.4014 12.565V11.093H8.4724C9.42306 11.093 10.1207 10.84 10.5654 10.334C11.0254 9.81267 11.2554 9.15333 11.2554 8.356C11.2554 7.54333 11.0254 6.884 10.5654 6.378C10.1207 5.85667 9.42306 5.596 8.4724 5.596H4.4014V3.618H8.0814C9.9214 3.618 11.2937 4.009 12.1984 4.791C13.1031 5.55767 13.5554 6.66933 13.5554 8.126V8.448C13.5554 9.47533 13.3254 10.2957 12.8654 10.909C12.4054 11.507 11.7614 11.9363 10.9334 12.197C10.1207 12.4423 9.17006 12.565 8.0814 12.565H4.4014ZM21.6518 20.5V5.274H23.9058V20.5H21.6518ZM16.5458 5.734V3.71H29.0118V5.734H16.5458ZM39.2764 20.914C37.7431 20.914 36.4321 20.6457 35.3434 20.109C34.2701 19.5723 33.4037 18.8747 32.7444 18.016C32.0851 17.1573 31.6021 16.2297 31.2954 15.233C30.9887 14.221 30.8354 13.2473 30.8354 12.312V11.806C30.8354 10.794 30.9887 9.782 31.2954 8.77C31.6174 7.758 32.1081 6.838 32.7674 6.01C33.4267 5.182 34.2854 4.515 35.3434 4.009C36.4014 3.503 37.6664 3.25 39.1384 3.25C40.6411 3.25 41.9291 3.51067 43.0024 4.032C44.0757 4.55333 44.9267 5.28167 45.5554 6.217C46.1841 7.15233 46.5674 8.25633 46.7054 9.529H44.4054C44.2827 8.57833 43.9761 7.79633 43.4854 7.183C42.9947 6.55433 42.3737 6.08667 41.6224 5.78C40.8864 5.47333 40.0584 5.32 39.1384 5.32C38.1417 5.32 37.2677 5.49633 36.5164 5.849C35.7651 6.18633 35.1364 6.66933 34.6304 7.298C34.1397 7.91133 33.7641 8.62433 33.5034 9.437C33.2581 10.2497 33.1354 11.1313 33.1354 12.082C33.1354 12.9867 33.2581 13.8453 33.5034 14.658C33.7641 15.4707 34.1474 16.1913 34.6534 16.82C35.1747 17.4487 35.8187 17.947 36.5854 18.315C37.3521 18.6677 38.2491 18.844 39.2764 18.844C40.7177 18.844 41.9291 18.4837 42.9104 17.763C43.8917 17.0423 44.4897 15.9997 44.7044 14.635H47.0044C46.8511 15.785 46.4601 16.8353 45.8314 17.786C45.2181 18.7367 44.3594 19.4957 43.2554 20.063C42.1667 20.6303 40.8404 20.914 39.2764 20.914Z" fill="#615448" _ngcontent-ng-c3942390079=""></path>
<path d="M51.9446 20.5V3.71H57.8786L61.3286 12.565H61.7886L65.2156 3.71H71.2646V20.5H67.0326V6.171L67.6996 6.217L63.3756 17.119H59.4886L55.1416 6.217L55.8546 6.171V20.5H51.9446ZM75.549 20.5V7.804H79.735V20.5H75.549ZM73.939 10.84V7.804H79.735V10.84H73.939ZM77.274 6.792C76.5074 6.792 75.94 6.60033 75.572 6.217C75.2194 5.81833 75.043 5.31233 75.043 4.699C75.043 4.08567 75.2194 3.58733 75.572 3.204C75.94 2.80533 76.4997 2.606 77.251 2.606C78.0177 2.606 78.5774 2.80533 78.93 3.204C79.2827 3.58733 79.459 4.08567 79.459 4.699C79.459 5.31233 79.2827 5.81833 78.93 6.217C78.5774 6.60033 78.0254 6.792 77.274 6.792ZM83.2724 20.5V7.804H86.5844V13.255H86.4004C86.4004 11.9363 86.569 10.8477 86.9064 9.989C87.2437 9.115 87.742 8.46333 88.4014 8.034C89.076 7.60467 89.8887 7.39 90.8394 7.39H91.0234C92.4647 7.39 93.5764 7.873 94.3584 8.839C95.1557 9.78967 95.5544 11.254 95.5544 13.232V20.5H91.3684V13.117C91.3684 12.5343 91.192 12.059 90.8394 11.691C90.502 11.3077 90.0344 11.116 89.4364 11.116C88.8384 11.116 88.3554 11.3077 87.9874 11.691C87.6347 12.059 87.4584 12.5497 87.4584 13.163V20.5H83.2724ZM104.783 20.96C103.71 20.96 102.759 20.776 101.931 20.408C101.103 20.04 100.405 19.5417 99.8381 18.913C99.2708 18.2843 98.8338 17.579 98.5271 16.797C98.2358 16.015 98.0901 15.21 98.0901 14.382V13.922C98.0901 13.0633 98.2358 12.243 98.5271 11.461C98.8338 10.6637 99.2631 9.95833 99.8151 9.345C100.382 8.73167 101.072 8.24867 101.885 7.896C102.698 7.528 103.618 7.344 104.645 7.344C106.01 7.344 107.167 7.65067 108.118 8.264C109.069 8.87733 109.797 9.69 110.303 10.702C110.809 11.6987 111.062 12.7873 111.062 13.968V15.302H99.8381V13.048H108.647L107.198 14.06C107.198 13.3393 107.098 12.7337 106.899 12.243C106.715 11.737 106.431 11.3537 106.048 11.093C105.68 10.8323 105.212 10.702 104.645 10.702C104.093 10.702 103.61 10.8323 103.196 11.093C102.797 11.3383 102.491 11.7217 102.276 12.243C102.061 12.749 101.954 13.393 101.954 14.175C101.954 14.8803 102.054 15.4937 102.253 16.015C102.452 16.521 102.759 16.912 103.173 17.188C103.587 17.464 104.124 17.602 104.783 17.602C105.366 17.602 105.841 17.5023 106.209 17.303C106.592 17.1037 106.861 16.8353 107.014 16.498H110.832C110.648 17.3567 110.28 18.1233 109.728 18.798C109.191 19.4727 108.501 20.0017 107.658 20.385C106.83 20.7683 105.872 20.96 104.783 20.96ZM119.777 20.684C118.397 20.684 117.293 20.5153 116.465 20.178C115.653 19.8407 115.062 19.281 114.694 18.499C114.326 17.717 114.142 16.659 114.142 15.325L114.165 4.492H118.029L118.006 15.44C118.006 16.0073 118.152 16.4443 118.443 16.751C118.75 17.0423 119.187 17.188 119.754 17.188H121.502V20.684H119.777ZM112.302 10.84V7.804H121.502V10.84H112.302ZM124.206 20.5V7.804H127.518V13.324H127.472C127.472 11.5453 127.84 10.15 128.576 9.138C129.327 8.126 130.401 7.62 131.796 7.62H132.302V11.208H131.336C130.401 11.208 129.672 11.461 129.151 11.967C128.645 12.473 128.392 13.2013 128.392 14.152V20.5H124.206ZM135.012 20.5V7.804H139.198V20.5H135.012ZM133.402 10.84V7.804H139.198V10.84H133.402ZM136.737 6.792C135.97 6.792 135.403 6.60033 135.035 6.217C134.682 5.81833 134.506 5.31233 134.506 4.699C134.506 4.08567 134.682 3.58733 135.035 3.204C135.403 2.80533 135.963 2.606 136.714 2.606C137.481 2.606 138.04 2.80533 138.393 3.204C138.746 3.58733 138.922 4.08567 138.922 4.699C138.922 5.31233 138.746 5.81833 138.393 6.217C138.04 6.60033 137.488 6.792 136.737 6.792Z" fill="#FF9431" _ngcontent-ng-c3942390079=""></path>
<rect x="143" width="24" height="24" rx="12" fill="#FF9431" _ngcontent-ng-c3942390079=""></rect>
<path d="M161.683 18.6301C158.69 18.4417 155.926 16.916 154.172 14.4562L147.699 5.37547C150.649 5.58125 153.371 7.08639 155.114 9.50604C155.114 9.50606 155.114 9.50607 155.114 9.50609L161.683 18.6301Z" fill="white" stroke="#FF9431" stroke-width="0.7" _ngcontent-ng-c3942390079=""></path>
<path d="M161.683 5.37456L155.21 14.455C153.456 16.9148 150.692 18.4404 147.699 18.6288L154.268 9.5063C154.268 9.50629 154.268 9.50628 154.268 9.50627C156.011 7.08671 158.733 5.58153 161.683 5.37456Z" fill="white" stroke="#FF9431" stroke-width="0.7" _ngcontent-ng-c3942390079=""></path>
<path d="M161.681 5.37515L157.112 11.7843C156.326 11.9284 155.517 12.0042 154.689 12.0042C153.861 12.0042 153.052 11.9284 152.267 11.7843L147.697 5.37458C148.956 5.46353 150.173 5.79165 151.292 6.32356L151.442 6.00746C151.443 6.00818 151.445 6.00889 151.447 6.00961C151.449 6.01033 151.451 6.01104 151.452 6.01176C151.956 6.25217 152.441 6.53266 152.9 6.85179M161.681 5.37515L151.285 6.32052C151.291 6.32325 151.296 6.32545 151.299 6.3271L151.309 6.33111L151.309 6.33112M161.681 5.37515C160.434 5.46407 159.227 5.78667 158.116 6.31103M161.681 5.37515L158.116 6.31103M152.9 6.85179L152.69 7.13179C152.69 7.13167 152.69 7.1317 152.691 7.1321L152.693 7.13381L152.695 7.13528M152.9 6.85179L152.701 7.13923C152.699 7.13791 152.697 7.1366 152.695 7.13528M152.9 6.85179C152.901 6.85262 152.903 6.8535 152.904 6.85441C152.909 6.85823 152.915 6.86263 152.92 6.8661M152.695 7.13528C152.255 6.83037 151.791 6.56182 151.309 6.33112M152.695 7.13528L152.702 7.14071C152.707 7.14447 152.715 7.15044 152.726 7.15725M151.309 6.33112L151.316 6.33412C151.315 6.33388 151.315 6.33358 151.314 6.33326L151.307 6.33031C151.305 6.32959 151.304 6.32869 151.301 6.32762M151.309 6.33112C151.306 6.32996 151.304 6.32879 151.301 6.32762M151.301 6.32762C151.3 6.32679 151.298 6.32585 151.295 6.32481L151.295 6.32486L151.301 6.32762ZM152.726 7.15725C152.724 7.1558 152.722 7.15436 152.72 7.15291L152.92 6.8661M152.726 7.15725C153.176 7.47223 153.601 7.8206 153.993 8.20622L153.993 8.20631L153.999 8.21243C154.009 8.22172 154.011 8.22343 154.014 8.22673C154.017 8.23092 154.023 8.23765 154.051 8.26559L154.052 8.26692C154.181 8.3942 154.308 8.52659 154.429 8.66122L154.688 8.95022L154.949 8.66213C155.065 8.53335 155.185 8.40828 155.307 8.2855M152.726 7.15725C152.73 7.16012 152.735 7.16315 152.74 7.16622L152.92 6.8661M152.92 6.8661C153.387 7.19238 153.829 7.55444 154.238 7.95656C154.251 7.96863 154.263 7.98122 154.275 7.9937C154.283 8.00194 154.29 8.01013 154.298 8.0181C154.349 8.06818 154.399 8.11908 154.449 8.17066C154.443 8.17797 154.436 8.18529 154.429 8.19263L154.689 8.42738L154.949 8.19354C154.943 8.18599 154.936 8.17845 154.929 8.17092C154.973 8.12531 155.018 8.08011 155.063 8.03527M155.307 8.2855C155.306 8.28667 155.305 8.28785 155.304 8.28902L155.063 8.03527M155.307 8.2855C155.327 8.26679 155.344 8.24838 155.356 8.2359L155.358 8.23412C155.372 8.21872 155.38 8.21097 155.387 8.20459L155.387 8.20461L155.39 8.20113C155.573 8.02263 155.763 7.85179 155.959 7.68727M155.307 8.2855C155.308 8.28459 155.309 8.28367 155.31 8.28276L155.063 8.03527M155.063 8.03527C155.077 8.02167 155.09 8.00736 155.104 7.99305C155.118 7.97874 155.131 7.96443 155.146 7.95084C155.336 7.7648 155.533 7.58735 155.737 7.41705M155.959 7.68727C155.958 7.68788 155.958 7.68848 155.957 7.68909L155.737 7.41705M155.959 7.68727C155.972 7.67716 155.985 7.66679 155.999 7.65511L156 7.65462C156.015 7.6428 156.032 7.62956 156.048 7.61611L156.049 7.61533C156.228 7.46984 156.412 7.32985 156.599 7.19674M155.959 7.68727C155.96 7.68662 155.961 7.68597 155.961 7.68531L155.737 7.41705M155.737 7.41705C155.752 7.40489 155.767 7.39272 155.782 7.38056C155.798 7.3684 155.813 7.35623 155.828 7.34407C156.014 7.19238 156.206 7.04641 156.402 6.9076M156.599 7.19674C156.597 7.19817 156.595 7.19961 156.593 7.20105L156.402 6.9076M156.599 7.19674C156.619 7.18351 156.637 7.17063 156.65 7.16132C156.653 7.15933 156.655 7.15751 156.657 7.15583C156.669 7.14739 156.676 7.1425 156.683 7.13778L156.683 7.13779L156.685 7.13633C157.124 6.83134 157.587 6.56449 158.07 6.3332L158.07 6.33325L158.075 6.33053L158.092 6.32275L158.093 6.32232C158.099 6.31945 158.107 6.31541 158.116 6.31103M156.599 7.19674C156.601 7.19557 156.603 7.19441 156.604 7.19325L156.402 6.9076M156.402 6.9076C156.419 6.89686 156.435 6.88518 156.45 6.87364C156.462 6.86518 156.474 6.8568 156.485 6.84893C156.94 6.53266 157.42 6.25647 157.919 6.01748C157.926 6.01391 157.934 6.01033 157.941 6.00675C157.949 6.00317 157.956 5.99959 157.963 5.99602M158.116 6.31103C158.115 6.31152 158.114 6.31201 158.113 6.31251L157.963 5.99602M158.116 6.31103C158.117 6.31038 158.119 6.30972 158.12 6.30906L157.963 5.99602M158.116 6.31103L157.963 5.99602" fill="white" stroke="#FF9431" stroke-width="0.7" _ngcontent-ng-c3942390079=""></path>
</svg>