<svg width="45" height="45" viewBox="0 0 45 45" fill="none" xmlns="http://www.w3.org/2000/svg">
<path d="M3.63511 7.78882C4.0975 7.78882 4.47641 8.16773 4.47641 8.63654C4.47641 9.09894 4.10393 9.48425 3.63511 9.48425H0.732318C0.263503 9.48425 -0.108978 9.09894 -0.108978 8.63654C-0.108978 8.16773 0.263503 7.78882 0.732318 7.78882H3.63511Z" fill="#C5B9AF"/>
<path d="M8.54123 41.7041C8.54123 41.2353 8.92013 40.8564 9.3761 40.8564C9.84491 40.8564 10.2174 41.2353 10.2174 41.7041V44.639C10.2174 45.1078 9.84491 45.4867 9.3761 45.4867C8.9137 45.4867 8.54123 45.1078 8.54123 44.639V41.7041Z" fill="#C5B9AF"/>
<path d="M2.79318 0.769458C2.79318 0.307065 3.17209 -0.0718384 3.63448 -0.0718384C4.09687 -0.0718384 4.47578 0.307065 4.47578 0.769458V41.7041C4.47578 42.1729 4.10329 42.5518 3.63448 42.5518C3.17209 42.5518 2.79318 42.1729 2.79318 41.7041V0.769458Z" fill="#C5B9AF"/>
<path d="M3.63448 42.5518C3.17209 42.5518 2.79318 42.1729 2.79318 41.7041C2.79318 41.2417 3.16566 40.8564 3.63448 40.8564H44.1581C44.6269 40.8564 44.9994 41.2417 44.9994 41.7041C44.9994 42.1729 44.6269 42.5518 44.1581 42.5518H3.63448Z" fill="#C5B9AF"/>
<path d="M3.63511 13.5237C4.0975 13.5237 4.47641 13.9027 4.47641 14.3715C4.47641 14.8403 4.10393 15.2192 3.63511 15.2192H0.732318C0.263503 15.2192 -0.108978 14.8403 -0.108978 14.3715C-0.108978 13.9027 0.263503 13.5237 0.732318 13.5237H3.63511Z" fill="#C5B9AF"/>
<path d="M14.2191 41.704C14.2191 41.2352 14.5916 40.8563 15.054 40.8563C15.5164 40.8563 15.8953 41.2352 15.8953 41.704V44.639C15.8953 45.1078 15.5228 45.4867 15.054 45.4867C14.5916 45.4867 14.2191 45.1078 14.2191 44.639V41.704Z" fill="#C5B9AF"/>
<path d="M3.63511 19.2587C4.0975 19.2587 4.47641 19.6376 4.47641 20.1064C4.47641 20.5752 4.10393 20.9541 3.63511 20.9541H0.732318C0.263503 20.9541 -0.108978 20.5752 -0.108978 20.1064C-0.108978 19.6376 0.263503 19.2587 0.732318 19.2587H3.63511Z" fill="#C5B9AF"/>
<path d="M19.8967 41.7041C19.8967 41.2353 20.2692 40.8564 20.738 40.8564C21.2004 40.8564 21.5729 41.2353 21.5729 41.7041V44.639C21.5729 45.1078 21.2004 45.4867 20.738 45.4867C20.2756 45.4867 19.8967 45.1078 19.8967 44.639V41.7041Z" fill="#C5B9AF"/>
<path d="M3.63511 24.9937C4.0975 24.9937 4.47641 25.3726 4.47641 25.8414C4.47641 26.3102 4.10393 26.6891 3.63511 26.6891H0.732318C0.263503 26.6891 -0.108978 26.3102 -0.108978 25.8414C-0.108978 25.3726 0.263503 24.9937 0.732318 24.9937H3.63511Z" fill="#C5B9AF"/>
<path d="M25.5727 41.7041C25.5727 41.2353 25.9451 40.8564 26.414 40.8564C26.8764 40.8564 27.2488 41.2353 27.2488 41.7041V44.639C27.2488 45.1078 26.8764 45.4867 26.414 45.4867C25.9516 45.4867 25.5727 45.1078 25.5727 44.639V41.7041Z" fill="#C5B9AF"/>
<path d="M3.63511 30.7286C4.0975 30.7286 4.47641 31.1075 4.47641 31.5764C4.47641 32.0452 4.10393 32.4241 3.63511 32.4241H0.732318C0.263503 32.4241 -0.108978 32.0452 -0.108978 31.5764C-0.108978 31.1075 0.263503 30.7286 0.732318 30.7286H3.63511Z" fill="#C5B9AF"/>
<path d="M31.2503 41.704C31.2503 41.2352 31.6228 40.8563 32.0916 40.8563C32.554 40.8563 32.9329 41.2352 32.9329 41.704V44.639C32.9329 45.1078 32.554 45.4867 32.0916 45.4867C31.6292 45.4867 31.2503 45.1078 31.2503 44.639V41.704Z" fill="#C5B9AF"/>
<path d="M3.63511 36.4636C4.0975 36.4636 4.47641 36.8489 4.47641 37.3113C4.47641 37.7801 4.10393 38.159 3.63511 38.159H0.732318C0.263503 38.159 -0.108978 37.7801 -0.108978 37.3113C-0.108978 36.8489 0.263503 36.4636 0.732318 36.4636H3.63511Z" fill="#C5B9AF"/>
<path d="M36.9281 41.7041C36.9281 41.2353 37.3006 40.8564 37.7694 40.8564C38.2318 40.8564 38.6107 41.2353 38.6107 41.7041V44.639C38.6107 45.1078 38.2382 45.4867 37.7694 45.4867C37.307 45.4867 36.9281 45.1078 36.9281 44.639V41.7041Z" fill="#C5B9AF"/>
<path d="M6.38416 37.7609C5.89608 38.4481 6.58326 39.3536 7.3796 39.0454C7.53373 38.9811 7.64932 38.8912 7.74565 38.7564L18.3871 23.9277L27.1276 29.1039C27.3267 29.2259 27.5451 29.2516 27.7698 29.1938C27.9946 29.1296 28.1616 28.9883 28.2643 28.8213L40.4728 10.0559L43.4398 12.0211L44.1527 2.85028L36.1057 7.14668L39.0728 9.11828L27.2818 27.2287L18.5669 22.0653C18.3614 21.9368 18.1045 21.9047 17.8284 22.0139C17.6743 22.0781 17.5651 22.1616 17.4688 22.2965L6.38416 37.7609Z" fill="#C5B9AF"/>
<path fill-rule="evenodd" clip-rule="evenodd" d="M23.8979 31.7176C30.2815 31.7176 35.4577 26.49 35.4577 20.0422C35.4577 13.5944 30.2815 8.36676 23.8979 8.36676C17.5143 8.36676 12.3381 13.5944 12.3381 20.0422C12.3381 26.49 17.5143 31.7176 23.8979 31.7176Z" fill="white"/>
<path d="M29.339 25.3985C26.9176 25.3528 24.6566 24.1634 23.247 22.1867L18.1981 15.104C20.5875 15.1649 22.8162 16.339 24.2178 18.285L29.339 25.3985Z" fill="#C5B9AF" stroke="#F9F1EA" stroke-width="0.2"/>
<path d="M23.8509 17.8192L23.8509 17.8192C23.9786 17.9703 24.1012 18.1237 24.215 18.2838L24.2153 18.2843L28.3071 23.9666C26.746 23.4709 25.3639 22.4833 24.3897 21.117L20.3715 15.4804C20.6803 15.5808 20.9817 15.7006 21.2744 15.8392L21.2743 15.8393L21.2778 15.8407L21.2837 15.8436L21.2843 15.8439C21.2873 15.8454 21.2925 15.848 21.2981 15.8505C21.6703 16.0282 22.0285 16.2354 22.3678 16.471C22.3763 16.4772 22.3848 16.4831 22.3923 16.4884L22.3926 16.4886C22.4008 16.4944 22.408 16.4994 22.415 16.5045L22.415 16.5045L22.4167 16.5058C22.5688 16.6125 22.7161 16.7258 22.8606 16.8437L22.8605 16.8438L22.8631 16.8457C22.8818 16.86 22.8973 16.8719 22.9116 16.8844L22.9116 16.8845L22.9134 16.886C23.0671 17.0142 23.2164 17.1487 23.3605 17.2896L23.3604 17.2896L23.3621 17.2912C23.3709 17.2994 23.3757 17.3045 23.3819 17.3112C23.3873 17.317 23.3937 17.3239 23.4047 17.3349L23.405 17.3352C23.5286 17.4577 23.648 17.5856 23.7634 17.7178C23.7782 17.7355 23.7933 17.7527 23.8077 17.7692L23.8079 17.7695C23.8228 17.7865 23.837 17.8028 23.8509 17.8192ZM23.4304 17.2181C23.2844 17.0753 23.1331 16.939 22.9775 16.8092C22.9603 16.7941 22.9421 16.7802 22.9238 16.7662C22.7778 16.6471 22.6287 16.5323 22.4741 16.4239L23.4304 17.2181Z" fill="#C5B9AF" stroke="#F9F1EA" stroke-width="0.2"/>
<path d="M29.3393 15.1025L24.2905 22.1851C22.8809 24.1619 20.6199 25.3513 18.1984 25.397L23.3197 18.2845C24.7212 16.3385 26.9498 15.1645 29.3393 15.1025Z" fill="#C5B9AF" stroke="#F9F1EA" stroke-width="0.2"/>
<path d="M23.3193 18.2843L23.3193 18.2843C24.2811 16.9479 25.6358 15.9777 27.1631 15.4805L23.1449 21.117C22.1708 22.4832 20.7878 23.4708 19.2275 23.9666L23.3193 18.2843Z" fill="#C5B9AF" stroke="#F9F1EA" stroke-width="0.2"/>
<path d="M29.3369 15.1026L25.6909 20.2168L25.6776 20.2356C25.0582 20.3533 24.42 20.4153 23.7665 20.4153C23.113 20.4153 22.4748 20.3533 21.8554 20.2356L21.842 20.2168L18.1959 15.1025C19.2811 15.1305 20.3318 15.391 21.2884 15.8458L21.3313 15.7555C21.3324 15.756 21.3337 15.7566 21.3351 15.7571C21.3364 15.7576 21.3378 15.7582 21.3388 15.7587C21.7166 15.939 22.0804 16.1494 22.4249 16.3887M29.3369 15.1026L21.2866 15.8449C21.2899 15.8466 21.2927 15.8478 21.2943 15.8485L21.2972 15.8497M29.3369 15.1026C28.2601 15.1314 27.2169 15.3878 26.2647 15.8373M29.3369 15.1026L26.2647 15.8373M22.4249 16.3887L22.3649 16.4687C22.365 16.4687 22.3651 16.4688 22.3653 16.469C22.3654 16.4691 22.3657 16.4693 22.366 16.4695M22.4249 16.3887L22.3679 16.4708C22.3672 16.4704 22.3666 16.4699 22.366 16.4695M22.4249 16.3887C22.4258 16.3893 22.4266 16.39 22.4275 16.3907C22.4313 16.3935 22.4356 16.3968 22.44 16.3994M22.366 16.4695C22.027 16.2342 21.669 16.0272 21.2972 15.8497M22.366 16.4695C22.3687 16.4716 22.3765 16.4776 22.3847 16.4828M21.2972 15.8497L21.2979 15.85C21.2988 15.8503 21.2986 15.8502 21.2983 15.8501L21.2958 15.8489L21.2941 15.8482L21.2941 15.8482L21.2958 15.849C21.2962 15.8492 21.2967 15.8494 21.2972 15.8497ZM22.3847 16.4828C22.384 16.4823 22.3833 16.4819 22.3827 16.4814L22.44 16.3994M22.3847 16.4828C22.7297 16.7242 23.0563 16.9918 23.3583 17.2886L23.3583 17.2886L23.3602 17.2903C23.3689 17.2985 23.3738 17.3037 23.3799 17.3104C23.3853 17.3162 23.3918 17.3231 23.4028 17.3341L23.4032 17.3345C23.5017 17.432 23.5991 17.5336 23.6921 17.6371L23.7662 17.7197L23.8407 17.6374C23.9304 17.5382 24.0223 17.442 24.1165 17.3478M22.3847 16.4828C22.386 16.4836 22.3873 16.4844 22.3885 16.4852L22.44 16.3994M22.44 16.3994C22.7898 16.6441 23.1215 16.9157 23.4284 17.2172C23.4381 17.2263 23.447 17.2357 23.4559 17.2451C23.4617 17.2513 23.4675 17.2574 23.4735 17.2634C23.5497 17.3388 23.6253 17.4167 23.6988 17.4961C23.6966 17.4985 23.6945 17.5009 23.6923 17.5033L23.7665 17.5703L23.8409 17.5035C23.8387 17.5011 23.8365 17.4987 23.8344 17.4963C23.9039 17.4214 23.9746 17.3482 24.0466 17.2763M24.1165 17.3478C24.1161 17.3482 24.1158 17.3485 24.1155 17.3488L24.0466 17.2763M24.1165 17.3478C24.1287 17.3362 24.14 17.3242 24.1495 17.3142L24.1502 17.3135C24.1607 17.3024 24.1692 17.2936 24.1777 17.2854L24.1777 17.2855L24.1788 17.2845C24.3193 17.1471 24.4653 17.0159 24.6157 16.8898M24.1165 17.3478C24.1167 17.3476 24.117 17.3473 24.1173 17.347L24.0466 17.2763M24.0466 17.2763C24.0573 17.2661 24.0675 17.2553 24.0777 17.2446C24.0879 17.2339 24.0981 17.2231 24.1089 17.2129C24.2516 17.0734 24.3997 16.9403 24.5521 16.8126M24.6157 16.8898C24.6155 16.89 24.6152 16.8902 24.615 16.8904L24.5521 16.8126M24.6157 16.8898C24.6262 16.8813 24.6371 16.8727 24.6485 16.8637L24.6487 16.8635C24.6601 16.8545 24.672 16.8451 24.6837 16.8356L24.684 16.8354C24.8213 16.7234 24.9628 16.6157 25.1074 16.5133M24.6157 16.8898C24.6159 16.8896 24.6161 16.8895 24.6163 16.8893L24.5521 16.8126M24.5521 16.8126C24.5634 16.8035 24.5749 16.7944 24.5864 16.7853C24.598 16.7761 24.6095 16.767 24.6208 16.7579C24.7603 16.6441 24.9041 16.5347 25.0512 16.4306M25.1074 16.5133C25.1068 16.5136 25.1062 16.514 25.1057 16.5144L25.0512 16.4306M25.1074 16.5133C25.1199 16.5051 25.1315 16.4967 25.1415 16.4894C25.1433 16.4882 25.1449 16.4869 25.1466 16.4857C25.1553 16.4794 25.1626 16.4741 25.1699 16.4691L25.1705 16.4687C25.5071 16.2347 25.862 16.0302 26.2319 15.8532L26.232 15.8532L26.2335 15.8525L26.2484 15.8452L26.2647 15.8373M25.1074 16.5133C25.1079 16.5129 25.1084 16.5125 25.1089 16.5122L25.0512 16.4306M25.0512 16.4306C25.0635 16.4225 25.0756 16.4137 25.0874 16.4051C25.0961 16.3987 25.1048 16.3925 25.1134 16.3866C25.4547 16.1494 25.8142 15.9422 26.1888 15.763C26.1941 15.7603 26.1998 15.7576 26.2054 15.755C26.2111 15.7523 26.2167 15.7496 26.2221 15.7469M26.2647 15.8373L26.2221 15.7469M26.2647 15.8373L26.2668 15.8364L26.2221 15.7469M26.2647 15.8373L26.2221 15.7469" fill="#C5B9AF" stroke="#F9F1EA" stroke-width="0.2"/>
<path d="M23.8971 30.87C26.8577 30.87 29.5357 29.6627 31.4752 27.6975C33.4147 25.7387 34.6156 23.0286 34.6156 20.0423C34.6156 17.0496 33.4211 14.3459 31.4752 12.3871C29.5357 10.4284 26.8513 9.21461 23.8971 9.21461C20.9365 9.21461 18.2521 10.4284 16.3126 12.3871C14.3731 14.3459 13.1722 17.056 13.1722 20.0423C13.1722 23.0286 14.3731 25.7387 16.3126 27.6975C18.2585 29.6627 20.9365 30.87 23.8971 30.87ZM32.6697 28.8984C30.422 31.1654 27.3201 32.5654 23.8971 32.5654C20.4741 32.5654 17.3722 31.159 15.1309 28.8984C12.8896 26.6314 11.496 23.5038 11.496 20.0423C11.496 16.5808 12.8896 13.4532 15.1309 11.1862C17.3722 8.9192 20.4741 7.51917 23.8971 7.51917C27.3201 7.51917 30.422 8.9192 32.6697 11.1862C34.9111 13.4532 36.2982 16.5872 36.2982 20.0423C36.2982 23.5038 34.9111 26.6314 32.6697 28.8984Z" fill="#C5B9AF"/>
</svg>
