<svg width="44" height="45" viewBox="0 0 44 45" fill="none" xmlns="http://www.w3.org/2000/svg">
<path d="M34.453 6.57544L33.1057 7.52151C32.948 7.62902 32.7616 7.66484 32.5896 7.64334L29.5667 7.33677C24.2272 7.3941 23.6108 10.8128 23.0948 13.6868C23.0303 14.0309 22.973 14.3677 22.9013 14.6974L21.5109 14.4107C21.5754 14.1025 21.6327 13.7657 21.6972 13.4288C22.3136 10.0173 23.0518 5.96785 29.5595 5.90334C29.6025 5.89617 29.6527 5.90334 29.6957 5.90334L32.5179 6.18843L33.6503 5.40002L34.453 6.57544Z" fill="#C5B9AF"/>
<path d="M33.11 4.07569L39.6679 13.6008L42.5204 11.594L35.9625 2.06886L33.11 4.07569ZM38.8939 15.0127L31.5261 4.305C31.3039 3.97531 31.3827 3.53098 31.7052 3.30163L35.7332 0.470605C36.0557 0.241256 36.5 0.320095 36.7222 0.649783L44.0972 11.3575C44.3194 11.68 44.2405 12.1315 43.918 12.3609L39.8901 15.1847C39.5676 15.4213 39.1232 15.3424 38.8939 15.0127Z" fill="#C5B9AF"/>
<path d="M29.115 11.7158C29.4375 11.4864 29.8819 11.5724 30.1112 11.895C30.3334 12.2246 30.2546 12.669 29.9321 12.8984L25.1301 16.2669C24.1482 16.9549 23.7898 17.7003 23.8472 18.2952C23.8687 18.4887 23.9332 18.6751 24.0478 18.8327C24.1553 18.9904 24.313 19.1194 24.4922 19.2126C25.0512 19.4921 25.897 19.4205 26.8358 18.7539L33.8668 13.8229C33.9815 13.7441 34.1105 13.7011 34.2395 13.6939L38.3765 14.4742L40.4334 13.0264C40.7559 12.8043 41.2003 12.8831 41.4225 13.2056C41.6447 13.5353 41.5658 13.9797 41.2433 14.209L39.0502 15.75C38.957 15.8145 38.8495 15.8575 38.7276 15.8718L34.5333 15.0986L27.6457 19.9293C26.2195 20.9327 24.8362 20.9757 23.8543 20.4955C23.453 20.2877 23.1161 20.001 22.8653 19.6498C22.6216 19.2986 22.4639 18.8829 22.4209 18.4242C22.3206 17.3563 22.8438 16.1021 24.3059 15.0843L29.115 11.7158Z" fill="#C5B9AF"/>
<path d="M0.800171 37.473C0.800171 37.4519 0.800177 37.4237 0.806631 37.4026C0.806631 37.3814 0.813057 37.3603 0.819511 37.3322C0.825964 37.311 0.825977 37.2899 0.83243 37.2688C0.838884 37.2406 0.845323 37.2265 0.85823 37.2054C0.864684 37.1843 0.871129 37.1631 0.89049 37.142C0.896943 37.1209 0.909882 37.1068 0.922789 37.0927C0.935696 37.0716 0.942148 37.0505 0.961508 37.0364C0.974415 37.0223 0.987327 37.0082 1.00669 36.9871L1.05183 36.9378C1.06473 36.9237 1.08411 36.9167 1.10347 36.8956C1.12283 36.8885 1.13574 36.8744 1.15511 36.8674L7.42033 33.021C7.44614 33.007 7.46553 32.9999 7.49135 32.9928C7.62687 32.9365 10.8794 31.6831 13.5383 32.9999L19.4045 35.3378C19.4239 35.3448 19.4432 35.3519 19.4561 35.3589C20.1854 35.7321 20.6178 36.4997 20.6049 37.3517C24.3414 35.9222 24.33 36.3025 28.0795 34.9153C28.0924 34.9082 28.0989 34.9082 28.1118 34.9082C29.0604 34.6266 29.9897 35.1265 30.3511 36.1406C30.7254 37.1546 30.3769 38.2249 29.5057 38.7531L20.8888 44.3302C19.7207 45.0344 18.3332 45.1893 17.0683 44.7668L9.19504 42.1613C8.47225 41.9219 8.90751 41.7369 8.27507 42.1876L4.65935 44.8316C4.63999 44.8457 4.62706 44.8528 4.60125 44.8669C4.59479 44.8669 4.59482 44.8739 4.58837 44.8739H4.58191C4.57545 44.8809 4.56902 44.8809 4.55611 44.8809C4.53675 44.888 4.51738 44.895 4.50447 44.9021C4.49802 44.9021 4.48512 44.9091 4.47867 44.9091C4.46576 44.9162 4.43994 44.9162 4.42703 44.9232C4.42058 44.9232 4.40765 44.9232 4.40119 44.9302C4.36892 44.9302 4.34957 44.9373 4.32375 44.9373C4.29149 44.9373 4.26567 44.9373 4.23985 44.9302C4.2334 44.9302 4.21405 44.9302 4.20759 44.9232C4.18823 44.9232 4.17535 44.9162 4.14954 44.9091C4.13663 44.9091 4.12369 44.9021 4.11724 44.9021C4.10433 44.895 4.085 44.888 4.06564 44.8809C4.05918 44.8739 4.04625 44.8739 4.0398 44.8669C4.02689 44.8528 4.01401 44.8457 3.9882 44.8316C3.98174 44.8246 3.96235 44.8176 3.9559 44.8176C3.94299 44.8105 3.93009 44.7964 3.91718 44.7894C3.91073 44.7824 3.89137 44.7683 3.88492 44.7612L3.85266 44.726L3.8204 44.6908C3.80749 44.6768 3.80102 44.6627 3.79456 44.6486C3.78811 44.6416 3.78168 44.6274 3.77522 44.6204C3.77522 44.6204 3.77522 44.6134 3.76876 44.6134C3.76876 44.6063 3.7623 44.5922 3.7623 44.5922C3.75585 44.5782 3.7365 44.557 3.73004 44.5359L0.87115 37.8251C0.864696 37.804 0.858224 37.7828 0.85177 37.7617C0.845317 37.7406 0.838884 37.7194 0.83243 37.6983C0.825977 37.6772 0.825971 37.6561 0.825971 37.6349C0.825971 37.6068 0.819511 37.5856 0.819511 37.5645C0.80015 37.5223 0.800171 37.4941 0.800171 37.473ZM19.411 39.3235C19.2044 39.415 18.985 39.4713 18.7463 39.4854H18.7333C18.6753 39.4854 18.4171 39.4713 15.7454 39.2812C14.5837 39.2038 11.428 38.9714 11.3183 38.9573C10.9827 38.9432 10.7052 38.6404 10.6987 38.2672C10.6923 37.8729 10.9698 37.5419 11.3376 37.5348C11.3699 37.5348 13.3253 37.6827 15.8293 37.8588C17.0813 37.9433 18.4816 38.0489 18.7204 38.063C18.7914 38.0559 18.8559 38.0418 18.914 38.0207C18.9334 38.0066 18.9592 37.9925 18.985 37.9855C19.2174 37.8517 19.2884 37.5841 19.3077 37.4855C19.3593 37.2179 19.2883 36.8659 18.9527 36.6828L13.093 34.3449C13.0736 34.3379 13.0607 34.3308 13.0413 34.3238C10.9827 33.2886 8.29803 34.2181 7.97536 34.3308L6.08558 35.797L8.01517 40.8108C8.96383 40.163 8.50453 40.436 9.57581 40.7881L17.4556 43.3936C18.3913 43.7105 19.4239 43.5908 20.2886 43.0697L28.8991 37.5137C29.3444 37.2391 29.2024 36.7743 29.1637 36.6828C29.125 36.556 28.9378 36.1617 28.4861 36.2955L19.411 39.3235ZM2.30381 37.8321L4.58837 43.1839L6.89873 41.5783L4.9175 36.4237L2.30381 37.8321Z" fill="#C5B9AF"/>
<path d="M16.7272 32.4099C19.2792 32.4099 21.586 31.373 23.2592 29.7088C24.9323 28.0363 25.9632 25.7365 25.9632 23.1859C25.9632 22.0486 25.7604 20.9614 25.3801 19.9579C25.6674 19.8994 25.9548 19.7823 26.2083 19.6067L26.8674 19.1468C27.3659 20.3928 27.6364 21.7559 27.6364 23.1859C27.6364 26.1964 26.4111 28.9227 24.4422 30.8963C22.4649 32.8699 19.7439 34.0908 16.7272 34.0908C13.7106 34.0908 10.9896 32.8699 9.01229 30.8963C7.03496 28.9227 5.81818 26.1964 5.81818 23.1859C5.81818 20.1753 7.04342 17.4408 9.01229 15.4672C10.9896 13.4936 13.7106 12.2726 16.7272 12.2726C19.7355 12.2726 22.4564 13.4936 24.4337 15.4588L23.6817 15.9773C23.462 16.1362 23.2761 16.3202 23.1324 16.5293C21.4678 14.9404 19.2116 13.9535 16.7272 13.9535C14.1753 13.9535 11.8684 14.9905 10.1953 16.6547C8.53065 18.3272 7.49128 20.6269 7.49128 23.1775C7.49128 25.7198 8.5222 28.0279 10.1953 29.7004C11.8684 31.3813 14.1838 32.4099 16.7272 32.4099Z" fill="#C5B9AF"/>
<path d="M21.5629 28.5346C19.3714 28.4876 17.3263 27.4087 16.0501 25.6189L11.4708 19.195C13.6333 19.2558 15.649 20.3207 16.9178 22.0825L21.5629 28.5346Z" fill="#C5B9AF" stroke="#F9F1EA" stroke-width="0.2"/>
<path d="M16.5847 21.6596L16.5848 21.6597C16.7008 21.7969 16.8121 21.9361 16.9153 22.0814L16.9153 22.0814L16.9156 22.0819L20.6193 27.2253C19.2127 26.7725 17.9679 25.8792 17.0889 24.6465L13.4521 19.5448C13.7233 19.6342 13.9882 19.7401 14.2455 19.862L14.2455 19.862L14.2489 19.8635C14.2489 19.8635 14.2492 19.8636 14.25 19.864L14.2539 19.8659L14.2544 19.8662C14.2571 19.8676 14.2619 19.8699 14.2672 19.8723C14.605 20.0336 14.9302 20.2217 15.2381 20.4355C15.246 20.4412 15.2537 20.4466 15.2604 20.4513L15.2608 20.4516C15.2683 20.4568 15.2747 20.4613 15.281 20.4659L15.281 20.466L15.2827 20.4672C15.4208 20.564 15.5544 20.6669 15.6857 20.774L15.6857 20.774L15.6882 20.776C15.7052 20.789 15.7191 20.7997 15.7318 20.8108L15.7318 20.8108L15.7336 20.8123C15.8732 20.9288 16.0088 21.0509 16.1395 21.1788L16.1395 21.1788L16.1412 21.1804C16.1491 21.1877 16.1532 21.1922 16.1585 21.198C16.1634 21.2031 16.1692 21.2094 16.1797 21.22L16.18 21.2203C16.2921 21.3314 16.4006 21.4475 16.5053 21.5676C16.5188 21.5836 16.5325 21.5993 16.5456 21.6142L16.5458 21.6145C16.5593 21.63 16.5722 21.6447 16.5847 21.6596ZM16.2504 21.1492C16.245 21.1438 16.2397 21.1382 16.2344 21.1326C16.2264 21.1241 16.2182 21.1155 16.2094 21.1073C16.0767 20.9775 15.9392 20.8536 15.7977 20.7356C15.7821 20.7219 15.7655 20.7092 15.7489 20.6965L16.2504 21.1492Z" fill="#C5B9AF" stroke="#F9F1EA" stroke-width="0.2"/>
<path d="M21.5632 19.1937L16.9839 25.6175C15.7077 27.4073 13.6627 28.4862 11.4711 28.5332L16.1162 22.0821C17.385 20.3203 19.4007 19.2554 21.5632 19.1937Z" fill="#C5B9AF" stroke="#F9F1EA" stroke-width="0.2"/>
<path d="M16.1158 22.0819L16.1158 22.0819C16.9836 20.8762 18.2034 19.9989 19.5793 19.5449L15.9425 24.6465C15.0636 25.8792 13.818 26.7724 12.4122 27.2252L16.1158 22.0819Z" fill="#C5B9AF" stroke="#F9F1EA" stroke-width="0.2"/>
<path d="M21.561 19.1938L18.2571 23.8282L18.247 23.8423C17.6857 23.9487 17.1073 24.0048 16.515 24.0048C15.9227 24.0048 15.3443 23.9487 14.7829 23.8423L14.7729 23.8282L11.4688 19.1936C12.4476 19.2215 13.3951 19.4576 14.2583 19.868L14.3012 19.7777C14.3022 19.7782 14.3034 19.7787 14.3046 19.7792C14.3058 19.7796 14.307 19.7801 14.308 19.7806C14.6515 19.9445 14.9822 20.1358 15.2954 20.3533M21.561 19.1938L14.2565 19.8671C14.2597 19.8688 14.2625 19.8699 14.264 19.8706L14.2665 19.8716M21.561 19.1938C20.5899 19.2223 19.6491 19.4547 18.79 19.8603M21.561 19.1938L18.79 19.8603M15.2954 20.3533L15.2354 20.4333L15.2355 20.4334C15.2356 20.4335 15.2359 20.4337 15.2364 20.4341M15.2954 20.3533L15.2383 20.4355C15.2377 20.435 15.237 20.4346 15.2364 20.4341M15.2954 20.3533C15.2962 20.3539 15.2969 20.3545 15.2978 20.3551C15.3012 20.3577 15.3051 20.3607 15.3091 20.3631M15.2364 20.4341C14.9288 20.2206 14.6039 20.0327 14.2665 19.8716M15.2364 20.4341C15.2389 20.4361 15.2461 20.4416 15.2537 20.4464M14.2665 19.8716L14.2675 19.872C14.2682 19.8723 14.268 19.8722 14.2676 19.872L14.265 19.8708L14.2633 19.8701L14.2633 19.8701L14.265 19.8709C14.2655 19.8711 14.266 19.8714 14.2665 19.8716ZM15.2537 20.4464C15.2531 20.446 15.2524 20.4455 15.2517 20.445L15.3091 20.3631M15.2537 20.4464C15.5669 20.6656 15.8634 20.9085 16.1376 21.1779L16.1375 21.1779L16.1394 21.1797C16.1473 21.187 16.1514 21.1914 16.1568 21.1972C16.1616 21.2024 16.1674 21.2087 16.1779 21.2192L16.1783 21.2196C16.2678 21.3081 16.3562 21.4003 16.4406 21.4944L16.5147 21.5769L16.5892 21.4946C16.6706 21.4046 16.754 21.3173 16.8395 21.2318M15.2537 20.4464C15.255 20.4473 15.2563 20.4481 15.2576 20.4488L15.3091 20.3631M15.3091 20.3631C15.6271 20.5855 15.9286 20.8324 16.2076 21.1066C16.2165 21.1148 16.2246 21.1234 16.2326 21.1319C16.2379 21.1375 16.2432 21.1431 16.2486 21.1485C16.3158 21.2149 16.3824 21.2835 16.4472 21.3534C16.4451 21.3557 16.443 21.3581 16.4408 21.3605L16.515 21.4275L16.5894 21.3607C16.5872 21.3583 16.5851 21.3559 16.5829 21.3535C16.6441 21.2878 16.7064 21.2235 16.7696 21.1602M16.8395 21.2318C16.8392 21.2321 16.8388 21.2324 16.8385 21.2327L16.7696 21.1602M16.8395 21.2318C16.8507 21.221 16.8612 21.2101 16.8698 21.201L16.8704 21.2003C16.88 21.1902 16.8875 21.1824 16.8951 21.1751L16.8951 21.1752L16.8961 21.1742C17.0236 21.0495 17.1561 20.9305 17.2925 20.8161M16.8395 21.2318C16.8398 21.2315 16.8401 21.2312 16.8403 21.2309L16.7696 21.1602M16.7696 21.1602C16.7794 21.1509 16.7887 21.1412 16.7979 21.1314C16.8072 21.1217 16.8165 21.1119 16.8262 21.1026C16.956 20.9758 17.0906 20.8548 17.2292 20.7387M17.2925 20.8161L17.2921 20.8164L17.2292 20.7387M17.2925 20.8161L17.3224 20.7923L17.3227 20.7921C17.333 20.7839 17.3439 20.7753 17.3545 20.7667L17.3548 20.7665C17.4794 20.6648 17.6079 20.5671 17.7391 20.4741M17.2925 20.8161C17.2928 20.8158 17.2931 20.8156 17.2934 20.8154L17.2292 20.7387M17.2292 20.7387C17.2394 20.7304 17.2499 20.7221 17.2604 20.7138C17.2709 20.7056 17.2814 20.6973 17.2916 20.689C17.4185 20.5855 17.5492 20.486 17.6829 20.3914M17.7391 20.4741C17.7385 20.4745 17.7379 20.4748 17.7374 20.4752L17.6829 20.3914M17.7391 20.4741C17.7506 20.4666 17.7613 20.4588 17.7703 20.4523C17.772 20.4511 17.7735 20.45 17.775 20.4489C17.7829 20.4431 17.7894 20.4384 17.7959 20.4339L17.7965 20.4335C18.1021 20.2211 18.4243 20.0355 18.7602 19.8747L18.7602 19.8747L18.7618 19.874L18.7752 19.8675L18.79 19.8603M17.7391 20.4741C17.7396 20.4737 17.7401 20.4734 17.7406 20.473L17.6829 20.3914M17.6829 20.3914C17.6941 20.3841 17.7051 20.3761 17.7158 20.3682C17.7238 20.3625 17.7316 20.3567 17.7394 20.3514C18.0497 20.1358 18.3766 19.9475 18.7171 19.7845C18.7219 19.7821 18.7271 19.7796 18.7322 19.7772C18.7373 19.7748 18.7424 19.7723 18.7473 19.7699M18.79 19.8603L18.7473 19.7699M18.79 19.8603L18.792 19.8593L18.7473 19.7699M18.79 19.8603L18.7473 19.7699" fill="#C5B9AF" stroke="#F9F1EA" stroke-width="0.2"/>
</svg>
