<svg width="45" height="45" viewBox="0 0 45 45" fill="none" xmlns="http://www.w3.org/2000/svg">
<path fill-rule="evenodd" clip-rule="evenodd" d="M34.722 0.687744V9.58686H7.09259L34.722 0.687744Z" fill="white"/>
<path d="M35.5008 0.687847V9.58696C35.5008 10.0211 35.1497 10.3722 34.7219 10.3722H7.09255C6.66483 10.3722 6.31372 10.0211 6.31372 9.58696C6.31372 9.21031 6.58185 8.8975 6.92658 8.81451L34.4857 -0.0590646C34.8943 -0.186742 35.3284 0.0366954 35.4561 0.451647C35.488 0.534637 35.5008 0.611241 35.5008 0.687847ZM33.9431 8.80175V1.76033L12.0784 8.80175H33.9431Z" fill="#C5B9AF"/>
<path d="M7.09255 8.80182H44.2211C44.6488 8.80182 45 9.15293 45 9.58703V38.7166C45 39.1507 44.6488 39.5018 44.2211 39.5018H7.09255C6.66483 39.5018 6.31372 39.1507 6.31372 38.7166V9.58703C6.31372 9.15293 6.65845 8.80182 7.09255 8.80182ZM43.4423 10.3722H7.87139V37.9314H43.4423V10.3722Z" fill="#C5B9AF"/>
<path d="M36.3944 18.9521H44.221C44.6487 18.9521 44.9998 19.3032 44.9998 19.7373V28.5598C44.9998 28.9939 44.6487 29.345 44.221 29.345H36.3944C35.5964 29.345 34.8686 29.0131 34.3451 28.4832C33.8216 27.9533 33.4897 27.2192 33.4897 26.4084V21.8823C33.4897 21.0715 33.8153 20.3438 34.3451 19.8139C34.8686 19.2841 35.5964 18.9521 36.3944 18.9521ZM43.4421 20.5225H36.3944C36.0241 20.5225 35.6857 20.6757 35.4431 20.9247C35.2006 21.1737 35.0474 21.512 35.0474 21.8887V26.4148C35.0474 26.7915 35.2006 27.1298 35.4431 27.3788C35.6857 27.6278 36.0241 27.781 36.3944 27.781H43.4421V20.5225Z" fill="#C5B9AF"/>
<path fill-rule="evenodd" clip-rule="evenodd" d="M14.0009 44.4109C21.253 44.4109 27.1325 38.4739 27.1325 31.1453C27.1325 23.8166 21.253 17.8796 14.0009 17.8796C6.74883 17.8796 0.862915 23.8166 0.862915 31.1453C0.862915 38.4676 6.74245 44.4109 14.0009 44.4109Z" fill="white"/>
<path d="M20.8042 37.6871C17.9521 37.6441 15.2863 36.2475 13.6269 33.9204C13.6269 33.9204 13.6269 33.9204 13.6268 33.9204L7.69811 25.6034C10.5128 25.6646 13.1407 27.0431 14.7907 29.3342L20.8042 37.6871Z" fill="#C5B9AF" stroke="#F9F1EA" stroke-width="0.2"/>
<path d="M13.9082 28.1498C14.0552 28.2955 14.1971 28.4475 14.334 28.6045C14.351 28.6246 14.3683 28.6443 14.3855 28.6641C14.4028 28.6839 14.4201 28.7037 14.437 28.7238L13.9082 28.1498ZM13.9082 28.1498C13.9012 28.1428 13.8945 28.1356 13.8876 28.1283C13.8773 28.1174 13.8668 28.1063 13.8555 28.0958C13.6847 27.9287 13.5076 27.7692 13.3254 27.6172M13.9082 28.1498L13.3254 27.6172M13.3254 27.6172C13.3053 27.5996 13.284 27.5833 13.2626 27.567M13.3254 27.6172L13.2626 27.567M13.2626 27.567L13.2626 27.567L13.2626 27.567ZM14.3606 28.7883L14.3607 28.7883C14.5103 28.9654 14.6541 29.1452 14.7876 29.3331L14.788 29.3336L19.6068 36.0256C17.7562 35.4495 16.1168 34.2851 14.9644 32.6688L10.2317 26.03C10.611 26.151 10.9809 26.2968 11.3395 26.4666L11.3395 26.4666L11.3429 26.4681L11.3508 26.4719L11.3514 26.4723C11.355 26.4741 11.3608 26.4769 11.3671 26.4797C11.8036 26.6882 12.2239 26.9312 12.6217 27.2075C12.6317 27.2148 12.6415 27.2216 12.6504 27.2278L12.6507 27.2281C12.6603 27.2348 12.6688 27.2408 12.6772 27.2469L12.6772 27.2469L12.6789 27.2481C12.8574 27.3733 13.03 27.5062 13.1994 27.6444L13.1994 27.6445L13.2019 27.6464C13.2237 27.6631 13.2424 27.6774 13.2596 27.6925L13.2596 27.6925L13.2614 27.694C13.4415 27.8443 13.6167 28.0021 13.7856 28.1673L13.7856 28.1673L13.7873 28.1689C13.7976 28.1786 13.8039 28.1852 13.8116 28.1935C13.818 28.2004 13.8256 28.2085 13.8375 28.2205L13.8378 28.2208C13.9828 28.3645 14.1229 28.5145 14.2582 28.6696C14.2755 28.6901 14.293 28.7102 14.31 28.7296L14.3102 28.7299C14.3276 28.7498 14.3443 28.7689 14.3606 28.7883Z" fill="#C5B9AF" stroke="#F9F1EA" stroke-width="0.2"/>
<path d="M20.8045 25.6021L14.8758 33.9191C14.8758 33.9191 14.8758 33.9191 14.8758 33.9191C13.2164 36.2462 10.5506 37.6427 7.69847 37.6857L13.712 29.3341C15.362 27.043 17.9898 25.6645 20.8045 25.6021Z" fill="#C5B9AF" stroke="#F9F1EA" stroke-width="0.2"/>
<path d="M13.7116 29.3336L13.7116 29.3336C14.8497 27.7523 16.4569 26.6083 18.2678 26.0301L13.5352 32.6688C12.3828 34.285 10.7424 35.4494 8.89287 36.0255L13.7116 29.3336Z" fill="#C5B9AF" stroke="#F9F1EA" stroke-width="0.2"/>
<path d="M20.8019 25.6023L16.515 31.6154L16.4954 31.643C15.7674 31.7817 15.0171 31.8549 14.2488 31.8549C13.4805 31.8549 12.7303 31.7817 12.0023 31.643L11.9827 31.6154L7.69564 25.6021C8.98021 25.6304 10.2242 25.9365 11.3559 26.4745L11.3988 26.3842C11.4001 26.3848 11.4017 26.3855 11.4032 26.3861C11.4048 26.3867 11.4064 26.3873 11.4076 26.388C11.8498 26.599 12.2756 26.8452 12.6788 27.1253M20.8019 25.6023L11.3541 26.4737C11.3575 26.4753 11.3604 26.4766 11.3621 26.4773L11.3658 26.4788M20.8019 25.6023C19.5275 25.6314 18.2926 25.9325 17.1664 26.4641M20.8019 25.6023L17.1664 26.4641M12.6788 27.1253L12.6188 27.2053C12.6189 27.2054 12.6193 27.2057 12.6198 27.2061M12.6788 27.1253L12.6217 27.2074C12.6211 27.207 12.6205 27.2065 12.6198 27.2061M12.6788 27.1253C12.6797 27.126 12.6807 27.1268 12.6818 27.1276C12.6862 27.1309 12.6913 27.1348 12.6963 27.1378M12.6198 27.2061C12.2221 26.93 11.8021 26.6871 11.3658 26.4788M12.6198 27.2061C12.623 27.2085 12.6319 27.2154 12.6412 27.2213M11.3658 26.4788L11.3661 26.4789C11.3668 26.4792 11.3669 26.4793 11.3669 26.4793L11.3667 26.4792L11.3646 26.4782L11.3629 26.4774L11.3629 26.4774L11.3645 26.4782C11.365 26.4784 11.3654 26.4786 11.3658 26.4788ZM12.6412 27.2213C12.6405 27.2208 12.6397 27.2203 12.639 27.2198L12.6963 27.1378M12.6412 27.2213C13.0457 27.5044 13.4288 27.8182 13.7831 28.1663L13.7831 28.1663L13.7849 28.1681C13.7953 28.1778 13.8015 28.1844 13.8092 28.1927C13.8157 28.1996 13.8233 28.2077 13.8352 28.2197L13.8356 28.2201C13.9512 28.3344 14.0653 28.4535 14.1744 28.575L14.2486 28.6576L14.323 28.5753C14.4283 28.4589 14.5361 28.3461 14.6465 28.2356M12.6412 27.2213C12.6424 27.2221 12.6437 27.2229 12.6449 27.2236L12.6963 27.1378M12.6963 27.1378C13.1058 27.4242 13.4939 27.742 13.8532 28.095C13.8645 28.1056 13.875 28.1166 13.8853 28.1276C13.8921 28.1348 13.8989 28.142 13.9059 28.149C13.9991 28.2412 14.0915 28.3366 14.1812 28.4339C14.179 28.4363 14.1768 28.4387 14.1747 28.4411L14.2488 28.5082L14.3232 28.4414C14.321 28.439 14.3188 28.4365 14.3167 28.4341C14.4018 28.3421 14.4884 28.2523 14.5767 28.1641M14.6465 28.2356C14.6462 28.2359 14.6459 28.2362 14.6455 28.2366L14.5767 28.1641M14.6465 28.2356C14.6606 28.2222 14.6737 28.2084 14.6849 28.1966L14.6856 28.1959C14.6978 28.183 14.708 28.1723 14.7184 28.1624L14.7184 28.1625L14.7194 28.1615C14.8843 28.0003 15.0555 27.8464 15.2319 27.6986M14.6465 28.2356C14.6468 28.2353 14.6471 28.235 14.6474 28.2348L14.5767 28.1641M14.5767 28.1641C14.5892 28.1521 14.6012 28.1396 14.6131 28.127C14.625 28.1144 14.637 28.1019 14.6495 28.0899C14.8166 27.9267 14.9899 27.7709 15.1683 27.6214M15.2319 27.6986C15.2316 27.6988 15.2314 27.699 15.2312 27.6992L15.1683 27.6214M15.2319 27.6986C15.2443 27.6885 15.2571 27.6784 15.2705 27.6678L15.2707 27.6677C15.284 27.6571 15.2979 27.6461 15.3116 27.6351L15.3119 27.6349C15.4729 27.5035 15.6389 27.3772 15.8086 27.257M15.2319 27.6986C15.2321 27.6984 15.2323 27.6983 15.2325 27.6981L15.1683 27.6214M15.1683 27.6214C15.1815 27.6108 15.195 27.6001 15.2085 27.5894C15.222 27.5787 15.2355 27.568 15.2487 27.5574C15.4119 27.4242 15.5803 27.2961 15.7523 27.1743M15.8086 27.257C15.808 27.2574 15.8074 27.2577 15.8068 27.2581L15.7523 27.1743M15.8086 27.257C15.8229 27.2476 15.8363 27.2379 15.8481 27.2294C15.8501 27.2279 15.8521 27.2265 15.854 27.2251C15.8642 27.2177 15.8729 27.2113 15.8817 27.2053L15.8823 27.2049C16.2771 26.9305 16.6932 26.6908 17.1269 26.4832L17.1269 26.4832L17.1285 26.4824L17.1462 26.4739C17.1523 26.471 17.1594 26.4676 17.1664 26.4641M15.8086 27.257C15.8091 27.2566 15.8096 27.2563 15.8101 27.2559L15.7523 27.1743M15.7523 27.1743C15.7668 27.1649 15.7809 27.1546 15.7948 27.1445C15.805 27.137 15.8151 27.1297 15.8252 27.1228C16.2246 26.8452 16.6454 26.6028 17.0838 26.393C17.0901 26.3899 17.0967 26.3867 17.1032 26.3836C17.1098 26.3804 17.1164 26.3773 17.1227 26.3742M17.1664 26.4641C17.166 26.4643 17.1657 26.4644 17.1654 26.4646L17.1227 26.3742M17.1664 26.4641C17.1667 26.464 17.1671 26.4638 17.1674 26.4636L17.1227 26.3742M17.1664 26.4641L17.1227 26.3742" fill="#C5B9AF" stroke="#F9F1EA" stroke-width="0.2"/>
<path d="M13.9999 43.6258C17.4089 43.6258 20.4987 42.2277 22.7394 39.9679C24.9738 37.708 26.3591 34.5926 26.3591 31.1454C26.3591 27.6981 24.9738 24.5763 22.7394 22.3228C20.5051 20.063 17.4153 18.6649 13.9999 18.6649C10.5846 18.6649 7.50115 20.063 5.26041 22.3228C3.02606 24.5827 1.64075 27.7044 1.64075 31.1454C1.64075 34.5926 3.02606 37.7143 5.26041 39.9679C7.49477 42.2277 10.5846 43.6258 13.9999 43.6258ZM23.8311 41.0787C21.3158 43.6194 17.8366 45.1962 13.9999 45.1962C10.1568 45.1962 6.67763 43.6258 4.16239 41.0787C1.64714 38.5379 0.0894775 35.0204 0.0894775 31.139C0.0894775 27.2576 1.64714 23.7464 4.16239 21.2057C6.67763 18.6649 10.1568 17.0881 13.9999 17.0881C17.843 17.0881 21.3158 18.6585 23.8311 21.2057C26.3463 23.7464 27.904 27.2576 27.904 31.139C27.9104 35.0267 26.3527 38.5379 23.8311 41.0787Z" fill="#C5B9AF"/>
<path fill-rule="evenodd" clip-rule="evenodd" d="M39.2408 25.4893C39.975 25.4893 40.5687 24.8892 40.5687 24.1487C40.5687 23.4145 39.975 22.8145 39.2408 22.8145C38.5131 22.8145 37.9194 23.4145 37.9194 24.1487C37.9194 24.8892 38.5131 25.4893 39.2408 25.4893Z" fill="#C5B9AF"/>
</svg>
